<?xml version="1.0" standalone="no"?>
<!DOCTYPE svg PUBLIC "-//W3C//DTD SVG 20010904//EN"
 "http://www.w3.org/TR/2001/REC-SVG-20010904/DTD/svg10.dtd">
<svg version="1.0" xmlns="http://www.w3.org/2000/svg"
 width="456.000000pt" height="456.000000pt" viewBox="0 0 456.000000 456.000000"
 preserveAspectRatio="xMidYMid meet">
<metadata>
Created by potrace 1.14, written by Peter Selinger 2001-2017
</metadata>
<g transform="translate(0.000000,456.000000) scale(0.100000,-0.100000)"
fill="#000000" stroke="none">
<path d="M1410 3264 c-65 -17 -182 -72 -193 -91 -4 -7 -12 -13 -18 -13 -13 0
-88 -81 -95 -102 -3 -10 -10 -18 -15 -18 -5 0 -9 -7 -9 -15 0 -8 -5 -15 -11
-15 -5 0 -7 -5 -4 -10 3 -6 0 -13 -9 -16 -8 -3 -12 -12 -10 -19 3 -7 1 -16 -5
-20 -6 -3 -11 -15 -11 -26 0 -10 -4 -19 -8 -19 -4 0 -9 -8 -10 -17 -2 -22 -10
-58 -12 -58 -2 0 -10 -84 -10 -105 0 -48 7 -128 13 -137 3 -5 9 -25 12 -44 4
-19 8 -38 9 -44 1 -5 7 -20 14 -31 6 -12 8 -24 5 -28 -3 -3 -1 -6 6 -6 7 0 9
-4 6 -10 -3 -5 -1 -10 4 -10 6 0 11 -9 11 -20 0 -11 4 -20 8 -20 8 0 36 -60
33 -72 0 -5 4 -8 10 -8 5 0 7 -4 4 -10 -3 -5 -1 -10 5 -10 6 0 13 -8 17 -17 7
-20 64 -96 75 -101 5 -2 8 -8 8 -13 0 -6 33 -43 74 -84 41 -40 72 -76 69 -79
-4 -3 -2 -6 4 -6 5 0 28 -17 51 -37 23 -21 60 -54 83 -73 23 -19 49 -43 58
-52 8 -10 19 -18 24 -18 9 0 30 -17 55 -42 9 -10 22 -18 28 -18 7 0 14 -7 18
-15 3 -8 10 -15 16 -15 6 0 21 -10 34 -22 13 -13 36 -32 51 -43 16 -11 34 -26
41 -32 7 -7 15 -13 19 -13 7 0 30 -19 53 -42 9 -10 22 -18 29 -18 7 0 13 -4
13 -10 0 -5 7 -10 15 -10 9 0 18 -6 21 -14 3 -8 18 -19 34 -26 16 -7 31 -18
34 -26 3 -8 12 -14 21 -14 8 0 15 -4 15 -10 0 -5 7 -10 15 -10 8 0 15 -4 15
-10 0 -5 5 -10 11 -10 6 0 17 -6 24 -12 33 -30 45 -38 55 -38 5 0 10 -4 10 -9
0 -5 13 -12 29 -16 26 -5 48 8 198 120 92 70 178 137 190 149 11 11 36 32 54
46 74 56 208 164 269 218 86 76 290 275 286 279 -1 2 17 24 41 49 23 25 43 52
43 60 0 8 4 14 9 14 17 0 117 162 113 183 -1 4 2 7 7 7 8 0 24 37 22 53 -1 4
3 7 8 7 5 0 12 15 16 33 4 17 10 39 12 47 2 8 5 22 7 30 1 9 4 20 7 25 3 6 5
22 4 38 0 15 2 27 5 27 8 0 5 54 -5 115 -3 22 -6 48 -6 57 0 10 -5 20 -10 23
-5 4 -7 11 -4 16 4 5 2 9 -2 9 -5 0 -9 10 -10 22 -1 11 -7 24 -13 28 -7 4 -12
10 -12 13 0 19 -12 47 -19 47 -5 0 -9 7 -9 15 0 8 -4 15 -10 15 -5 0 -10 4
-10 9 0 13 -87 101 -100 101 -5 0 -10 4 -10 9 0 5 -26 22 -58 39 -198 101
-460 73 -640 -69 -44 -35 -132 -118 -131 -125 0 -3 -12 -20 -28 -38 -15 -17
-29 -38 -31 -46 -2 -8 -8 -16 -13 -18 -5 -2 -9 -10 -9 -17 0 -8 -7 -21 -16
-29 -8 -9 -13 -16 -9 -16 3 0 0 -10 -7 -22 -7 -13 -13 -26 -14 -30 -1 -5 -3
-10 -4 -13 -1 -3 -4 -9 -5 -15 -1 -5 -4 -13 -5 -17 -1 -5 -2 -11 -1 -15 0 -5
-3 -8 -7 -8 -4 0 -8 -8 -9 -17 -2 -27 -10 -78 -13 -78 -3 0 -10 -56 -12 -98
-3 -47 -31 -48 -33 -2 -1 17 -5 44 -9 60 -3 17 -9 41 -12 55 -3 14 -6 31 -6
38 -1 6 -4 12 -8 12 -4 0 -7 7 -8 15 -1 8 -3 22 -4 30 -1 8 -4 15 -8 15 -3 0
-6 10 -7 22 -1 11 -6 24 -10 27 -4 3 -10 15 -11 26 -2 11 -9 23 -15 27 -7 4
-12 11 -12 15 -1 11 -26 55 -39 69 -6 6 -18 22 -26 34 -16 24 -103 114 -136
140 -27 22 -133 85 -174 103 -94 43 -276 58 -380 31z"/>
<path d="M700 2730 c-36 -22 -78 -48 -95 -59 -49 -32 -185 -111 -191 -111 -3
0 -12 -6 -19 -14 -7 -7 -83 -54 -169 -105 -174 -103 -212 -142 -183 -188 5 -7
6 -13 3 -13 -3 0 4 -10 16 -22 13 -13 26 -22 30 -21 5 2 8 -2 8 -7 0 -6 6 -10
14 -10 8 0 21 -6 28 -14 8 -7 29 -21 48 -31 19 -10 40 -24 48 -31 7 -8 20 -14
28 -14 8 0 14 -4 14 -10 0 -5 7 -10 15 -10 8 0 15 -4 15 -8 0 -5 22 -19 50
-32 27 -13 50 -27 50 -32 0 -4 4 -8 9 -8 6 0 30 -13 54 -30 25 -16 50 -30 56
-30 6 0 11 -4 11 -10 0 -5 7 -10 15 -10 8 0 15 -3 15 -8 0 -7 10 -13 66 -42
16 -8 31 -17 34 -20 15 -15 95 -50 115 -50 27 0 80 44 71 59 -4 5 -2 12 2 15
8 5 9 101 2 116 -1 3 -2 9 -1 14 1 4 -4 14 -10 22 -6 8 -8 14 -4 14 18 0 -47
40 -130 79 -236 112 -325 157 -325 162 0 4 44 32 98 64 53 32 122 74 152 93
30 20 75 46 99 59 50 27 98 63 85 63 -5 0 -3 4 5 9 21 14 36 137 19 159 -6 6
-8 12 -4 12 3 0 -2 9 -11 20 -25 29 -60 24 -133 -20z"/>
<path d="M3802 2693 c-15 -16 -29 -35 -31 -43 -8 -32 -6 -160 2 -160 4 0 6 -4
3 -9 -8 -12 51 -71 70 -71 8 0 14 -5 14 -11 0 -5 3 -8 8 -5 4 2 36 -9 70 -25
35 -16 66 -29 69 -29 3 0 21 -7 41 -16 77 -34 100 -44 123 -52 21 -8 18 -12
-42 -46 -35 -21 -122 -73 -194 -117 -71 -43 -133 -79 -137 -79 -13 0 -58 -51
-58 -65 0 -8 -4 -16 -9 -19 -4 -3 -7 -17 -6 -31 2 -14 -1 -27 -6 -30 -9 -6 8
-52 26 -71 23 -24 52 -24 96 -1 70 37 354 211 357 219 2 4 8 8 12 8 17 0 265
153 290 179 37 38 34 79 -10 118 -19 18 -41 33 -47 33 -7 0 -13 3 -13 8 0 4
-22 18 -50 31 -27 13 -50 27 -50 30 0 3 -15 12 -32 20 -18 8 -51 26 -73 41
-22 15 -50 30 -62 34 -13 4 -23 12 -23 17 0 5 -6 9 -14 9 -8 0 -21 6 -28 13
-7 7 -34 23 -60 37 -27 14 -48 28 -48 31 0 4 -13 12 -30 19 -16 7 -30 16 -30
20 0 6 -82 40 -97 40 -2 0 -16 -12 -31 -27z"/>
</g>
</svg>
