<?xml version="1.0" encoding="UTF-8"?>
<svg version="1.1" xmlns="http://www.w3.org/2000/svg" width="942" height="330">
<path d="M0 0 C1.34888732 0.00015905 2.69778075 0.00584927 4.04663086 0.01586914 C5.10991859 0.01799156 5.10991859 0.01799156 6.19468689 0.02015686 C8.46699173 0.02577096 10.73919936 0.03832576 13.01147461 0.05102539 C14.54858257 0.05603858 16.08569206 0.0606018 17.62280273 0.06469727 C21.39823103 0.07574497 25.17358632 0.09301898 28.94897461 0.11352539 C29.27365974 1.01360573 29.27365974 1.01360573 29.60490417 1.93186951 C32.44585513 9.80597183 35.29000775 17.67891556 38.13647461 25.55102539 C38.48739922 26.52154028 38.48739922 26.52154028 38.84541321 27.51166153 C46.06204394 47.46676705 53.34729927 67.39520148 60.69897461 87.30102539 C67.03816533 104.47565789 73.3699601 121.6528736 79.62316895 138.85903931 C80.37595788 140.92864377 81.13040682 142.99764526 81.88659668 145.06600952 C82.91858493 147.89006744 83.94443603 150.71627569 84.96850586 153.54321289 C85.27361588 154.37463303 85.57872589 155.20605316 85.89308167 156.06266785 C87.94897461 161.77027613 87.94897461 161.77027613 87.94897461 165.11352539 C73.75897461 165.11352539 59.56897461 165.11352539 44.94897461 165.11352539 C43.21647461 159.76133789 43.21647461 159.76133789 41.44897461 154.30102539 C41.08352539 153.17978271 40.71807617 152.05854004 40.34155273 150.90332031 C39.91519531 149.57457886 39.91519531 149.57457886 39.48022461 148.21899414 C39.18696289 147.3130249 38.89370117 146.40705566 38.59155273 145.47363281 C37.94897461 143.11352539 37.94897461 143.11352539 37.94897461 140.11352539 C21.44897461 140.11352539 4.94897461 140.11352539 -12.05102539 140.11352539 C-12.71102539 143.08352539 -13.37102539 146.05352539 -14.05102539 149.11352539 C-14.86866305 151.80332403 -15.70537882 154.45645561 -16.61352539 157.11352539 C-16.83459961 157.7799707 -17.05567383 158.44641602 -17.28344727 159.13305664 C-18.91703682 163.97953682 -18.91703682 163.97953682 -20.05102539 165.11352539 C-21.40197521 165.20621538 -22.7576963 165.23099865 -24.11181641 165.22705078 C-24.97263321 165.22697525 -25.83345001 165.22689972 -26.72035217 165.2268219 C-27.6557634 165.22166061 -28.59117462 165.21649933 -29.55493164 165.21118164 C-30.50794662 165.20976669 -31.46096161 165.20835175 -32.44285583 165.20689392 C-35.49977704 165.20127691 -38.55662616 165.18872155 -41.61352539 165.17602539 C-43.68058163 165.17101258 -45.74763901 165.1664493 -47.81469727 165.16235352 C-52.89350127 165.15130195 -57.97225109 165.13402594 -63.05102539 165.11352539 C-60.9465984 157.78452024 -58.5105555 150.61710677 -55.90258789 143.45336914 C-55.2954319 141.77602188 -55.2954319 141.77602188 -54.67601013 140.06478882 C-53.57514472 137.0260859 -52.47169404 133.98833874 -51.36684036 130.95108414 C-50.67050923 129.03585341 -49.97530861 127.12021612 -49.28048706 125.20443726 C-41.42422409 103.54353143 -33.47028557 81.9192762 -25.48217773 60.30664062 C-19.56836488 44.29568099 -13.74703524 28.25401336 -8.04736328 12.16552734 C-7.77938431 11.41213577 -7.51140533 10.6587442 -7.23530579 9.88252258 C-6.74200639 8.49529142 -6.2510349 7.10722932 -5.76286316 5.71818542 C-3.77705134 0.14054004 -3.77705134 0.14054004 0 0 Z M12.94897461 66.11352539 C11.09367909 71.48735395 9.24236707 76.86253156 7.39477539 82.23901367 C6.76534283 84.06881996 6.1348126 85.89824904 5.50317383 87.72729492 C4.59681756 90.35245555 3.69438403 92.97893593 2.79272461 95.60571289 C2.50836548 96.42659393 2.22400635 97.24747498 1.93103027 98.0932312 C0.47953388 102.01254826 0.47953388 102.01254826 -0.05102539 106.11352539 C8.85897461 106.11352539 17.76897461 106.11352539 26.94897461 106.11352539 C25.28369438 100.5753228 23.61390884 95.03893513 21.93188477 89.50585938 C21.36074253 87.62193518 20.79237413 85.73716778 20.22680664 83.8515625 C19.41486299 81.14626863 18.5930942 78.44413292 17.76928711 75.74243164 C17.51712433 74.89451553 17.26496155 74.04659943 17.00515747 73.17298889 C16.37819424 71.13427361 15.67092223 69.12057161 14.94897461 67.11352539 C14.28897461 66.78352539 13.62897461 66.45352539 12.94897461 66.11352539 Z " fill="#1B365D" transform="translate(360.051025390625,57.886474609375)"/>
<path d="M0 0 C89.13157895 0 89.13157895 0 106 15 C117.19379797 26.51908782 121.42371259 39.97997985 121.36572266 55.70288086 C121.08004625 69.24892241 115.86022254 81.33002047 106.73828125 91.34765625 C96.2020851 101.3629618 83.01974601 106.19554192 68.63671875 106.09765625 C67.93405884 106.09664917 67.23139893 106.09564209 66.50744629 106.09460449 C63.90078075 106.08940101 61.29413861 106.07543987 58.6875 106.0625 C52.850625 106.041875 47.01375 106.02125 41 106 C41 125.47 41 144.94 41 165 C27.47 165 13.94 165 0 165 C0 110.55 0 56.1 0 0 Z M41 37 C41 47.56 41 58.12 41 69 C45.49625 69.0825 49.9925 69.165 54.625 69.25 C56.73575928 69.30462402 56.73575928 69.30462402 58.88916016 69.36035156 C67.79123772 69.5506972 67.79123772 69.5506972 75 65 C78.36612181 61.26997313 79.86721491 58.75940241 80.25 53.6875 C79.87093263 48.09625624 78.1896318 45.1896318 74.25 41.25 C67.23295642 36.39204675 60.31890357 36.74278522 52.0625 36.875 C48.411875 36.91625 44.76125 36.9575 41 37 Z " fill="#1B365D" transform="translate(573,58)"/>
<path d="M0 0 C2.21875 1.94140625 2.21875 1.94140625 7.21875 7.94140625 C-1.03125 16.19140625 -9.28125 24.44140625 -17.78125 32.94140625 C-20.62127667 31.52139291 -23.25595055 30.06216804 -25.96875 28.44140625 C-35.3221125 23.29402007 -46.07139312 22.54358517 -56.5390625 24.44140625 C-61.37209211 25.84505842 -64.0650444 27.52757215 -66.78125 31.94140625 C-68.33149464 35.04189553 -68.07117015 37.52034843 -67.78125 40.94140625 C-65.45921806 45.1984648 -62.78314403 46.62508628 -58.29638672 48.23193359 C-52.06886196 49.98860093 -45.5354413 50.50891349 -39.13085938 51.31445312 C-25.56285683 53.1475524 -9.34094617 56.50168093 -0.2890625 67.8046875 C9.05987682 80.89785377 10.35642272 95.33328048 9.21875 110.94140625 C7.74330181 119.3303831 4.60605187 126.36233105 -0.78125 132.94140625 C-1.38324219 133.69035156 -1.98523438 134.43929687 -2.60546875 135.2109375 C-12.9141619 146.73703822 -28.75023379 152.23129063 -43.78125 153.94140625 C-68.87915022 155.01611547 -93.68347911 153.20994231 -113.53125 136.00390625 C-114.62408735 134.99325382 -115.71154079 133.97650722 -116.78125 132.94140625 C-115.19416345 129.0816163 -112.58421121 126.40553414 -109.6953125 123.484375 C-109.19712006 122.97715408 -108.69892761 122.46993317 -108.18563843 121.94734192 C-107.13430388 120.88154455 -106.08017403 119.81849819 -105.0234375 118.75805664 C-103.40628039 117.12893687 -101.80871275 115.48208906 -100.2109375 113.83398438 C-99.18604838 112.79963797 -98.16004397 111.76639521 -97.1328125 110.734375 C-96.65663483 110.23866501 -96.18045715 109.74295502 -95.68984985 109.23222351 C-94.31494141 107.87573242 -94.31494141 107.87573242 -91.78125 105.94140625 C-88.63087306 106.12949363 -86.65424407 107.54499526 -84.09375 109.31640625 C-75.0910152 115.11705102 -65.39460933 116.1290683 -54.90625 116.19140625 C-53.61654297 116.22234375 -53.61654297 116.22234375 -52.30078125 116.25390625 C-45.48411306 116.29528208 -39.54973979 115.49693528 -34.34375 110.69140625 C-32.39108331 107.25471287 -31.84950715 104.90032093 -31.78125 100.94140625 C-32.97093114 96.74253164 -33.69317703 94.59880627 -37.47485352 92.31396484 C-40.92949754 90.8798654 -43.92123932 90.24175836 -47.62109375 89.73046875 C-48.9246582 89.54057373 -50.22822266 89.35067871 -51.57128906 89.1550293 C-52.24969849 89.05942719 -52.92810791 88.96382507 -53.6270752 88.86532593 C-88.13647457 83.93361354 -88.13647457 83.93361354 -99.90625 70.51953125 C-108.69721047 58.72499262 -109.73136906 45.23065198 -108.78125 30.94140625 C-106.70233046 17.51846119 -99.78696973 6.46270568 -89.31640625 -2.06640625 C-64.54538419 -19.27574789 -24.1642621 -17.17152187 0 0 Z " fill="#1B365D" transform="translate(814.78125,70.05859375)"/>
<path d="M0 0 C12.86725082 10.14881755 18.41563146 21.85533812 20.49609375 37.96875 C20.90864733 42.9272345 20.93088068 47.88502879 20.88720703 52.85766602 C20.87107336 55.03400023 20.88719197 57.20848571 20.90625 59.38476562 C20.9315382 75.60423056 18.33898797 91.15028198 6.74609375 103.34375 C-5.83637824 115.01011333 -20.33329092 118.91608245 -37.19921875 118.2890625 C-52.34107809 117.35818304 -64.07149189 111.92716845 -74.50390625 100.96875 C-86.03114733 87.72234103 -86.73925646 71.73084561 -86.75390625 54.96875 C-86.75458099 54.27721832 -86.75525574 53.58568665 -86.75595093 52.87319946 C-86.72756642 34.58058054 -85.10496082 19.12169433 -71.94921875 5.29296875 C-53.32891458 -12.40524368 -21.18676628 -14.85906937 0 0 Z M-44.55859375 31.63671875 C-49.46561569 40.04171817 -48.7299591 51.47383793 -48.31640625 60.96875 C-48.28651611 61.74500732 -48.25662598 62.52126465 -48.22583008 63.32104492 C-47.83832287 69.61651544 -46.59969152 75.41451171 -42.50390625 80.40625 C-38.31966552 83.67518807 -33.57710468 83.45191176 -28.50390625 82.96875 C-23.87890477 81.11874941 -21.74237066 78.36849038 -19.50390625 73.96875 C-15.9909685 61.10782536 -15.14619396 43.53390864 -21.31640625 31.40625 C-24.18944445 28.20486458 -26.27186669 26.2614765 -30.6484375 25.6875 C-36.96638221 25.43603951 -40.5813464 26.47234624 -44.55859375 31.63671875 Z " fill="#1B365D" transform="translate(535.50390625,106.03125)"/>
<path d="M0 0 C2.01281778 1.01021123 3.98735195 2.09841513 5.9296875 3.23828125 C7.05503906 3.89376953 8.18039063 4.54925781 9.33984375 5.22460938 C10.51834676 5.92037377 11.69673135 6.61633879 12.875 7.3125 C14.04518702 7.99740453 15.21575683 8.68165551 16.38671875 9.36523438 C18.61446283 10.66750992 20.84077348 11.97224164 23.06542969 13.27978516 C26.36265968 15.21258736 29.67540397 17.11476989 33 19 C31.69484497 22.9154651 30.29270907 23.23415235 26.71484375 25.1796875 C25.62623047 25.77910156 24.53761719 26.37851563 23.41601562 26.99609375 C22.26810547 27.61613281 21.12019531 28.23617187 19.9375 28.875 C17.69560953 30.09972452 15.45470225 31.32625072 13.21484375 32.5546875 C12.14218262 33.13702148 11.06952148 33.71935547 9.96435547 34.31933594 C6.79324605 36.11722074 3.81067435 38.08745426 0.88110352 40.25439453 C-2.04206407 41.41303876 -3.99171563 40.79380158 -7 40 C-10.17211914 38.48120117 -10.17211914 38.48120117 -13.53515625 36.54296875 C-14.13629745 36.19873367 -14.73743866 35.8544986 -15.35679626 35.49983215 C-16.62065124 34.7736673 -17.88198084 34.04309111 -19.14086914 33.30834961 C-21.05491485 32.19192427 -22.97676133 31.09004798 -24.90039062 29.99023438 C-30.19953648 26.93538403 -35.29505295 23.94130258 -40 20 C-33.32851085 15.41253841 -26.47581772 11.1709315 -19.48730469 7.08374023 C-18.31828773 6.39655671 -17.15295846 5.70306508 -15.99121094 5.00366211 C-14.28895334 3.97931363 -12.5742929 2.97566539 -10.859375 1.97265625 C-9.85358398 1.37718994 -8.84779297 0.78172363 -7.81152344 0.16821289 C-4.51108074 -1.20315028 -3.3337374 -1.18231007 0 0 Z " fill="#77AB41" transform="translate(127,98)"/>
<path d="M0 0 C3.1647505 0.98218401 5.72650947 2.38472164 8.58544922 4.0625 C9.71080078 4.71798828 10.83615234 5.37347656 11.99560547 6.04882812 C13.17410848 6.74459252 14.35249307 7.44055754 15.53076172 8.13671875 C16.70094874 8.82162328 17.87151854 9.50587426 19.04248047 10.18945312 C21.27022455 11.49172867 23.4965352 12.79646039 25.72119141 14.10400391 C29.0184214 16.03680611 32.33116569 17.93898864 35.65576172 19.82421875 C34.35060668 23.73968385 32.94847079 24.0583711 29.37060547 26.00390625 C28.28199219 26.60332031 27.19337891 27.20273437 26.07177734 27.8203125 C24.92386719 28.44035156 23.77595703 29.06039062 22.59326172 29.69921875 C20.35137125 30.92394327 18.11046397 32.15046947 15.87060547 33.37890625 C14.79794434 33.96124023 13.7252832 34.54357422 12.62011719 35.14355469 C9.44900777 36.94143949 6.46643607 38.91167301 3.53686523 41.07861328 C0.61228488 42.23781749 -1.33487115 41.62038179 -4.34423828 40.82421875 C-7.51635742 39.28955078 -7.51635742 39.28955078 -10.87939453 37.33203125 C-11.48053574 36.9854245 -12.08167694 36.63881775 -12.70103455 36.28170776 C-14.60804805 35.17942773 -16.50734971 34.06457563 -18.40673828 32.94921875 C-19.68555086 32.20749773 -20.96484384 31.46660431 -22.24462891 30.7265625 C-25.61861589 28.77168851 -28.98494424 26.80426962 -32.34423828 24.82421875 C-33.30128662 24.29296387 -34.25833496 23.76170898 -35.24438477 23.21435547 C-35.93733643 22.75561035 -36.63028809 22.29686523 -37.34423828 21.82421875 C-37.34423828 21.16421875 -37.34423828 20.50421875 -37.34423828 19.82421875 C-36.18021484 19.18190308 -36.18021484 19.18190308 -34.99267578 18.52661133 C-32.07681708 16.91623441 -29.16207977 15.30386233 -26.24804688 13.69018555 C-24.99359858 12.99604033 -23.73872561 12.30266197 -22.48339844 11.61010742 C-20.66501731 10.60673776 -18.84817813 9.60062907 -17.03173828 8.59375 C-16.44255615 8.26883575 -15.85337402 7.94392151 -15.24633789 7.60916138 C-11.98660522 5.79640366 -8.8658462 3.86839897 -5.78173828 1.7734375 C-2.34423828 -0.17578125 -2.34423828 -0.17578125 0 0 Z " fill="#77AB41" transform="translate(124.34423828125,5.17578125)"/>
<path d="M0 0 C2.01281778 1.01021123 3.98735195 2.09841513 5.9296875 3.23828125 C7.05503906 3.89376953 8.18039063 4.54925781 9.33984375 5.22460938 C10.51834676 5.92037377 11.69673135 6.61633879 12.875 7.3125 C14.04518702 7.99740453 15.21575683 8.68165551 16.38671875 9.36523438 C18.61446283 10.66750992 20.84077348 11.97224164 23.06542969 13.27978516 C26.36265968 15.21258736 29.67540397 17.11476989 33 19 C33 19.66 33 20.32 33 21 C29.46255395 23.04564528 25.92452372 25.09027627 22.38598633 27.1340332 C21.18628732 27.82712481 19.98673882 28.520477 18.78735352 29.21411133 C15.91536372 30.87494885 13.04095439 32.53082381 10.16064453 34.17724609 C8.20007779 35.30791126 6.25059143 36.4583284 4.31982422 37.63916016 C3.54268066 38.10499512 2.76553711 38.57083008 1.96484375 39.05078125 C1.30991943 39.45594971 0.65499512 39.86111816 -0.01977539 40.27856445 C-2.76527076 41.27880349 -4.22206521 40.87296918 -7 40 C-9.01281778 38.98978877 -10.98735195 37.90158487 -12.9296875 36.76171875 C-14.61771484 35.77848633 -14.61771484 35.77848633 -16.33984375 34.77539062 C-17.51834676 34.07962623 -18.69673135 33.38366121 -19.875 32.6875 C-21.04518702 32.00259547 -22.21575683 31.31834449 -23.38671875 30.63476562 C-25.61446283 29.33249008 -27.84077348 28.02775836 -30.06542969 26.72021484 C-33.36265968 24.78741264 -36.67540397 22.88523011 -40 21 C-40 20.34 -40 19.68 -40 19 C-38.89785156 18.39414063 -37.79570313 17.78828125 -36.66015625 17.1640625 C-35.12745836 16.31797241 -33.59491846 15.47159609 -32.0625 14.625 C-31.25723877 14.1818042 -30.45197754 13.7386084 -29.62231445 13.28198242 C-25.42751216 10.9587136 -21.27974429 8.58713124 -17.1953125 6.07421875 C-16.43726318 5.61128418 -15.67921387 5.14834961 -14.89819336 4.67138672 C-13.44865994 3.78037589 -12.00639602 2.87740484 -10.57250977 1.96142578 C-6.49974594 -0.5314938 -4.55525973 -1.39560757 0 0 Z " fill="#77AB41" transform="translate(127,190)"/>
<path d="M0 0 C2.62792969 1.31933594 2.62792969 1.31933594 5.421875 2.984375 C6.44796875 3.59023437 7.4740625 4.19609375 8.53125 4.8203125 C9.5934375 5.45710937 10.655625 6.09390625 11.75 6.75 C13.84845736 7.99563602 15.94740828 9.24044097 18.046875 10.484375 C19.05041016 11.08056641 20.05394531 11.67675781 21.08789062 12.29101562 C25.01993682 14.59855447 28.9976465 16.81712911 33 19 C33 19.66 33 20.32 33 21 C23.66666667 26.33333333 14.33333333 31.66666667 5 37 C4.40430206 37.38514771 3.80860413 37.77029541 3.19485474 38.16711426 C0.54907142 39.83334008 -1.36046526 41.0080065 -4.53515625 40.96826172 C-7.6837699 39.73139546 -10.50888675 38.20446142 -13.4375 36.5078125 C-14.04005615 36.16120575 -14.6426123 35.814599 -15.26342773 35.45748901 C-17.17948585 34.35319953 -19.08972034 33.23924944 -21 32.125 C-22.28348762 31.38347977 -23.56733853 30.64258798 -24.8515625 29.90234375 C-28.24062066 27.94549296 -31.62410787 25.97951019 -35 24 C-35.95777344 23.46874512 -36.91554687 22.93749023 -37.90234375 22.39013672 C-38.59457031 21.9313916 -39.28679687 21.47264648 -40 21 C-40 20.34 -40 19.68 -40 19 C-38.94256592 18.410979 -38.94256592 18.410979 -37.86376953 17.81005859 C-34.6165818 16.00003733 -31.37078565 14.18753423 -28.125 12.375 C-27.01640625 11.75753906 -25.9078125 11.14007813 -24.765625 10.50390625 C-23.66992188 9.89160156 -22.57421875 9.27929688 -21.4453125 8.6484375 C-19.81384277 7.73916504 -19.81384277 7.73916504 -18.14941406 6.81152344 C-14.41315408 4.66244987 -10.7985555 2.34887468 -7.21435547 -0.04443359 C-4.30650393 -1.29926611 -2.98867967 -0.98291564 0 0 Z " fill="#77AB41" transform="translate(167,167)"/>
<path d="M0 0 C3.35761834 1.0429149 6.10898698 2.57232534 9.15234375 4.33544922 C9.7548999 4.68205597 10.35745605 5.02866272 10.97827148 5.38577271 C12.8943296 6.49006219 14.80456409 7.60401227 16.71484375 8.71826172 C17.99833137 9.45978195 19.28218228 10.20067374 20.56640625 10.94091797 C25.63911048 13.86991027 30.69879757 16.81798806 35.71484375 19.84326172 C34.40968872 23.75872682 33.00755282 24.07741407 29.4296875 26.02294922 C28.34107422 26.62236328 27.25246094 27.22177734 26.13085938 27.83935547 C24.98294922 28.45939453 23.83503906 29.07943359 22.65234375 29.71826172 C20.41045328 30.94298624 18.169546 32.16951244 15.9296875 33.39794922 C14.85702637 33.9802832 13.78436523 34.56261719 12.67919922 35.16259766 C9.5080898 36.96048245 6.5255181 38.93071598 3.59594727 41.09765625 C0.68355551 42.25202931 -1.29086734 41.62834119 -4.28515625 40.84326172 C-7.24194336 39.41625977 -7.24194336 39.41625977 -10.3125 37.60498047 C-11.99569336 36.62174805 -11.99569336 36.62174805 -13.71289062 35.61865234 C-14.88296521 34.92294557 -16.05288604 34.22698015 -17.22265625 33.53076172 C-18.38816529 32.8456544 -19.55417729 32.16140194 -20.72070312 31.47802734 C-22.93805883 30.17661892 -25.15349412 28.87193115 -27.36669922 27.56347656 C-30.65555503 25.624939 -33.96315886 23.72427625 -37.28515625 21.84326172 C-34.16769865 18.41029895 -30.90801608 16.28910104 -26.875 14.02294922 C-25.96192833 13.50584885 -25.96192833 13.50584885 -25.03041077 12.978302 C-23.09790817 11.88542992 -21.1605278 10.80157988 -19.22265625 9.71826172 C-17.2823201 8.62593503 -15.34302838 7.5317809 -13.40419006 6.4367981 C-11.64874462 5.44659754 -9.89072073 4.46097221 -8.13256836 3.47558594 C-1.84860582 -0.1267954 -1.84860582 -0.1267954 0 0 Z " fill="#77AB41" transform="translate(84.28515625,166.15673828125)"/>
<path d="M0 0 C2.5256421 1.23617244 4.99766322 2.50819875 7.4519043 3.88354492 C8.52633789 4.48489258 9.60077148 5.08624023 10.70776367 5.70581055 C12.38515625 6.65423828 12.38515625 6.65423828 14.09643555 7.62182617 C15.19536133 8.23477539 16.29428711 8.84772461 17.42651367 9.47924805 C23.7730208 13.04797567 29.92956934 16.77790229 35.90893555 20.93432617 C32.48014551 23.80535071 29.03995086 26.12099744 25.12768555 28.28198242 C24.03842773 28.88719727 22.94916992 29.49241211 21.8269043 30.1159668 C20.69897461 30.73665039 19.57104492 31.35733398 18.40893555 31.99682617 C16.16901474 33.23710232 13.92941936 34.4779664 11.69018555 35.71948242 C10.70083008 36.26483643 9.71147461 36.81019043 8.69213867 37.37207031 C5.89593805 38.88451539 5.89593805 38.88451539 3.36010742 40.69775391 C0.90893555 41.93432617 0.90893555 41.93432617 -1.54882812 41.80834961 C-4.50129775 40.79328755 -7.04882362 39.48917816 -9.7668457 37.94995117 C-11.38042969 37.04116211 -11.38042969 37.04116211 -13.02661133 36.11401367 C-14.69820312 35.15881836 -14.69820312 35.15881836 -16.40356445 34.18432617 C-17.50635742 33.56299805 -18.60915039 32.94166992 -19.74536133 32.30151367 C-22.87225953 30.53178263 -25.98564868 28.74145304 -29.09106445 26.93432617 C-29.94104004 26.4399707 -30.79101562 25.94561523 -31.66674805 25.4362793 C-33.5123342 24.32917146 -35.30907239 23.141132 -37.09106445 21.93432617 C-37.09106445 21.27432617 -37.09106445 20.61432617 -37.09106445 19.93432617 C-28.37524414 14.95385742 -28.37524414 14.95385742 -19.65942383 9.97338867 C-19.0302858 9.61388123 -18.40114777 9.25437378 -17.75294495 8.88397217 C-14.86565145 7.23409017 -11.97835795 5.58420817 -9.09106445 3.93432617 C-8.48376495 3.54917847 -7.87646545 3.16403076 -7.25076294 2.76721191 C-2.65582557 -0.08341122 -2.65582557 -0.08341122 0 0 Z " fill="#77AB41" transform="translate(204.091064453125,51.065673828125)"/>
<path d="M0 0 C2.62792969 1.31933594 2.62792969 1.31933594 5.421875 2.984375 C6.44796875 3.59023438 7.4740625 4.19609375 8.53125 4.8203125 C9.5934375 5.45710938 10.655625 6.09390625 11.75 6.75 C13.84845736 7.99563602 15.94740828 9.24044097 18.046875 10.484375 C19.05041016 11.08056641 20.05394531 11.67675781 21.08789062 12.29101562 C25.01993682 14.59855447 28.9976465 16.81712911 33 19 C33 19.66 33 20.32 33 21 C23.66666667 26.33333333 14.33333333 31.66666667 5 37 C4.40430206 37.38514771 3.80860413 37.77029541 3.19485474 38.16711426 C0.54907142 39.83334008 -1.36046526 41.0080065 -4.53515625 40.96826172 C-7.6837699 39.73139546 -10.50888675 38.20446142 -13.4375 36.5078125 C-14.04005615 36.16120575 -14.6426123 35.814599 -15.26342773 35.45748901 C-17.17948585 34.35319953 -19.08972034 33.23924944 -21 32.125 C-22.28348762 31.38347977 -23.56733853 30.64258798 -24.8515625 29.90234375 C-28.24062066 27.94549296 -31.62410787 25.97951019 -35 24 C-35.95777344 23.46874512 -36.91554687 22.93749023 -37.90234375 22.39013672 C-38.59457031 21.9313916 -39.28679687 21.47264648 -40 21 C-40 20.34 -40 19.68 -40 19 C-38.94256592 18.410979 -38.94256592 18.410979 -37.86376953 17.81005859 C-34.6165818 16.00003733 -31.37078565 14.18753423 -28.125 12.375 C-27.01640625 11.75753906 -25.9078125 11.14007813 -24.765625 10.50390625 C-23.66992188 9.89160156 -22.57421875 9.27929688 -21.4453125 8.6484375 C-19.81384277 7.73916504 -19.81384277 7.73916504 -18.14941406 6.81152344 C-14.41315408 4.66244987 -10.7985555 2.34887468 -7.21435547 -0.04443359 C-4.30650393 -1.29926611 -2.98867967 -0.98291564 0 0 Z " fill="#77AB41" transform="translate(167,29)"/>
<path d="M0 0 C3.17907159 0.98033427 5.74254007 2.38125631 8.61279297 4.06567383 C9.73814453 4.72116211 10.86349609 5.37665039 12.02294922 6.05200195 C13.20145223 6.74776635 14.37983682 7.44373137 15.55810547 8.13989258 C16.72829249 8.82479711 17.89886229 9.50904809 19.06982422 10.19262695 C21.2975683 11.49490249 23.52387895 12.79963422 25.74853516 14.10717773 C29.04576515 16.03997994 32.35850944 17.94216247 35.68310547 19.82739258 C34.54313375 23.24730773 34.19314952 23.3935912 31.17529297 24.99145508 C30.4427832 25.38743896 29.71027344 25.78342285 28.95556641 26.19140625 C28.1644043 26.60753174 27.37324219 27.02365723 26.55810547 27.45239258 C21.75029459 30.02869155 16.96929398 32.59333812 12.36279297 35.51879883 C11.36530029 36.14890869 11.36530029 36.14890869 10.34765625 36.79174805 C9.10039529 37.58858271 7.86122198 38.3982669 6.63183594 39.22241211 C3.86873578 40.97187712 2.161009 41.86166718 -1.14233398 41.62475586 C-4.65538746 40.74237236 -7.22689281 39.42799071 -10.34423828 37.58911133 C-12.02743164 36.60587891 -12.02743164 36.60587891 -13.74462891 35.6027832 C-14.91470349 34.90707643 -16.08462432 34.21111101 -17.25439453 33.51489258 C-18.41990358 32.82978526 -19.58591557 32.1455328 -20.75244141 31.4621582 C-22.96979711 30.16074978 -25.1852324 28.85606201 -27.3984375 27.54760742 C-30.68729332 25.60906985 -33.99489715 23.70840711 -37.31689453 21.82739258 C-34.19943693 18.39442981 -30.93975437 16.2732319 -26.90673828 14.00708008 C-25.99366661 13.48997971 -25.99366661 13.48997971 -25.06214905 12.96243286 C-23.12964645 11.86956078 -21.19226608 10.78571074 -19.25439453 9.70239258 C-17.31405838 8.61006589 -15.37476666 7.51591176 -13.43592834 6.42092896 C-11.6804829 5.43072839 -9.92245901 4.44510307 -8.16430664 3.4597168 C-1.88432686 -0.14038136 -1.88432686 -0.14038136 0 0 Z " fill="#77AB41" transform="translate(84.31689453125,28.172607421875)"/>
<path d="M0 0 C2.86190832 0.8702346 5.17960195 2.03463134 7.77416992 3.52294922 C8.75063477 4.07917969 9.72709961 4.63541016 10.7331543 5.20849609 C11.74313477 5.79308594 12.75311523 6.37767578 13.79370117 6.97998047 C15.27966797 7.82786133 15.27966797 7.82786133 16.7956543 8.69287109 C23.1155552 12.31075535 29.3769282 16.02093415 35.60620117 19.79248047 C34.30104614 23.70794557 32.89891024 24.02663282 29.32104492 25.97216797 C28.23243164 26.57158203 27.14381836 27.17099609 26.0222168 27.78857422 C24.87430664 28.40861328 23.72639648 29.02865234 22.54370117 29.66748047 C20.30181071 30.89220499 18.06090342 32.11873119 15.82104492 33.34716797 C14.74838379 33.92950195 13.67572266 34.51183594 12.57055664 35.11181641 C9.39944722 36.9097012 6.41687552 38.87993473 3.48730469 41.046875 C0.58652753 42.19664443 -1.41328808 41.56619749 -4.39379883 40.79248047 C-7.15112305 39.47314453 -7.15112305 39.47314453 -9.94848633 37.80810547 C-11.48956055 36.89931641 -11.48956055 36.89931641 -13.06176758 35.97216797 C-14.64924805 35.01697266 -14.64924805 35.01697266 -16.26879883 34.04248047 C-17.31938477 33.42115234 -18.3699707 32.79982422 -19.45239258 32.15966797 C-22.44234855 30.38590185 -25.41885937 28.59128107 -28.39379883 26.79248047 C-29.23201172 26.298125 -30.07022461 25.80376953 -30.93383789 25.29443359 C-32.78810028 24.18236605 -34.59743204 22.99582979 -36.39379883 21.79248047 C-36.39379883 21.13248047 -36.39379883 20.47248047 -36.39379883 19.79248047 C-35.27521484 19.15016479 -35.27521484 19.15016479 -34.1340332 18.49487305 C-31.33028009 16.88393327 -28.52731533 15.27163223 -25.72485352 13.65844727 C-24.51878068 12.96455336 -23.31240778 12.27118072 -22.10571289 11.57836914 C-20.35717164 10.5743353 -18.60985191 9.56819834 -16.86254883 8.56201172 C-15.74364258 7.9195752 -14.62473633 7.27713867 -13.47192383 6.61523438 C-10.86434164 5.07111884 -8.36763353 3.44334393 -5.86254883 1.74169922 C-2.39379883 -0.20751953 -2.39379883 -0.20751953 0 0 Z " fill="#77AB41" transform="translate(44.393798828125,51.20751953125)"/>
<path d="M0 0 C0 14.19 0 28.38 0 43 C-11.875 49.625 -11.875 49.625 -15.55419922 51.67431641 C-21.47282872 54.98277732 -27.32415021 58.35922743 -33.07861328 61.94677734 C-35 63 -35 63 -37 63 C-37 48.81 -37 34.62 -37 20 C-27.66666667 14.66666667 -18.33333333 9.33333333 -9 4 C-8.36949738 3.62645386 -7.73899475 3.25290771 -7.08938599 2.86804199 C-2.21146188 0 -2.21146188 0 0 0 Z " fill="#C5DC6F" transform="translate(242,75)"/>
<path d="M0 0 C0 14.19 0 28.38 0 43 C-9.33333333 48.33333333 -18.66666667 53.66666667 -28 59 C-28.63050262 59.37354614 -29.26100525 59.74709229 -29.91061401 60.13195801 C-34.78853812 63 -34.78853812 63 -37 63 C-37 48.81 -37 34.62 -37 20 C-25.125 13.375 -25.125 13.375 -21.44580078 11.32568359 C-15.52717128 8.01722268 -9.67584979 4.64077257 -3.92138672 1.05322266 C-2 0 -2 0 0 0 Z " fill="#C5DC6F" transform="translate(162,213)"/>
<path d="M0 0 C4.500627 1.500209 7.62641012 2.76942765 11.58984375 5.1171875 C13.13768555 6.02791016 13.13768555 6.02791016 14.71679688 6.95703125 C15.77962891 7.58996094 16.84246094 8.22289062 17.9375 8.875 C20.05067162 10.12258154 22.16395014 11.36998204 24.27734375 12.6171875 C25.20796631 13.17003418 26.13858887 13.72288086 27.09741211 14.29248047 C30.3812257 16.2242655 33.69209332 18.10976761 37 20 C37 34.19 37 48.38 37 63 C33.16278549 61.4651142 29.8605503 59.8963043 26.2890625 57.8828125 C24.66871094 56.97208984 24.66871094 56.97208984 23.015625 56.04296875 C21.89671875 55.41003906 20.7778125 54.77710938 19.625 54.125 C18.51382813 53.49980469 17.40265625 52.87460937 16.2578125 52.23046875 C10.82740526 49.17263229 5.41109688 46.09205536 0 43 C0 28.81 0 14.62 0 0 Z " fill="#1B365D" transform="translate(85,213)"/>
<path d="M0 0 C0 14.19 0 28.38 0 43 C-11.875 49.625 -11.875 49.625 -15.55419922 51.67431641 C-21.47282872 54.98277732 -27.32415021 58.35922743 -33.07861328 61.94677734 C-35 63 -35 63 -37 63 C-37 48.81 -37 34.62 -37 20 C-25.125 13.375 -25.125 13.375 -21.44580078 11.32568359 C-15.52717128 8.01722268 -9.67584979 4.64077257 -3.92138672 1.05322266 C-2 0 -2 0 0 0 Z " fill="#C5DC6F" transform="translate(202,190)"/>
<path d="M0 0 C3.80834121 37.2485065 3.80834121 37.2485065 -2.19433594 46.31396484 C-7.70443922 51.134584 -14.03342234 53.65490648 -20.93652344 55.88525391 C-24.9815012 57.3571513 -28.38387191 59.48902107 -31.96337891 61.85229492 C-34 63 -34 63 -37 63 C-37.32281905 57.16557097 -37.5578377 51.33638488 -37.71411133 45.49511719 C-37.77926353 43.51177429 -37.86782452 41.52905072 -37.98071289 39.54785156 C-38.89146373 23.14609433 -38.89146373 23.14609433 -34.45922852 18.1171875 C-31.06126373 16.02068395 -27.69457435 14.50457552 -24 13 C-21.97495865 11.82743136 -19.96950332 10.62017822 -17.98828125 9.375 C-16.09706136 8.24881156 -14.20514188 7.12379705 -12.3125 6 C-11.33861328 5.41605469 -10.36472656 4.83210938 -9.36132812 4.23046875 C-8.43384766 3.68003906 -7.50636719 3.12960938 -6.55078125 2.5625 C-5.72231689 2.06878906 -4.89385254 1.57507813 -4.0402832 1.06640625 C-2 0 -2 0 0 0 Z " fill="#C5DC6F" transform="translate(82,75)"/>
<path d="M0 0 C5.74660776 2.17529876 10.91838751 5.2217525 16.25 8.25 C17.24902344 8.81074219 18.24804688 9.37148437 19.27734375 9.94921875 C21.26201202 11.07256693 23.23134685 12.22346759 25.18383789 13.40185547 C27.91451871 15.05110471 27.91451871 15.05110471 30.72045898 16.00830078 C33.78745666 17.34167296 35.12461983 18.19619713 37 21 C38.51350109 27.96576721 37.83887055 35.30756195 37.5625 42.375 C37.51733494 44.37100417 37.47627387 46.36710571 37.43945312 48.36328125 C37.34047297 53.24459409 37.18530574 58.12123247 37 63 C32.60059298 61.67406704 28.86709837 59.94300292 24.90234375 57.62890625 C23.20561523 56.64374023 23.20561523 56.64374023 21.47460938 55.63867188 C20.29551555 54.94671233 19.11647957 54.25465419 17.9375 53.5625 C16.75484832 52.87384891 15.57190788 52.18569349 14.38867188 51.49804688 C11.25468993 49.6727214 8.12417088 47.84206301 5 46 C4.0620459 45.63277832 3.1240918 45.26555664 2.15771484 44.88720703 C0 43 0 43 -0.42362976 41.07633972 C-0.58242966 38.46912363 -0.56112051 35.91186627 -0.48828125 33.30078125 C-0.48120651 32.35059616 -0.47413177 31.40041107 -0.46684265 30.4214325 C-0.4388367 27.38432324 -0.37608644 24.34905265 -0.3125 21.3125 C-0.28742516 19.2545839 -0.26461058 17.19663893 -0.24414062 15.13867188 C-0.18898955 10.09173866 -0.10267382 5.04618112 0 0 Z " fill="#1B365D" transform="translate(165,75)"/>
<path d="M0 0 C3.83721451 1.5348858 7.1394497 3.1036957 10.7109375 5.1171875 C12.33128906 6.02791016 12.33128906 6.02791016 13.984375 6.95703125 C15.10328125 7.58996094 16.2221875 8.22289062 17.375 8.875 C18.48617187 9.50019531 19.59734375 10.12539063 20.7421875 10.76953125 C26.17259474 13.82736771 31.58890312 16.90794464 37 20 C37 34.19 37 48.38 37 63 C32.499373 61.499791 29.37358988 60.23057235 25.41015625 57.8828125 C23.86231445 56.97208984 23.86231445 56.97208984 22.28320312 56.04296875 C21.22037109 55.41003906 20.15753906 54.77710938 19.0625 54.125 C16.94932838 52.87741846 14.83604986 51.63001796 12.72265625 50.3828125 C11.79203369 49.82996582 10.86141113 49.27711914 9.90258789 48.70751953 C6.6187743 46.7757345 3.30790668 44.89023239 0 43 C0 28.81 0 14.62 0 0 Z " fill="#1B365D" transform="translate(125,52)"/>
<path d="M0 0 C4.2140066 1.28007679 7.80387718 2.87455115 11.58984375 5.1171875 C13.13768555 6.02791016 13.13768555 6.02791016 14.71679688 6.95703125 C15.77962891 7.58996094 16.84246094 8.22289062 17.9375 8.875 C20.05067162 10.12258154 22.16395014 11.36998204 24.27734375 12.6171875 C25.20796631 13.17003418 26.13858887 13.72288086 27.09741211 14.29248047 C30.3812257 16.2242655 33.69209332 18.10976761 37 20 C37 34.19 37 48.38 37 63 C31.26322253 60.70528901 26.11312983 57.79614871 20.75 54.75 C19.75097656 54.18925781 18.75195312 53.62851563 17.72265625 53.05078125 C15.73798798 51.92743307 13.76865315 50.77653241 11.81616211 49.59814453 C9.08548129 47.94889529 9.08548129 47.94889529 6.27954102 46.99169922 C3.21254334 45.65832704 1.87538017 44.80380287 0 42 C-1.51350109 35.03423279 -0.83887055 27.69243805 -0.5625 20.625 C-0.51733494 18.62899583 -0.47627387 16.63289429 -0.43945312 14.63671875 C-0.34047297 9.75540591 -0.18530574 4.87876753 0 0 Z " fill="#1B365D" transform="translate(45,190)"/>
<path d="M0 0 C0 14.19 0 28.38 0 43 C-11.875 49.625 -11.875 49.625 -15.55419922 51.67431641 C-21.47282872 54.98277732 -27.32415021 58.35922743 -33.07861328 61.94677734 C-35 63 -35 63 -37 63 C-37 48.81 -37 34.62 -37 20 C-25.125 13.375 -25.125 13.375 -21.44580078 11.32568359 C-15.52717128 8.01722268 -9.67584979 4.64077257 -3.92138672 1.05322266 C-2 0 -2 0 0 0 Z " fill="#C5DC6F" transform="translate(242,121)"/>
<path d="M0 0 C0 14.19 0 28.38 0 43 C-4.104375 45.371875 -8.20875 47.74375 -12.4375 50.1875 C-14.35067017 51.29387817 -14.35067017 51.29387817 -16.30249023 52.42260742 C-19.531875 54.28721516 -22.76496237 56.14521854 -26 58 C-27.37889404 58.79398193 -27.37889404 58.79398193 -28.78564453 59.60400391 C-29.5898584 60.06081543 -30.39407227 60.51762695 -31.22265625 60.98828125 C-31.91238525 61.38184814 -32.60211426 61.77541504 -33.31274414 62.1809082 C-35 63 -35 63 -37 63 C-37.22300529 57.12867095 -37.3860246 51.25981949 -37.49438477 45.38525391 C-37.53956174 43.38872331 -37.60092086 41.39248914 -37.67895508 39.39697266 C-38.30801401 22.89342665 -38.30801401 22.89342665 -35.27514648 18.50317383 C-32.90134491 16.89231534 -30.69987953 15.9539626 -28 15 C-26.47464961 14.15836034 -24.96241131 13.29247999 -23.46484375 12.40234375 C-21.9579186 11.57672039 -20.44879966 10.75508834 -18.9375 9.9375 C-13.71139696 7.09790925 -8.60451344 4.18704447 -3.63110352 0.92016602 C-2 0 -2 0 0 0 Z " fill="#C5DC6F" transform="translate(122,52)"/>
<path d="M0 0 C0 14.19 0 28.38 0 43 C-13 50.1875 -13 50.1875 -17.05078125 52.42260742 C-22.0192382 55.1764565 -26.96464258 57.92171518 -31.75 60.98828125 C-35 63 -35 63 -37 63 C-37 48.81 -37 34.62 -37 20 C-26.25 13.9375 -26.25 13.9375 -22.77758789 11.97949219 C-16.4756407 8.41885178 -10.21070036 4.81170693 -4.01171875 1.07421875 C-2 0 -2 0 0 0 Z " fill="#C5DC6F" transform="translate(242,167)"/>
<path d="M0 0 C4.06459532 1.50451116 7.71181136 3.44098252 11.47265625 5.58984375 C12.07758408 5.93503555 12.6825119 6.28022736 13.30577087 6.63587952 C14.57819924 7.36302397 15.84971528 8.09176699 17.12036133 8.82202148 C19.05753676 9.93464933 20.99824657 11.04090792 22.93945312 12.14648438 C24.17990372 12.85639316 25.42014525 13.56666739 26.66015625 14.27734375 C27.78043213 14.91921631 28.90070801 15.56108887 30.05493164 16.22241211 C31.0268042 16.80901611 31.99867676 17.39562012 33 18 C33.78270264 18.37624512 34.56540527 18.75249023 35.37182617 19.14013672 C38.20630356 22.37796079 37.48515202 26.3449578 37.390625 30.48046875 C37.38496521 31.40845779 37.37930542 32.33644684 37.37347412 33.29255676 C37.35107376 36.25806146 37.30087073 39.2223602 37.25 42.1875 C37.22993973 44.19724818 37.21168813 46.20701529 37.1953125 48.21679688 C37.15119696 53.14499629 37.08214424 58.07229365 37 63 C32.60059298 61.67406704 28.86709837 59.94300292 24.90234375 57.62890625 C23.20561523 56.64374023 23.20561523 56.64374023 21.47460938 55.63867188 C20.29551555 54.94671233 19.11647957 54.25465419 17.9375 53.5625 C16.75484832 52.87384891 15.57190788 52.18569349 14.38867188 51.49804688 C11.25468993 49.6727214 8.12417088 47.84206301 5 46 C4.0620459 45.63277832 3.1240918 45.26555664 2.15771484 44.88720703 C0 43 0 43 -0.42362976 41.07633972 C-0.58242966 38.46912363 -0.56112051 35.91186627 -0.48828125 33.30078125 C-0.48120651 32.35059616 -0.47413177 31.40041107 -0.46684265 30.4214325 C-0.4388367 27.38432324 -0.37608644 24.34905265 -0.3125 21.3125 C-0.28742516 19.2545839 -0.26461058 17.19663893 -0.24414062 15.13867188 C-0.18898955 10.09173866 -0.10267382 5.04618112 0 0 Z " fill="#1B365D" transform="translate(165,121)"/>
<path d="M0 0 C0.66 0 1.32 0 2 0 C2 14.19 2 28.38 2 43 C-7.33333333 48.33333333 -16.66666667 53.66666667 -26 59 C-26.63050262 59.37354614 -27.26100525 59.74709229 -27.91061401 60.13195801 C-32.78853812 63 -32.78853812 63 -35 63 C-35.22300529 57.12867095 -35.3860246 51.25981949 -35.49438477 45.38525391 C-35.53956174 43.38872331 -35.60092086 41.39248914 -35.67895508 39.39697266 C-36.30441174 22.98793313 -36.30441174 22.98793313 -33.41357422 18.58227539 C-31.01596068 16.94230773 -28.72083617 16.0142355 -26 15 C-23.8816391 13.82071673 -21.77814997 12.61445841 -19.6875 11.38671875 C-17.4604165 10.14988734 -15.23121364 8.9168651 -13 7.6875 C-10.74920692 6.44283934 -8.49916316 5.19682234 -6.25 3.94921875 C-5.26515625 3.40612061 -4.2803125 2.86302246 -3.265625 2.3034668 C-1.10373903 1.19050185 -1.10373903 1.19050185 0 0 Z " fill="#C5DC6F" transform="translate(160,121)"/>
<path d="M0 0 C3.21954958 1.28781983 5.96684238 2.44101986 8.93359375 4.1015625 C9.66642578 4.51019531 10.39925781 4.91882813 11.15429688 5.33984375 C11.90775391 5.76394531 12.66121094 6.18804687 13.4375 6.625 C14.51547852 7.22634766 14.51547852 7.22634766 15.61523438 7.83984375 C22.77250814 11.84295964 29.87941047 15.9310917 37 20 C37 34.19 37 48.38 37 63 C33.16278549 61.4651142 29.8605503 59.8963043 26.2890625 57.8828125 C24.66871094 56.97208984 24.66871094 56.97208984 23.015625 56.04296875 C21.89671875 55.41003906 20.7778125 54.77710938 19.625 54.125 C18.51382813 53.49980469 17.40265625 52.87460938 16.2578125 52.23046875 C10.82740526 49.17263229 5.41109688 46.09205536 0 43 C0 28.81 0 14.62 0 0 Z " fill="#1B365D" transform="translate(85,121)"/>
<path d="M0 0 C0 14.19 0 28.38 0 43 C-12.5 50.1875 -12.5 50.1875 -16.39257812 52.42260742 C-21.20624023 55.19525582 -25.99588167 57.96352296 -30.65625 60.98828125 C-34 63 -34 63 -37 63 C-37.32281905 57.16557097 -37.5578377 51.33638488 -37.71411133 45.49511719 C-37.77926353 43.51177429 -37.86782452 41.52905072 -37.98071289 39.54785156 C-38.89058476 23.16192377 -38.89058476 23.16192377 -34.47900391 18.1171875 C-31.07482799 16.00695489 -27.71148628 14.49665142 -24 13 C-21.8940278 11.82230869 -19.80445313 10.61469846 -17.734375 9.375 C-15.74103581 8.24742842 -13.74625434 7.12240251 -11.75 6 C-10.72003906 5.41605469 -9.69007812 4.83210938 -8.62890625 4.23046875 C-1.12898858 0 -1.12898858 0 0 0 Z " fill="#C5DC6F" transform="translate(82,121)"/>
<path d="M0 0 C1.30928467 0.68400879 1.30928467 0.68400879 2.64501953 1.38183594 C3.84832808 2.00120935 5.0526717 2.61857428 6.2578125 3.234375 C7.20927658 3.72064362 7.20927658 3.72064362 8.17996216 4.21673584 C12.11248864 6.18241555 15.96681913 7.71828934 20.1796875 9.015625 C26.79474248 11.40798192 32.25272885 13.79902327 36 20 C39.5242852 33.58079034 37.28713574 49.20784551 36 63 C31.91776644 61.49165898 28.26446377 59.539518 24.4921875 57.375 C23.884888 57.02743652 23.2775885 56.67987305 22.65188599 56.32177734 C21.37529043 55.59038229 20.09957759 54.85744459 18.82470703 54.12304688 C16.87593565 53.00053894 14.92455753 51.8826799 12.97265625 50.765625 C3.49348373 45.32898915 3.49348373 45.32898915 0 43 C-0.36076355 41.12704468 -0.36076355 41.12704468 -0.34057617 38.82568359 C-0.34034958 37.96494232 -0.34012299 37.10420105 -0.33988953 36.21737671 C-0.31666374 34.8220018 -0.31666374 34.8220018 -0.29296875 33.3984375 C-0.28872391 32.44683746 -0.28447906 31.49523743 -0.28010559 30.51480103 C-0.26327896 27.46791586 -0.22561954 24.42168609 -0.1875 21.375 C-0.17245831 19.31250954 -0.15876901 17.25000873 -0.14648438 15.1875 C-0.11336239 10.1247465 -0.06155284 5.06248446 0 0 Z " fill="#1B365D" transform="translate(6,75)"/>
<path d="M0 0 C1.30928467 0.68400879 1.30928467 0.68400879 2.64501953 1.38183594 C3.84832808 2.00120935 5.0526717 2.61857428 6.2578125 3.234375 C7.20927658 3.72064362 7.20927658 3.72064362 8.17996216 4.21673584 C12.11248864 6.18241555 15.96681913 7.71828934 20.1796875 9.015625 C26.79474248 11.40798192 32.25272885 13.79902327 36 20 C39.5242852 33.58079034 37.28713574 49.20784551 36 63 C31.91776644 61.49165898 28.26446377 59.539518 24.4921875 57.375 C23.884888 57.02743652 23.2775885 56.67987305 22.65188599 56.32177734 C21.37529043 55.59038229 20.09957759 54.85744459 18.82470703 54.12304688 C16.87593565 53.00053894 14.92455753 51.8826799 12.97265625 50.765625 C3.49348373 45.32898915 3.49348373 45.32898915 0 43 C-0.36076355 41.12704468 -0.36076355 41.12704468 -0.34057617 38.82568359 C-0.34034958 37.96494232 -0.34012299 37.10420105 -0.33988953 36.21737671 C-0.31666374 34.8220018 -0.31666374 34.8220018 -0.29296875 33.3984375 C-0.28872391 32.44683746 -0.28447906 31.49523743 -0.28010559 30.51480103 C-0.26327896 27.46791586 -0.22561954 24.42168609 -0.1875 21.375 C-0.17245831 19.31250954 -0.15876901 17.25000873 -0.14648438 15.1875 C-0.11336239 10.1247465 -0.06155284 5.06248446 0 0 Z " fill="#1B365D" transform="translate(6,167)"/>
<path d="M0 0 C0.71833008 0.37874268 1.43666016 0.75748535 2.17675781 1.14770508 C7.51886172 3.90020731 12.69557603 6.29737809 18.421875 8.13671875 C25.55443657 10.807584 31.72313001 13.44464394 36 20 C39.82085371 33.46401209 37.40205313 49.28684186 36 63 C31.91776644 61.49165898 28.26446377 59.539518 24.4921875 57.375 C23.884888 57.02743652 23.2775885 56.67987305 22.65188599 56.32177734 C21.37529043 55.59038229 20.09957759 54.85744459 18.82470703 54.12304688 C16.87593565 53.00053894 14.92455753 51.8826799 12.97265625 50.765625 C3.49348373 45.32898915 3.49348373 45.32898915 0 43 C-0.36076355 41.12704468 -0.36076355 41.12704468 -0.34057617 38.82568359 C-0.34034958 37.96494232 -0.34012299 37.10420105 -0.33988953 36.21737671 C-0.31666374 34.8220018 -0.31666374 34.8220018 -0.29296875 33.3984375 C-0.28872391 32.44683746 -0.28447906 31.49523743 -0.28010559 30.51480103 C-0.26327896 27.46791586 -0.22561954 24.42168609 -0.1875 21.375 C-0.17245831 19.31250954 -0.15876901 17.25000873 -0.14648438 15.1875 C-0.11336239 10.1247465 -0.06155284 5.06248446 0 0 Z " fill="#1B365D" transform="translate(6,121)"/>
<path d="M0 0 C1.32 0 2.64 0 4 0 C4.33 0.66 4.66 1.32 5 2 C5.55816406 1.67644531 6.11632812 1.35289062 6.69140625 1.01953125 C10.66716057 -0.73625873 14.73528488 -0.46160891 19 0 C22.125 1.375 22.125 1.375 24 3 C24 3.66 24 4.32 24 5 C24.763125 4.360625 25.52625 3.72125 26.3125 3.0625 C30.93105497 -0.48197242 35.38133838 -0.55395255 41 0 C44.72210861 1.61830809 46.89930441 3.53385228 49 7 C50.04648508 10.24977612 50.11574726 13.23951466 50.09765625 16.640625 C50.09443359 17.71054687 50.09121094 18.78046875 50.08789062 19.8828125 C50.07532227 21.54957031 50.07532227 21.54957031 50.0625 23.25 C50.05798828 24.37664062 50.05347656 25.50328125 50.04882812 26.6640625 C50.03705397 29.44276217 50.0206084 32.22135409 50 35 C48.35 35 46.7 35 45 35 C44.99589111 34.26885986 44.99178223 33.53771973 44.98754883 32.78442383 C44.95457791 29.45963693 44.88392853 26.13667384 44.8125 22.8125 C44.80669922 21.66201172 44.80089844 20.51152344 44.79492188 19.32617188 C44.85306983 12.47109141 44.85306983 12.47109141 41.63671875 6.73828125 C39.08888464 4.82623842 39.08888464 4.82623842 36 4.375 C32.92228946 5.0161897 31.23315185 5.82503127 29.06103516 8.10546875 C26.61642067 12.47044997 27.21206051 17.94133147 27.1875 22.8125 C27.16236328 23.98232422 27.13722656 25.15214844 27.11132812 26.35742188 C27.05252818 29.2386193 27.01619468 32.11829983 27 35 C25.35 35 23.7 35 22 35 C21.98541748 34.22809326 21.97083496 33.45618652 21.95581055 32.66088867 C21.88141967 29.16924907 21.7847291 25.6785751 21.6875 22.1875 C21.66494141 20.97255859 21.64238281 19.75761719 21.61914062 18.50585938 C21.5659668 16.76079102 21.5659668 16.76079102 21.51171875 14.98046875 C21.48553467 13.90692139 21.45935059 12.83337402 21.43237305 11.72729492 C21.21083664 9.00282792 21.21083664 9.00282792 19.68286133 7.17700195 C16.92444096 5.24774842 14.30270627 5.17382665 11 5 C8.64678152 5.46746366 8.64678152 5.46746366 7 7 C5.27724971 10.57601197 4.71827828 13.57136455 4.5859375 17.51953125 C4.54726563 18.54111328 4.50859375 19.56269531 4.46875 20.61523438 C4.4378125 21.67033203 4.406875 22.72542969 4.375 23.8125 C4.33632813 24.88693359 4.29765625 25.96136719 4.2578125 27.06835938 C4.16381387 29.71207088 4.07815427 32.3557805 4 35 C2.68 35 1.36 35 0 35 C0 23.45 0 11.9 0 0 Z " fill="#1B365D" transform="translate(667,273)"/>
<path d="M0 0 C2.30859375 1.0234375 2.30859375 1.0234375 4 2 C4.33 1.34 4.66 0.68 5 0 C6.32 0 7.64 0 9 0 C9.0991017 6.01394883 9.17157916 12.02741915 9.21972656 18.04199219 C9.2398042 20.0866728 9.26707225 22.13129627 9.30175781 24.17578125 C9.35044519 27.11993537 9.37300744 30.06332834 9.390625 33.0078125 C9.41127014 33.9174173 9.43191528 34.82702209 9.45318604 35.76419067 C9.45515327 41.36679717 8.75089972 44.55722899 5 49 C1.04000118 52.59999893 -3.20576845 52.48876951 -8.328125 52.37109375 C-12.16995196 51.83750667 -14.09621539 50.51138129 -17 48 C-16.34 46.68 -15.68 45.36 -15 44 C-13 45 -11 46 -9 47 C-5.14769529 47.36342497 -2.6885647 47.33663163 0.8125 45.625 C3.98658103 41.81610276 4.38263714 37.82833047 5 33 C4.175 33.495 3.35 33.99 2.5 34.5 C-1.89396025 36.38312582 -4.24868421 36.45250627 -9 36 C-12.6980849 34.35640671 -14.90434646 32.45782834 -17 29 C-18.25992668 25.26396742 -18.20311055 21.5402688 -18.25 17.625 C-18.27578125 16.33851563 -18.3015625 15.05203125 -18.328125 13.7265625 C-17.88246328 8.66511864 -16.24169338 5.42982874 -12.9375 1.625 C-8.71756242 -0.70943356 -4.72993083 -0.66142122 0 0 Z M-12 8 C-14.29684315 14.05531377 -14.48738123 19.68134396 -13 26 C-11.01714007 29.59852358 -9.94025912 30.67991179 -6.0625 32 C-2.27658516 32 -0.86349107 31.47653282 2 29 C5.22601358 23.32666577 5.98775817 18.05839768 4.4609375 11.78515625 C3.44332562 8.69318168 2.69782587 6.55826069 0.125 4.5 C-5.30475611 3.22241033 -8.1020891 3.78604227 -12 8 Z " fill="#1B365D" transform="translate(927,273)"/>
<path d="M0 0 C1.65 0 3.3 0 5 0 C7.56799194 6.94006931 10.13097494 13.88197303 12.69042969 20.82519531 C13.56231393 23.18858028 14.43535792 25.55153773 15.30957031 27.9140625 C16.56357731 31.30357801 17.81344992 34.69459274 19.0625 38.0859375 C19.45622803 39.14743011 19.84995605 40.20892273 20.25561523 41.30258179 C20.79617554 42.77388046 20.79617554 42.77388046 21.34765625 44.27490234 C21.66742432 45.14094086 21.98719238 46.00697937 22.31665039 46.89926147 C23 49 23 49 23 51 C21.35 51 19.7 51 18 51 C17.32645501 49.56570999 16.66140299 48.12742943 16 46.6875 C15.62875 45.88699219 15.2575 45.08648437 14.875 44.26171875 C14 42 14 42 14 39 C6.41 39 -1.18 39 -9 39 C-9.99 42.3 -10.98 45.6 -12 49 C-12.33 49.66 -12.66 50.32 -13 51 C-14.98 51 -16.96 51 -19 51 C-16.05187864 42.95493642 -13.10273466 34.91024913 -10.1517334 26.86624146 C-8.68219573 22.86040892 -7.21385557 18.8541399 -5.74609375 14.84765625 C-5.12248764 13.14840381 -4.49879769 11.44918212 -3.875 9.75 C-3.59261475 8.97809326 -3.31022949 8.20618652 -3.01928711 7.41088867 C-1.11432553 2.22865106 -1.11432553 2.22865106 0 0 Z M2 8 C1.60167969 9.0621875 1.20335937 10.124375 0.79296875 11.21875 C-0.26953125 14.05208333 -1.33203125 16.88541667 -2.39453125 19.71875 C-2.6570166 20.42257812 -2.91950195 21.12640625 -3.18994141 21.8515625 C-3.73930241 23.30857783 -4.29924007 24.76164082 -4.86865234 26.2109375 C-6.53135324 30.4778396 -6.53135324 30.4778396 -7 35 C-0.73 35 5.54 35 12 35 C9.03 26.09 6.06 17.18 3 8 C2.67 8 2.34 8 2 8 Z " fill="#1B365D" transform="translate(317,257)"/>
<path d="M0 0 C2.1796875 1.10546875 2.1796875 1.10546875 5.3671875 3.10546875 C5.0371875 4.42546875 4.7071875 5.74546875 4.3671875 7.10546875 C1.3671875 7.10546875 1.3671875 7.10546875 -1.2578125 5.60546875 C-6.51832299 3.26746409 -11.16745745 3.3350453 -16.6328125 5.04296875 C-19.32191699 7.81610775 -19.51729116 10.10172747 -19.98046875 13.8515625 C-19.78082265 16.22267776 -19.78082265 16.22267776 -18.15625 18.265625 C-14.69358267 20.79026325 -11.35753495 21.33771465 -7.1953125 22.10546875 C-1.65927066 23.13189368 2.20631818 24.00812415 6.3671875 28.10546875 C8.73165207 32.15883658 9.07118114 36.51145897 8.3671875 41.10546875 C6.17269863 45.86019463 3.39422377 48.32795633 -1.29296875 50.4140625 C-8.76708266 52.62260701 -15.73643873 51.37217211 -22.6328125 48.10546875 C-25.1328125 46.41796875 -25.1328125 46.41796875 -26.6328125 45.10546875 C-25.9728125 43.78546875 -25.3128125 42.46546875 -24.6328125 41.10546875 C-22.10396225 41.57377435 -20.50231395 42.19011646 -18.3203125 43.60546875 C-14.29191068 45.85387907 -10.8201176 46.57238117 -6.25390625 45.59765625 C-1.09946403 44.09987622 -1.09946403 44.09987622 2.3671875 40.10546875 C2.92674807 35.2196611 2.92674807 35.2196611 0.8046875 30.9765625 C-2.40029737 28.51632572 -5.03114102 28.20871632 -9.0078125 27.60546875 C-15.52362921 26.61307983 -20.19115335 25.03545973 -24.5078125 19.85546875 C-26.56366057 14.83006236 -26.24701295 10.73309994 -24.3828125 5.79296875 C-19.16961443 -2.21301399 -8.58416957 -2.91657987 0 0 Z " fill="#1B365D" transform="translate(766.6328125,257.89453125)"/>
<path d="M0 0 C1.65 0 3.3 0 5 0 C5.33 5.94 5.66 11.88 6 18 C6.99 17.34 7.98 16.68 9 16 C13.50242236 15.41239573 17.68686505 15.49709725 21.9375 17.125 C25.67927783 20.52661621 27.14489484 24.33774484 27.43359375 29.3125 C27.4506908 30.874907 27.45168053 32.43756381 27.4375 34 C27.4674707 35.17175781 27.4674707 35.17175781 27.49804688 36.3671875 C27.49354235 41.71856523 26.51627409 44.7492731 23 49 C18.74937999 52.54218334 15.31522527 52.42184328 10 52 C7.5 51 7.5 51 6 50 C5.505 50.495 5.505 50.495 5 51 C3.35 51 1.7 51 0 51 C0 34.17 0 17.34 0 0 Z M6 24 C4.85111419 27.44665742 4.7960653 30.24351905 4.75 33.875 C4.72421875 35.08929688 4.6984375 36.30359375 4.671875 37.5546875 C5.02307913 41.24233082 5.8056723 43.05992278 8 46 C10.58546056 47.96138387 11.78795025 48.01298264 15.0625 47.8125 C19.04423608 46.71116874 20.17296697 45.4364258 22.1875 41.9375 C23.73594834 36.33926369 23.84546572 30.47340225 21.75 25 C19.66408703 21.41843888 19.66408703 21.41843888 16 20 C11.36284221 19.28659111 9.29449606 20.79701772 6 24 Z " fill="#1B365D" transform="translate(581,257)"/>
<path d="M0 0 C23 0 23 0 31 4 C34.67395025 8.43056575 34.5043921 12.57010117 34.34765625 18.1171875 C33.87242174 22.05789611 32.76466785 24.16257774 30 27 C24.60636499 30.53957298 19.83273498 30.35884198 13.625 30.1875 C8.860625 30.0946875 8.860625 30.0946875 4 30 C4 36.93 4 43.86 4 51 C2.68 51 1.36 51 0 51 C0 34.17 0 17.34 0 0 Z M4 4 C4 11.26 4 18.52 4 26 C6.495625 26.061875 8.99125 26.12375 11.5625 26.1875 C12.33408447 26.21481201 13.10566895 26.24212402 13.90063477 26.27026367 C19.00079168 26.33070901 22.50227005 25.45279228 27 23 C29.52544475 19.0205113 30.15041546 16.98605693 29.4375 12.3125 C27.97381307 8.93965621 26.93556976 7.18070896 24 5 C19.7614481 3.82091193 15.55002658 3.88365341 11.1875 3.9375 C7.6296875 3.9684375 7.6296875 3.9684375 4 4 Z " fill="#1B365D" transform="translate(482,257)"/>
<path d="M0 0 C3.15430868 3.00043996 4.3118593 5.26869765 5.5625 9.4375 C5.5625 12.0775 5.5625 14.7175 5.5625 17.4375 C-2.0275 17.7675 -9.6175 18.0975 -17.4375 18.4375 C-16.20675502 24.66007899 -16.20675502 24.66007899 -12.4375 28.4375 C-6.88846636 29.90328247 -4.38144366 29.07426995 0.5625 26.4375 C2.9375 26.75 2.9375 26.75 4.5625 27.4375 C4.5625 28.4275 4.5625 29.4175 4.5625 30.4375 C-1.10394599 34.37937547 -5.55734227 35.39697778 -12.4375 34.4375 C-16.61895284 32.71037818 -18.86225328 30.11642389 -21.4375 26.4375 C-23.64484891 19.81545328 -23.71080466 11.14915845 -20.75 4.75 C-16.04335378 -2.85554943 -7.75967799 -3.52712636 0 0 Z M-15.4375 5.4375 C-17.89975016 8.52995003 -17.89975016 8.52995003 -17.4375 13.4375 C-11.4975 13.4375 -5.5575 13.4375 0.5625 13.4375 C0.11730024 7.08729336 0.11730024 7.08729336 -1.5625 4.5625 C-6.58086795 1.55147923 -10.95542698 1.85184159 -15.4375 5.4375 Z " fill="#1B365D" transform="translate(653.4375,274.5625)"/>
<path d="M0 0 C3.91614871 1.78006759 5.53710189 3.2902229 7.875 6.875 C10.37613251 13.80927756 10.36176033 22.93917122 7.375 29.6875 C5.21201177 33.21937239 3.01325451 34.76515246 -1 36 C-6.4032529 36.75645541 -10.34645494 36.03021539 -15 33 C-19.08792115 28.48919045 -19.20757347 24.03705792 -19.25 18.1875 C-19.270625 17.48818359 -19.29125 16.78886719 -19.3125 16.06835938 C-19.34841864 11.26873163 -18.53593772 8.0659334 -16 4 C-11.12579236 -0.5175583 -6.35532545 -1.00238466 0 0 Z M-12 7 C-15.33240061 11.82623536 -15.72044566 16.32525678 -15 22 C-14.05878361 25.78675432 -12.6908821 28.40248035 -9.6875 31 C-6.28433867 32.26629259 -4.46195864 32.03122172 -1 31 C2.10501256 29.15377632 2.83621763 28.49134712 4 25 C4.17209806 22.54548666 4.26658438 20.08511082 4.3125 17.625 C4.34988281 16.31789063 4.38726562 15.01078125 4.42578125 13.6640625 C3.93794429 9.46597932 3.03491784 7.88371197 0 5 C-5.01753336 3.54035393 -7.98454171 3.54224425 -12 7 Z " fill="#1B365D" transform="translate(428,273)"/>
<path d="M0 0 C3.93769434 3.64957037 5.41077839 6.89943299 5.9609375 12.25 C5.96880964 13.62499966 5.96075833 15.00017453 5.9375 16.375 C5.94910156 17.06078125 5.96070313 17.7465625 5.97265625 18.453125 C5.9457123 23.15933443 5.01356215 26.37558396 2.5625 30.375 C-1.42489815 33.98857957 -5.08901824 34.67813431 -10.4453125 34.58984375 C-14.69121695 34.13195209 -16.92422555 31.94530494 -19.6875 28.875 C-23.72832258 23.10239631 -22.97670731 16.14504734 -22.4375 9.375 C-21.26257416 5.13505024 -19.49941486 2.37444928 -16.3125 -0.625 C-10.63833647 -2.5986221 -5.43880342 -2.57107071 0 0 Z M-15.4375 5.375 C-17.9393939 9.12784085 -17.73680669 11.27306957 -17.75 15.75 C-17.76675781 17.05710937 -17.78351562 18.36421875 -17.80078125 19.7109375 C-17.42401688 23.510991 -16.71028203 25.35951525 -14.4375 28.375 C-11.78250276 30.46106926 -10.36999496 30.37379455 -6.9375 30.3125 C-2.74891302 29.19055706 -1.651554 28.0367047 0.5625 24.375 C2.2603758 18.88520159 2.27743371 13.40691685 0.375 8 C-1.65301831 5.06287003 -3.18171204 3.80437032 -6.4375 2.375 C-10.75900563 2.375 -12.01387837 2.94242674 -15.4375 5.375 Z " fill="#1B365D" transform="translate(567.4375,274.625)"/>
<path d="M0 0 C5.05948727 2.39175762 6.91507376 4.89490917 9 10 C9.31062794 12.75087629 9.47810875 15.19834304 9.4375 17.9375 C9.42992676 18.64608154 9.42235352 19.35466309 9.41455078 20.0847168 C9.23895028 25.62510493 8.66530108 28.85242246 5 33 C0.62511425 36.08230587 -3.74507803 36.90287269 -9 36 C-12.85048177 34.64236001 -15.45670419 32.86191087 -17.671875 29.34765625 C-19.1961604 25.5055604 -19.49741354 22.13614155 -19.4375 18.0625 C-19.43065186 17.35391846 -19.42380371 16.64533691 -19.41674805 15.9152832 C-19.24599646 10.38664087 -18.59454102 7.17743956 -15 3 C-10.71648676 -0.90555619 -5.50129666 -0.78464007 0 0 Z M-12 7 C-15.55497352 12.33246029 -15.3244655 18.72874151 -14.4375 24.9375 C-12.59311815 28.86683525 -10.92538969 30.18828168 -7 32 C-2.87724243 32.08413791 -1.38164108 31.31379378 1.8125 28.6875 C5.17428177 24.55731097 5.30442257 21.42866665 5.21484375 16.09375 C4.8572621 12.60895426 3.71953282 10.02400599 2 7 C-3.0654622 2.97360697 -6.83960918 3.33340652 -12 7 Z " fill="#1B365D" transform="translate(799,273)"/>
<path d="M0 0 C1.65 0 3.3 0 5 0 C5.33 0.66 5.66 1.32 6 2 C6.56847656 1.67644531 7.13695312 1.35289062 7.72265625 1.01953125 C11.42785357 -0.63922775 15.01477632 -0.4633981 19 0 C22.75255092 1.63154388 24.89662594 3.51154949 27 7 C27.34057617 10.02441406 27.34057617 10.02441406 27.29296875 13.515625 C27.28330078 14.76601563 27.27363281 16.01640625 27.26367188 17.3046875 C27.23853516 18.60664063 27.21339844 19.90859375 27.1875 21.25 C27.16719727 23.22613281 27.16719727 23.22613281 27.14648438 25.2421875 C27.11112551 28.49520321 27.06177033 31.747396 27 35 C25.68 35 24.36 35 23 35 C22.98541748 34.29915283 22.97083496 33.59830566 22.95581055 32.8762207 C22.88114513 29.68776991 22.78454525 26.50034487 22.6875 23.3125 C22.66494141 22.20970703 22.64238281 21.10691406 22.61914062 19.97070312 C22.58369141 18.90400391 22.54824219 17.83730469 22.51171875 16.73828125 C22.48553467 15.75899658 22.45935059 14.77971191 22.43237305 13.77075195 C21.93073737 10.55614818 20.89669973 8.62398598 19 6 C16.11138291 4.55569145 14.20352299 4.62311494 11 5 C8.44980889 6.65875263 7.43420394 7.41119382 6 10 C5.23535364 14.26508629 5.20930696 18.48745361 5.1875 22.8125 C5.16236328 23.98232422 5.13722656 25.15214844 5.11132812 26.35742188 C5.05252818 29.2386193 5.01619468 32.11829983 5 35 C3.35 35 1.7 35 0 35 C0 23.45 0 11.9 0 0 Z " fill="#1B365D" transform="translate(875,273)"/>
<path d="M0 0 C1.65 0 3.3 0 5 0 C5.2673999 0.7520874 5.5347998 1.5041748 5.81030273 2.27905273 C7.01644061 5.66625281 8.22690977 9.05188879 9.4375 12.4375 C10.06881836 14.21350586 10.06881836 14.21350586 10.71289062 16.02539062 C11.11572266 17.15009766 11.51855469 18.27480469 11.93359375 19.43359375 C12.30540771 20.47572021 12.67722168 21.51784668 13.06030273 22.59155273 C13.78099555 24.91490302 13.78099555 24.91490302 15 26 C17.97 17.42 20.94 8.84 24 0 C25.65 0 27.3 0 29 0 C28.4400567 4.81505589 27.44813203 9.01849857 25.75 13.5546875 C25.3065625 14.74578125 24.863125 15.936875 24.40625 17.1640625 C23.71015625 19.00097656 23.71015625 19.00097656 23 20.875 C22.53066645 22.13519949 22.0619113 23.39561455 21.59375 24.65625 C18.14775697 33.85224303 18.14775697 33.85224303 17 35 C15.33382885 35.04063832 13.66611905 35.042721 12 35 C10.28470474 30.50001108 8.57589021 25.99763557 6.87304688 21.49291992 C6.29279412 19.96066972 5.71077301 18.42908796 5.12695312 16.89819336 C4.28831136 14.69818498 3.45604887 12.49585469 2.625 10.29296875 C2.23127197 9.26625313 2.23127197 9.26625313 1.82958984 8.21879578 C0.74480992 5.32707244 0 3.11684291 0 0 Z " fill="#1B365D" transform="translate(825,273)"/>
<path d="M0 0 C1.65 0 3.3 0 5 0 C5 3.63 5 7.26 5 11 C7.31 11 9.62 11 12 11 C12 12.32 12 13.64 12 15 C9.69 15 7.38 15 5 15 C5.33 23.25 5.66 31.5 6 40 C7.98 40.66 9.96 41.32 12 42 C12 43.32 12 44.64 12 46 C10.14375 46.1546875 10.14375 46.1546875 8.25 46.3125 C7.55390625 46.37050781 6.8578125 46.42851562 6.140625 46.48828125 C2.80637946 45.72773254 1.84691748 43.78945595 0 41 C-0.45410156 38.0456543 -0.45410156 38.0456543 -0.390625 34.82421875 C-0.37773437 33.66728516 -0.36484375 32.51035156 -0.3515625 31.31835938 C-0.31804687 30.12017578 -0.28453125 28.92199219 -0.25 27.6875 C-0.23195313 26.46998047 -0.21390625 25.25246094 -0.1953125 23.99804688 C-0.14825131 20.99789578 -0.0825131 17.99935111 0 15 C-1.65 15 -3.3 15 -5 15 C-5 13.68 -5 12.36 -5 11 C-3.35 11 -1.7 11 0 11 C0 7.37 0 3.74 0 0 Z " fill="#1B365D" transform="translate(374,262)"/>
<path d="M0 0 C0 1.32 0 2.64 0 4 C-1.98 4.66 -3.96 5.32 -6 6 C-6.66 9.3 -7.32 12.6 -8 16 C-5.36 16 -2.72 16 0 16 C0 17.32 0 18.64 0 20 C-2.64 20 -5.28 20 -8 20 C-8 30.23 -8 40.46 -8 51 C-9.32 51 -10.64 51 -12 51 C-12 40.77 -12 30.54 -12 20 C-13.65 20 -15.3 20 -17 20 C-17 18.68 -17 17.36 -17 16 C-15.35 16 -13.7 16 -12 16 C-12.05800781 15.26394531 -12.11601562 14.52789062 -12.17578125 13.76953125 C-12.54247926 5.83837705 -12.54247926 5.83837705 -9.9375 1.8125 C-6.36192987 -0.39370285 -4.12981363 -0.40488369 0 0 Z " fill="#1B365D" transform="translate(458,257)"/>
<path d="M0 0 C1.65 0 3.3 0 5 0 C5.33 15.18 5.66 30.36 6 46 C7.98 46.33 9.96 46.66 12 47 C12 48.32 12 49.64 12 51 C4.5184669 51.36794425 4.5184669 51.36794425 2.0625 49.625 C0.17099095 46.73210381 -0.12289532 44.97968534 -0.11352539 41.55029297 C-0.11344986 40.62948944 -0.11337433 39.70868591 -0.11329651 38.75997925 C-0.10813522 37.76410797 -0.10297394 36.76823669 -0.09765625 35.7421875 C-0.0962413 34.72399933 -0.09482635 33.70581116 -0.09336853 32.6567688 C-0.087759 29.39614965 -0.07520488 26.13559849 -0.0625 22.875 C-0.05748623 20.66796974 -0.05292311 18.46093841 -0.04882812 16.25390625 C-0.03778648 10.83591419 -0.02103905 5.41796195 0 0 Z " fill="#1B365D" transform="translate(815,257)"/>
<path d="M0 0 C1.65 0 3.3 0 5 0 C5.33 0.66 5.66 1.32 6 2 C6.5671875 1.67644531 7.134375 1.35289062 7.71875 1.01953125 C11.40489455 -0.6278724 15.03522936 -0.50196179 19 0 C21.5625 1.5 21.5625 1.5 23 3 C22.34 4.32 21.68 5.64 21 7 C19.9790625 6.4740625 19.9790625 6.4740625 18.9375 5.9375 C15.1819022 4.73890496 12.79896412 5.01508338 9 6 C5.91592441 9.10156563 5.59758565 11.57464249 5.48828125 15.859375 C5.45283203 16.97441406 5.41738281 18.08945312 5.38085938 19.23828125 C5.34702148 20.97658203 5.34702148 20.97658203 5.3125 22.75 C5.27833984 23.92433594 5.24417969 25.09867187 5.20898438 26.30859375 C5.12654827 29.20563389 5.05738189 32.10237298 5 35 C3.35 35 1.7 35 0 35 C0 23.45 0 11.9 0 0 Z " fill="#1B365D" transform="translate(345,273)"/>
<path d="M0 0 C1.32 0 2.64 0 4 0 C4.02505615 1.25135742 4.0501123 2.50271484 4.07592773 3.79199219 C4.17012563 8.43630143 4.27031619 13.08046543 4.37231445 17.72460938 C4.41561644 19.73434043 4.45729488 21.74410715 4.49731445 23.75390625 C4.55513165 26.64333848 4.61879324 29.53259198 4.68359375 32.421875 C4.70030624 33.31992859 4.71701874 34.21798218 4.73423767 35.14324951 C4.75418289 35.98381897 4.77412811 36.82438843 4.79467773 37.69042969 C4.81022202 38.42767273 4.8257663 39.16491577 4.84178162 39.92449951 C5.00359148 42.04711286 5.42410148 43.95413256 6 46 C7.98 46.33 9.96 46.66 12 47 C12 48.32 12 49.64 12 51 C4.75097784 51.48326814 4.75097784 51.48326814 1.890625 49.64257812 C-1.09237504 45.47315761 -0.49301895 41.32465025 -0.390625 36.328125 C-0.38496521 35.29057068 -0.37930542 34.25301636 -0.37347412 33.184021 C-0.35109491 29.87221008 -0.30089419 26.56148356 -0.25 23.25 C-0.22993706 21.00392188 -0.21168594 18.75782679 -0.1953125 16.51171875 C-0.15122518 11.00744291 -0.08429741 5.50379893 0 0 Z " fill="#1B365D" transform="translate(616,257)"/>
<path d="M0 0 C1.32 0 2.64 0 4 0 C4.33 0.99 4.66 1.98 5 3 C5.639375 2.505 6.27875 2.01 6.9375 1.5 C11.00930239 -0.49435219 14.53681126 -0.79105024 19 0 C21.5625 2 21.5625 2 23 4 C21.68 4.99 20.36 5.98 19 7 C18.01 6.34 17.02 5.68 16 5 C12.60281976 5.1819918 9.99372541 5.33751639 7.125 7.25 C4.86800028 10.76088845 4.85871167 15.00428532 4.68359375 19.08203125 C4.64169922 20.01337891 4.59980469 20.94472656 4.55664062 21.90429688 C4.51732422 22.86400391 4.47800781 23.82371094 4.4375 24.8125 C4.37272461 26.28106445 4.37272461 26.28106445 4.30664062 27.77929688 C4.2009774 30.18607027 4.09887673 32.59293983 4 35 C2.68 35 1.36 35 0 35 C0 23.45 0 11.9 0 0 Z " fill="#1B365D" transform="translate(522,273)"/>
<path d="M0 0 C1.32 0 2.64 0 4 0 C4 11.55 4 23.1 4 35 C2.68 35 1.36 35 0 35 C0 23.45 0 11.9 0 0 Z " fill="#1B365D" transform="translate(860,273)"/>
<path d="M0 0 C1.98 0 3.96 0 6 0 C6 1.98 6 3.96 6 6 C4.02 6 2.04 6 0 6 C0 4.02 0 2.04 0 0 Z " fill="#1B365D" transform="translate(859,257)"/>
</svg>
