<?xml version="1.0" encoding="UTF-8"?>
<svg version="1.1" xmlns="http://www.w3.org/2000/svg" width="779" height="202">
<path d="M0 0 C1.11984787 -0.00852997 2.23969574 -0.01705994 3.39347839 -0.02584839 C4.60762421 -0.02494202 5.82177002 -0.02403564 7.07270813 -0.02310181 C9.00798622 -0.03317764 9.00798622 -0.03317764 10.98236084 -0.04345703 C14.5115763 -0.06107643 18.04069467 -0.06581081 21.56994987 -0.0670886 C23.77953131 -0.06851356 25.98908835 -0.07278976 28.19866371 -0.07808304 C35.92069175 -0.09657294 43.64265088 -0.10475534 51.36470032 -0.10317993 C58.5401789 -0.10198021 65.71535588 -0.1230518 72.89075822 -0.15466726 C79.06850895 -0.18090785 85.24616169 -0.19154392 91.42396766 -0.19026911 C95.10590053 -0.18976157 98.78756546 -0.19532802 102.46944237 -0.21662521 C106.58349733 -0.23977322 110.69688675 -0.23043942 114.81098938 -0.21841431 C116.01501404 -0.22965332 117.2190387 -0.24089233 118.45954895 -0.25247192 C131.81937102 -0.15363552 140.88520234 4.20758789 150.42549133 13.33383179 C157.2766656 20.49234845 162.36821119 29.57571214 162.4125061 39.6413269 C162.42323906 41.31491272 162.42323906 41.31491272 162.43418884 43.02230835 C162.43687775 44.24723999 162.43956665 45.47217163 162.44233704 46.73422241 C162.44890823 48.02396973 162.45547943 49.31371704 162.46224976 50.64254761 C162.48328113 54.92374429 162.49365579 59.20494126 162.50361633 63.48617554 C162.50766516 64.96282469 162.51178212 66.43947366 162.51596642 67.91612244 C162.53502126 74.85890086 162.54924796 81.80166867 162.55757838 88.74446821 C162.56733242 96.74070513 162.59360238 104.73666387 162.63407928 112.73280287 C162.66433179 118.92321989 162.67905614 125.11355765 162.6823594 131.30404711 C162.68470079 134.99610269 162.69354041 138.68786123 162.71882057 142.37983704 C162.74663293 146.50855711 162.74224241 150.63666434 162.73530579 154.76547241 C162.75452087 156.5785791 162.75452087 156.5785791 162.77412415 158.42831421 C162.70021721 170.5436915 159.30311042 179.25485617 151.26533508 188.26742554 C150.74197571 188.89519897 150.21861633 189.52297241 149.67939758 190.16976929 C144.23204552 196.2415739 135.10585874 201.94942698 126.80016232 202.40164661 C125.81300511 202.4059201 124.82584791 202.41019358 123.80877686 202.41459656 C122.10778084 202.42532951 122.10778084 202.42532951 120.37242126 202.4362793 C119.1272171 202.4389682 117.88201294 202.4416571 116.59907532 202.44442749 C115.28821457 202.45099869 113.97735382 202.45756989 112.62677002 202.46434021 C108.27583538 202.48537079 103.92490046 202.49574506 99.57392883 202.50570679 C98.07373092 202.50975541 96.57353319 202.51387237 95.07333565 202.51805687 C88.02110236 202.53711026 80.96887952 202.55133818 73.91662544 202.55966884 C65.79076947 202.56942721 57.66518692 202.59570922 49.53942722 202.63616973 C43.25051286 202.66640279 36.96167651 202.6811447 30.67269093 202.68444985 C26.92086563 202.68679314 23.16933235 202.69565801 19.41758537 202.72091103 C15.88229164 202.74432169 12.34747945 202.74837354 8.81212807 202.73814964 C6.91035947 202.73742409 5.00861463 202.756426 3.10694885 202.7762146 C-10.17176246 202.69629603 -18.95027286 197.85397858 -28.42216492 188.89242554 C-37.96594283 178.97907081 -40.1873744 168.58096712 -40.15458679 155.13534546 C-40.16305634 153.84632828 -40.17152588 152.5573111 -40.18025208 151.22923279 C-40.20233652 147.71661683 -40.20540533 144.20423635 -40.20350456 140.69156051 C-40.20338424 137.74710522 -40.21197373 134.80269871 -40.22028208 131.85825711 C-40.23946973 124.90436234 -40.24241722 117.95058757 -40.23564148 110.99667358 C-40.22900647 103.85117698 -40.25185353 96.70619732 -40.28895521 89.5608055 C-40.31976581 83.40079718 -40.33099994 77.24095417 -40.3271184 71.08087045 C-40.3250623 67.4128724 -40.33035142 63.74527676 -40.35501099 60.07735252 C-40.38164823 55.98045632 -40.36746435 51.88463456 -40.34989929 47.78768921 C-40.36316254 46.59197296 -40.37642578 45.39625671 -40.39009094 44.16430664 C-40.26399001 31.44051901 -35.51994888 21.12838181 -26.63310242 12.14242554 C-19.11848237 5.11845079 -10.55032855 0.0365174 0 0 Z " fill="#148543" transform="translate(39.73466491699219,-0.267425537109375)"/>
<path d="M0 0 C3 1.4375 3 1.4375 6 4 C6.70253906 4.598125 7.40507813 5.19625 8.12890625 5.8125 C11.97277935 9.16894778 15.67189712 12.63253311 19.21875 16.30078125 C29.72505505 27.49091134 29.72505505 27.49091134 44 32 C44.99773437 32.0928125 44.99773437 32.0928125 46.015625 32.1875 C55.57050502 32.72203874 62.91596156 28.6966227 70.0859375 22.6875 C74.63833788 18.4890396 78.99013732 14.09039832 83.29150391 9.63574219 C92.08106274 0.61356332 92.08106274 0.61356332 97.52734375 -0.53125 C103.68529245 -0.45140626 108.45071516 0.45071516 113 5 C113.11372017 6.41446903 113.1595319 7.83449243 113.17700195 9.25341797 C113.19625481 10.61151077 113.19625481 10.61151077 113.21589661 11.99703979 C113.22328354 12.98543854 113.23067047 13.97383728 113.23828125 14.9921875 C113.246353 16.00789825 113.25442474 17.02360901 113.26274109 18.07009888 C113.27660964 20.23063438 113.28731931 22.39119205 113.29516602 24.55175781 C113.3122476 27.82661058 113.35609271 31.10041907 113.40039062 34.375 C113.41052887 36.47655509 113.41904142 38.57811877 113.42578125 40.6796875 C113.44328934 41.64784393 113.46079742 42.61600037 113.47883606 43.61349487 C113.44322841 55.01689181 109.51416475 63.57454293 102 72 C101.47664062 72.62777344 100.95328125 73.25554687 100.4140625 73.90234375 C94.96671044 79.97414836 85.84052366 85.68200145 77.53482723 86.13422108 C76.05409143 86.1406313 76.05409143 86.1406313 74.54344177 86.14717102 C72.84244576 86.15790398 72.84244576 86.15790398 71.10708618 86.16885376 C69.86188202 86.17154266 68.61667786 86.17423157 67.33374023 86.17700195 C66.02287949 86.18357315 64.71201874 86.19014435 63.36143494 86.19691467 C59.0105003 86.21794525 54.65956537 86.22831952 50.30859375 86.23828125 C48.80839584 86.24232988 47.30819811 86.24644683 45.80800056 86.25063133 C38.75576728 86.26968473 31.70354443 86.28391264 24.65129036 86.2922433 C16.52543439 86.30200168 8.39985184 86.32828368 0.27409214 86.36874419 C-6.01482223 86.39897725 -12.30365857 86.41371916 -18.59264416 86.41702431 C-22.34446946 86.4193676 -26.09600274 86.42823247 -29.84774971 86.45348549 C-33.38304345 86.47689615 -36.91785563 86.480948 -40.45320702 86.47072411 C-42.35497561 86.46999855 -44.25672045 86.48900046 -46.15838623 86.50878906 C-59.43709754 86.42887049 -68.21560795 81.58655304 -77.6875 72.625 C-84.99721995 65.03221573 -89.3431427 55.96446457 -89.33988953 45.33909607 C-89.32440567 44.5762178 -89.30892181 43.81333954 -89.29296875 43.02734375 C-89.28872391 42.21882462 -89.28447906 41.41030548 -89.28010559 40.57728577 C-89.26350035 38.03033127 -89.22588533 35.4842096 -89.1875 32.9375 C-89.17242958 31.19597508 -89.15874534 29.45443759 -89.14648438 27.71289062 C-89.11365684 23.47494639 -89.06200455 19.23761368 -89 15 C-87.93486626 15.91272591 -86.86976976 16.82549527 -85.8046875 17.73828125 C-84.84320801 18.56126709 -84.84320801 18.56126709 -83.86230469 19.40087891 C-82.38389205 20.67036013 -80.91322021 21.94885514 -79.4453125 23.23046875 C-70.03443023 31.16793006 -62.15304623 32.45527304 -50 33 C-50 32.34 -50 31.68 -50 31 C-48.783125 30.566875 -47.56625 30.13375 -46.3125 29.6875 C-35.45555613 24.81883923 -26.79040895 15.05266489 -18.66918945 6.59619141 C-17.84100708 5.74226807 -17.84100708 5.74226807 -16.99609375 4.87109375 C-16.27184204 4.11203735 -16.27184204 4.11203735 -15.53295898 3.33764648 C-10.90046055 -0.70463077 -5.87349193 -0.72245827 0 0 Z " fill="#106D36" transform="translate(89,116)"/>
<path d="M0 0 C0.63164063 0.37640625 1.26328125 0.7528125 1.9140625 1.140625 C4.7328251 2.30191296 5.99040917 1.66495158 8.8125 0.625 C16.8485113 -2.00283435 23.22510691 -1.04067601 31 2 C33.18473098 3.19291796 35.00260092 4.48977143 37 6 C37.99 6.66 38.98 7.32 40 8 C40.46148438 7.60167969 40.92296875 7.20335938 41.3984375 6.79296875 C47.60963512 1.74790507 53.55853075 -0.52412829 61.5 -1.375 C72.09286348 -0.24005034 79.25640825 3.80701224 86.38671875 11.609375 C91.46392039 19.13297646 91.46729008 26.52261999 91.46875 35.328125 C91.48017029 37.2279715 91.48017029 37.2279715 91.49182129 39.16619873 C91.50259147 41.83247592 91.50686588 44.49786207 91.50097656 47.1640625 C91.49505142 50.57633192 91.52581784 53.98719268 91.56609344 57.399189 C91.59815449 60.66714174 91.59385426 63.93503916 91.59375 67.203125 C91.61014526 68.42606262 91.62654053 69.64900024 91.64343262 70.90899658 C91.6341272 72.04407654 91.62482178 73.17915649 91.61523438 74.34863281 C91.61728882 75.3459845 91.61934326 76.34333618 91.62145996 77.37091064 C91 80 91 80 88.68811035 82.35321045 C86 84 86 84 82.375 84 C78.58999952 82.87851838 77.92256218 82.31585019 76 79 C75.62818909 76.55400085 75.62818909 76.55400085 75.63110352 73.79174805 C75.62422012 72.75354416 75.61733673 71.71534027 75.61024475 70.64567566 C75.61640305 69.52896988 75.62256134 68.4122641 75.62890625 67.26171875 C75.61152115 64.89127462 75.5939368 62.52083194 75.57617188 60.15039062 C75.56610541 56.41769703 75.5625011 52.68509918 75.56420898 48.95239258 C75.56063327 45.3468784 75.53326423 41.7421015 75.50390625 38.13671875 C75.51618004 36.47076912 75.51618004 36.47076912 75.52870178 34.77116394 C75.46665807 28.29411835 74.89620582 24.25160285 71 19 C67.8448815 16.57298577 64.9913245 15.185643 61 15 C56.31682253 15.96473456 53.61240457 17.24627129 50.5625 21 C48.50045763 24.95912135 47.87623305 27.74075603 47.87402344 32.14233398 C47.87021667 33.19029648 47.86640991 34.23825897 47.86248779 35.31797791 C47.86146057 36.44925613 47.86043335 37.58053436 47.859375 38.74609375 C47.84105325 41.13347313 47.82148354 43.5208432 47.80078125 45.90820312 C47.77175718 49.67862713 47.74999859 53.44845097 47.74951172 57.21899414 C47.74618661 60.8535714 47.71169611 64.48675717 47.671875 68.12109375 C47.6789447 69.25034775 47.6860144 70.37960175 47.69329834 71.54307556 C47.57181744 79.32176567 47.57181744 79.32176567 44.68457031 82.74633789 C41.01725323 84.45893095 38.85683843 84.07134401 35 83 C32.73509504 81.33452693 32.07741494 80.48284342 31.62818909 77.6809845 C31.62915085 76.77023666 31.63011261 75.85948883 31.63110352 74.92114258 C31.62422012 73.88609085 31.61733673 72.85103912 31.61024475 71.78462219 C31.61640305 70.66589218 31.62256134 69.54716217 31.62890625 68.39453125 C31.61151629 66.02538924 31.59393199 63.65624864 31.57617188 61.28710938 C31.5661169 57.55230001 31.56249767 53.81758598 31.56420898 50.08276367 C31.56062792 46.47806461 31.53323335 42.87409928 31.50390625 39.26953125 C31.51208878 38.16092239 31.5202713 37.05231354 31.52870178 35.91011047 C31.46415232 29.15120184 30.63488319 24.74878095 27 19 C23.88164848 16.52131033 20.99007699 15.18558498 17 15 C12.31682253 15.96473456 9.61240457 17.24627129 6.5625 21 C4.50045763 24.95912135 3.87623305 27.74075603 3.87402344 32.14233398 C3.87021667 33.19029648 3.86640991 34.23825897 3.86248779 35.31797791 C3.86146057 36.44925613 3.86043335 37.58053436 3.859375 38.74609375 C3.84105325 41.13347313 3.82148354 43.5208432 3.80078125 45.90820312 C3.77175718 49.67862713 3.74999859 53.44845097 3.74951172 57.21899414 C3.74618661 60.8535714 3.71169611 64.48675717 3.671875 68.12109375 C3.6789447 69.25034775 3.6860144 70.37960175 3.69329834 71.54307556 C3.57181744 79.32176567 3.57181744 79.32176567 0.68457031 82.74633789 C-2.98274677 84.45893095 -5.14316157 84.07134401 -9 83 C-10.68469238 81.90049744 -10.68469238 81.90049744 -12 80 C-12.30625903 77.47088666 -12.43047302 75.18534696 -12.41992188 72.65454102 C-12.42839142 71.90950317 -12.43686096 71.16446533 -12.44558716 70.39685059 C-12.46899919 67.93236249 -12.46997836 65.46849717 -12.46875 63.00390625 C-12.47584914 61.29141489 -12.48354777 59.57892591 -12.49182129 57.86643982 C-12.50527578 54.27604563 -12.5068306 50.68587135 -12.50097656 47.09545898 C-12.49507987 42.49380268 -12.52566538 37.89320123 -12.56609344 33.291749 C-12.59194056 29.75467746 -12.59485061 26.2178609 -12.59120178 22.68070793 C-12.59289589 20.98421515 -12.60256641 19.28771096 -12.62034607 17.5913105 C-12.64247812 15.21843982 -12.63286589 12.84771671 -12.61523438 10.47485352 C-12.62849762 9.77394089 -12.64176086 9.07302826 -12.65542603 8.35087585 C-12.59218225 4.68870353 -12.22209099 3.23735821 -9.6842041 0.52500916 C-6.02808859 -1.55218372 -4.00908144 -1.02049346 0 0 Z " fill="#1E7840" transform="translate(525,69)"/>
<path d="M0 0 C3.19584435 2.8347407 4.24992533 5.13262166 4.5146637 9.28808594 C4.54140063 11.01998724 4.5461398 12.75231383 4.53344727 14.484375 C4.54637062 15.90719788 4.54637062 15.90719788 4.55955505 17.35876465 C4.58222976 20.48945519 4.57547363 23.61925177 4.56640625 26.75 C4.57164089 28.9280626 4.57791679 31.10612294 4.58518982 33.28417969 C4.59559663 37.84711379 4.59102793 42.40973608 4.57641602 46.97265625 C4.559222 52.82065598 4.58273032 58.66767379 4.61790562 64.51556396 C4.63986216 69.01259881 4.6384424 73.50939804 4.6301403 78.00646973 C4.62931995 80.16264931 4.63619934 82.31884604 4.65091133 84.47497559 C4.66832591 87.48914031 4.6538401 90.50153174 4.63110352 93.515625 C4.64864182 94.85143616 4.64864182 94.85143616 4.66653442 96.2142334 C4.59898368 100.61425184 4.39982901 102.46535066 1.68711853 106.09277344 C-1 108 -1 108 -4.625 108 C-9.24615385 106.63076923 -9.24615385 106.63076923 -11 104 C-11.35932898 102.67343618 -11.69600819 101.34032752 -12 100 C-12.59167969 100.33773437 -13.18335938 100.67546875 -13.79296875 101.0234375 C-26.17481198 108.01221035 -37.15326449 109.87871137 -51.046875 106.03125 C-61.97834945 102.21390972 -69.66434484 94.91742102 -74.9375 84.6875 C-79.45164491 75.18484241 -79.47885807 62.97175949 -77.31640625 52.77734375 C-76.38910055 50.34941888 -75.33740395 48.22623763 -74 46 C-73.34644531 44.83984375 -73.34644531 44.83984375 -72.6796875 43.65625 C-66.41549424 33.38708072 -57.62044077 27.38437723 -46.0625 24.1875 C-45.051875 24.125625 -44.04125 24.06375 -43 24 C-42.15179688 23.938125 -41.30359375 23.87625 -40.4296875 23.8125 C-29.85487212 23.37073226 -20.60965003 25.88329341 -12 32 C-11.9906543 31.13721436 -11.98130859 30.27442871 -11.97167969 29.38549805 C-11.92764278 26.1813816 -11.86602106 22.97822272 -11.79248047 19.7746582 C-11.76427203 18.38871604 -11.74305667 17.00261304 -11.72900391 15.61645508 C-11.70757579 13.62292596 -11.65882986 11.62974954 -11.609375 9.63671875 C-11.58842773 8.43748779 -11.56748047 7.23825684 -11.54589844 6.00268555 C-11 3 -11 3 -9.18066406 1.11645508 C-5.90866588 -0.55874059 -3.61200367 -0.51600052 0 0 Z M-56.0859375 47.8125 C-61.76425636 54.30200727 -63.56834544 61.47481846 -63 70 C-61.29423807 78.0228633 -57.43076038 84.22619373 -51.0625 89.375 C-44.02128612 93.1111543 -37.33134673 94.0737565 -29.625 92 C-22.64925533 89.44818913 -16.88532529 84.40464484 -13.4375 77.8125 C-10.7499193 70.64148975 -10.73530665 62.3337386 -13.5 55.1875 C-16.97216724 48.50173117 -22.82384923 42.48968496 -30 40 C-40.3437855 37.4590701 -48.53379978 40.55390827 -56.0859375 47.8125 Z " fill="#1E7840" transform="translate(337,45)"/>
<path d="M0 0 C10.20264155 7.54995475 17.17081878 17.33234305 19.25 30.02734375 C19.59505941 33.80451196 19.37900619 36.71583195 18.46875 40.421875 C15.32575805 43.60105742 12.78229288 43.80913179 8.41503906 43.85424805 C7.19407532 43.87404221 5.97311157 43.89383636 4.71514893 43.91423035 C3.40149353 43.92062027 2.08783813 43.92701019 0.734375 43.93359375 C-0.62755959 43.95044471 -1.98947867 43.96859552 -3.35137939 43.98799133 C-6.92860059 44.03545289 -10.50575888 44.0652867 -14.08319092 44.09143066 C-17.73657656 44.12125588 -21.38974554 44.16777939 -25.04296875 44.21289062 C-32.20562158 44.29887981 -39.36829023 44.36624416 -46.53125 44.421875 C-45.7649658 46.03077027 -44.98980109 47.63543784 -44.2109375 49.23828125 C-43.78022949 50.13232666 -43.34952148 51.02637207 -42.90576172 51.94750977 C-40.18186523 56.85100726 -35.89429399 59.90229639 -30.63671875 61.91015625 C-22.84436454 63.80403084 -15.76297697 62.96839833 -8.79296875 59.0625 C-5.65386134 56.78542726 -3.28735971 54.138823 -0.90625 51.09375 C0.46875 49.421875 0.46875 49.421875 2.46875 48.421875 C6.30489957 48.06667597 8.61504634 47.87462906 11.90625 49.984375 C14.23927097 53.62388771 14.36670223 55.13933359 13.46875 59.421875 C7.68485006 67.79261093 -0.79713806 75.04527712 -10.69140625 77.94921875 C-22.5875775 79.92918673 -34.64396203 79.4958628 -44.984375 72.84375 C-54.33096796 65.9730757 -60.4482592 57.64712355 -63.53125 46.421875 C-65.12044635 31.54929727 -62.90868106 19.85790847 -53.66796875 7.8671875 C-40.52685916 -7.17181543 -16.99408401 -10.59507707 0 0 Z M-40.80078125 17.515625 C-44.01090053 21.05182863 -46.53125 24.49893323 -46.53125 29.421875 C-30.36125 29.421875 -14.19125 29.421875 2.46875 29.421875 C-1.03924258 21.23655898 -4.94917989 14.74959451 -13.3671875 11.109375 C-24.06024214 7.71230349 -32.69552964 9.87953965 -40.80078125 17.515625 Z " fill="#1E7840" transform="translate(413.53125,74.578125)"/>
<path d="M0 0 C0.66 0 1.32 0 2 0 C2.32613281 1.26714844 2.65226563 2.53429688 2.98828125 3.83984375 C3.42952576 5.53910451 3.87094117 7.23832089 4.3125 8.9375 C4.63250977 10.18370117 4.63250977 10.18370117 4.95898438 11.45507812 C6.22674756 16.31799065 7.6454292 21.08579576 9.27026367 25.84106445 C9.97600547 27.92901183 10.63744972 30.02502801 11.28125 32.1328125 C11.48363281 32.79410156 11.68601562 33.45539062 11.89453125 34.13671875 C12.30035479 35.46939088 12.70397843 36.80273477 13.10546875 38.13671875 C14.4666776 42.56715011 16.16885545 46.73679267 18 51 C18.95201281 53.71133248 19.81502404 56.44970954 20.6875 59.1875 C25.13654304 72.79918218 30.22921997 86.22826942 36.96875 98.8828125 C38 101 38 101 38 103 C38.48210938 102.566875 38.96421875 102.13375 39.4609375 101.6875 C40.09257813 101.130625 40.72421875 100.57375 41.375 100 C42.00148437 99.443125 42.62796875 98.88625 43.2734375 98.3125 C45 97 45 97 47 97 C47 97.66 47 98.32 47 99 C46.01 99.66 45.02 100.32 44 101 C43.6383938 102.32594489 43.30614397 103.66016241 43 105 C41.15374249 107.11329009 39.31929628 109.0534317 37.3125 111 C36.79494141 111.52078125 36.27738281 112.0415625 35.74414062 112.578125 C31.13279634 117.12630018 26.60499805 121.54447812 19.8125 121.75 C14.00514945 121.47643705 10.52262061 119.49581239 6.19750977 115.69360352 C3.97682045 113.74161335 1.70486667 112.16434418 -0.79882812 110.59667969 C-6.9935862 106.23833066 -11.2065753 101.70683039 -12.82800293 94.13162231 C-14.17083282 83.49141573 -13.6630626 72.66473218 -13.32141113 61.97521973 C-13.22621862 58.42575951 -13.20568792 54.87762025 -13.18783951 51.32705402 C-13.1618947 47.04689042 -13.08942479 42.76783749 -13.015625 38.48828125 C-13.00622139 37.69036982 -12.99681778 36.89245838 -12.98712921 36.07036781 C-12.77715707 22.29096281 -10.10296521 10.10296521 0 0 Z " fill="#137E40" transform="translate(12,13)"/>
<path d="M0 0 C8.04337218 4.27337616 14.35417534 10.75108004 20.62109375 17.24609375 C27.89650997 25.42895646 27.89650997 25.42895646 37.4609375 30.08984375 C38.25628906 30.07953125 39.05164063 30.06921875 39.87109375 30.05859375 C41.06025391 30.0740625 41.06025391 30.0740625 42.2734375 30.08984375 C48.87466515 28.77153691 53.65594135 24.32101322 58.37109375 19.80859375 C59.2206665 19.01352417 59.2206665 19.01352417 60.08740234 18.20239258 C63.17223372 15.29951427 66.14209584 12.31894 69.05859375 9.24609375 C75.56030516 2.61961603 83.27452758 -2.54812098 92.68359375 -2.69140625 C93.6890625 -2.7171875 94.69453125 -2.74296875 95.73046875 -2.76953125 C98.93359375 -2.44140625 98.93359375 -2.44140625 105.93359375 0.55859375 C105.93359375 6.16859375 105.93359375 11.77859375 105.93359375 17.55859375 C104.81984375 16.89859375 103.70609375 16.23859375 102.55859375 15.55859375 C97.63092023 13.15124708 93.3350226 12.37623373 87.93359375 13.55859375 C82.03884249 16.43381141 77.68905534 21.80299543 73.15625 26.42138672 C72.46402344 27.12666504 71.77179688 27.83194336 71.05859375 28.55859375 C70.36636719 29.26516113 69.67414063 29.97172852 68.9609375 30.69970703 C61.91028851 37.78853044 54.00397251 44.6156629 43.66015625 45.82421875 C31.74418281 45.73562415 23.89227532 41.7103305 15.43359375 33.24609375 C13.16764387 30.90933293 10.92606849 28.55067655 8.68359375 26.19140625 C-0.29108329 16.77270098 -0.29108329 16.77270098 -12.25390625 12.93359375 C-18.54491143 12.99619082 -22.52938351 16.90828188 -26.73046875 21.1328125 C-28.05320553 22.50156762 -29.37342549 23.87275844 -30.69140625 25.24609375 C-47.70956195 42.58449412 -47.70956195 42.58449412 -57.06640625 43.55859375 C-57.06640625 44.21859375 -57.06640625 44.87859375 -57.06640625 45.55859375 C-71.03011066 46.14131403 -78.67326049 44.03002322 -89.06640625 34.55859375 C-89.98063354 33.83627563 -89.98063354 33.83627563 -90.91333008 33.09936523 C-93.74986025 30.66892487 -95.7723398 28.84102164 -96.625 25.12255859 C-96.75370474 22.42227274 -96.68060795 19.81822187 -96.50390625 17.12109375 C-96.47232422 16.19876953 -96.44074219 15.27644531 -96.40820312 14.32617188 C-96.32626192 12.06693573 -96.21169058 9.81449221 -96.06640625 7.55859375 C-92.10251751 10.88135803 -88.31070946 14.23209812 -84.75390625 17.99609375 C-76.03094866 26.84684212 -76.03094866 26.84684212 -64.50390625 30.43359375 C-54.88252482 29.73090859 -48.82737107 21.45286347 -42.47265625 14.98046875 C-29.8514218 2.27727824 -18.10591509 -6.35543041 0 0 Z " fill="#F9FBFA" transform="translate(96.06640625,103.44140625)"/>
<path d="M0 0 C11.57199302 7.22265551 18.47095066 16.46296278 21.671875 29.74609375 C22.73664973 43.31160034 20.97174743 54.67355651 12.671875 65.74609375 C5.50370574 73.58713714 -3.5174695 79.33434946 -14.26953125 79.984375 C-26.10474431 80.26653223 -35.58927729 79.16616819 -45.328125 71.74609375 C-46.1325 71.20984375 -46.936875 70.67359375 -47.765625 70.12109375 C-56.10484233 62.39206305 -60.50981368 52.67813413 -61.671875 41.4140625 C-62.05999162 27.78146628 -57.86056957 16.44738243 -48.578125 6.43359375 C-35.85621526 -5.60721948 -15.41369723 -8.3016725 0 0 Z M-39.328125 20.74609375 C-45.05942578 28.36886601 -46.34850797 35.23424792 -45.328125 44.74609375 C-42.7133943 53.03584535 -37.51830896 59.1481797 -30.203125 63.68359375 C-24.25936637 65.83032373 -16.88176783 65.85483031 -10.88671875 63.984375 C-8.90547859 63.03322934 -7.13768557 61.98989672 -5.328125 60.74609375 C-4.44125 60.16859375 -3.554375 59.59109375 -2.640625 58.99609375 C3.53403364 52.98831778 6.18035609 46.32969228 6.671875 37.74609375 C6.28248059 29.35527232 2.81612717 22.67178496 -3.25390625 16.921875 C-15.3931834 7.18688187 -29.22996746 9.65792077 -39.328125 20.74609375 Z " fill="#1E7840" transform="translate(686.328125,73.25390625)"/>
<path d="M0 0 C5.55516689 4.33303018 9.67231269 8.75501042 13 15 C13.33117325 15.62101593 13.6623465 16.24203186 14.0035553 16.88186646 C17.73061799 24.84355411 17.51296694 32.69716394 17.390625 41.2890625 C17.3831495 42.84417996 17.37746277 44.39930694 17.37347412 45.95443726 C17.35832051 50.01522581 17.31913004 54.07542718 17.2746582 58.13598633 C17.23348138 62.29239971 17.21541563 66.44890948 17.1953125 70.60546875 C17.15262351 78.73724635 17.08450002 86.8685498 17 95 C15.90598877 94.67765381 14.81197754 94.35530762 13.68481445 94.02319336 C6.71021071 92.08649659 -0.28897288 91.82982128 -7 94.8125 C-15.1425684 99.42051298 -21.69273008 106.6261094 -28.1875 113.25 C-34.09114266 119.24009767 -39.92236462 124.94745172 -48.625 125.5 C-58.46313522 125.2919484 -65.60621867 115.6659008 -72.0625 109.0625 C-73.21782227 107.89364258 -73.21782227 107.89364258 -74.39648438 106.70117188 C-76.26905344 104.80534108 -78.13673972 102.90497267 -80 101 C-77 101 -77 101 -75.11816406 102.63647461 C-74.42432617 103.38421143 -73.73048828 104.13194824 -73.015625 104.90234375 C-72.24476562 105.70994141 -71.47390625 106.51753906 -70.6796875 107.34960938 C-69.06915436 109.06500842 -67.46489176 110.78631784 -65.8671875 112.51367188 C-61.24100605 117.44644275 -61.24100605 117.44644275 -55.13671875 120.03125 C-54.10160156 120.0209375 -53.06648438 120.010625 -52 120 C-49.99902542 120.3274322 -47.99866686 120.65876419 -46 121 C-45.75121094 120.31550781 -45.50242188 119.63101563 -45.24609375 118.92578125 C-43.78941114 115.50554529 -41.95569751 112.37654366 -40.0625 109.1875 C-37.16715184 104.22570345 -34.87155301 99.42750373 -33 94 C-32.39300712 92.76184196 -31.7668198 91.53296837 -31.125 90.3125 C-19.72470857 68.1422695 -12.83543353 42.48142084 -6.26098633 18.48779297 C-6.06366409 17.77251434 -5.86634186 17.05723572 -5.66304016 16.32028198 C-5.13138072 14.38684796 -4.60738876 12.45131008 -4.08398438 10.515625 C-2.95414142 6.85126948 -1.56999229 3.49384875 0 0 Z " fill="#148041" transform="translate(185,9)"/>
<path d="M0 0 C1.23820999 -0.01354271 1.23820999 -0.01354271 2.50143433 -0.02735901 C4.23773601 -0.04180406 5.97409141 -0.05073388 7.71044922 -0.05444336 C10.36648114 -0.06640307 13.02023444 -0.11569328 15.67578125 -0.16601562 C17.36717622 -0.17547398 19.05858537 -0.18271183 20.75 -0.1875 C21.54173615 -0.20703232 22.33347229 -0.22656464 23.14920044 -0.24668884 C27.04436878 -0.21474561 28.84984943 0.01323571 31.77294922 2.67944336 C33.2421875 5.37109375 33.2421875 5.37109375 33.2421875 8.99609375 C32.106297 12.8297242 31.66997536 13.50456912 28.2421875 15.37109375 C25.60471539 15.67199001 23.19166098 15.81207017 20.5546875 15.8125 C19.81516846 15.82570786 19.07564941 15.83891571 18.3137207 15.8525238 C15.95650445 15.8933311 13.59967646 15.91506306 11.2421875 15.93359375 C8.88481752 15.95741772 6.52781128 15.98559508 4.1706543 16.02537537 C2.70610213 16.04963765 1.24135781 16.06457322 -0.22338867 16.06898499 C-3.87805202 16.12475885 -6.69193882 16.27923464 -9.7578125 18.37109375 C-12.0599074 21.59402661 -12.23291904 24.49105699 -11.7578125 28.37109375 C-9.53371258 32.00062005 -9.53371258 32.00062005 -5.92480469 33.99682617 C-3.53093601 34.41027825 -1.26521812 34.5148623 1.1640625 34.546875 C2.10765625 34.57072266 3.05125 34.59457031 4.0234375 34.61914062 C5.98676517 34.6617655 7.95037088 34.6932012 9.9140625 34.71289062 C17.39985644 34.93156531 22.79239265 36.34801569 28.484375 41.3359375 C29.02320313 41.98691406 29.56203125 42.63789062 30.1171875 43.30859375 C30.94863281 44.28119141 30.94863281 44.28119141 31.796875 45.2734375 C36.42854389 51.9956164 35.89197073 59.54870329 35.2421875 67.37109375 C33.60378401 74.03877379 28.77262311 78.56055152 23.2421875 82.37109375 C18.60949084 84.76805364 14.24125451 84.70951679 9.14453125 84.7421875 C8.27325089 84.75121597 7.40197052 84.76024445 6.50428772 84.76954651 C4.66785097 84.78401506 2.83136306 84.79292728 0.99487305 84.79663086 C-1.8148406 84.8085705 -4.62238719 84.85782285 -7.43164062 84.90820312 C-9.21873931 84.91766323 -11.00585144 84.92490024 -12.79296875 84.9296875 C-13.63158951 84.94921982 -14.47021027 84.96875214 -15.33424377 84.98887634 C-19.48470879 84.95671707 -21.13752364 84.93119605 -24.31420898 82.06274414 C-25.7578125 79.37109375 -25.7578125 79.37109375 -25.8203125 75.74609375 C-24.7578125 72.37109375 -24.7578125 72.37109375 -22.67578125 70.68115234 C-19.05878246 69.05725546 -15.89347172 68.9837212 -12.0078125 69.03515625 C-10.4973915 69.02264797 -8.98697481 69.00961104 -7.4765625 68.99609375 C-5.11312656 68.99216124 -2.75011458 68.99614131 -0.38671875 69.01074219 C1.90688624 69.0193289 4.19873701 68.99761372 6.4921875 68.97265625 C7.1944043 68.98600006 7.89662109 68.99934387 8.62011719 69.01309204 C12.46837459 68.95538452 14.12801787 68.46097962 17.1875 66.05224609 C19.50365728 63.45497955 19.50365728 63.45497955 19.8671875 59.87109375 C19.0548186 55.3218279 17.93541543 54.13403757 14.2421875 51.37109375 C10.8262101 50.69163158 7.46639584 50.71685778 3.9921875 50.74609375 C-6.2680835 50.74609375 -14.40068671 49.63820379 -22.02734375 42.30078125 C-27.63684907 36.04548638 -28.47636716 30.19786964 -28.19921875 21.84765625 C-27.2845101 14.64331375 -24.50158093 9.40738486 -18.8203125 4.87109375 C-12.92495062 0.70681349 -6.9988974 0.04764959 0 0 Z " fill="#1E7840" transform="translate(743.7578125,68.62890625)"/>
<path d="M0 0 C0.82405838 -0.00287018 1.64811676 -0.00574036 2.49714661 -0.00869751 C4.2275156 -0.01072765 5.95790809 -0.0052717 7.68823242 0.00732422 C10.33499206 0.02345555 12.98023915 0.0074088 15.62695312 -0.01171875 C17.31380544 -0.00973734 19.00065682 -0.00589577 20.6875 0 C21.47609909 -0.00607269 22.26469818 -0.01214539 23.07719421 -0.0184021 C26.30465434 0.0229595 28.74509219 0.19389534 31.6418457 1.67724609 C33.71461389 4.05141599 33.628524 6.29746735 33.67578125 9.36328125 C32.88378542 12.39732411 31.62212633 13.48175164 29.14453125 15.3984375 C26.38940176 15.76891289 24.02276147 15.90986301 21.2734375 15.8671875 C20.51409409 15.87423706 19.75475067 15.88128662 18.97239685 15.8885498 C15.73329055 15.91799641 12.49478835 15.90141875 9.25561523 15.88916016 C6.88619247 15.88677523 4.5177397 15.90771915 2.1484375 15.9296875 C1.42120987 15.91836792 0.69398224 15.90704834 -0.05528259 15.89538574 C-3.66878879 15.93117116 -5.7078927 16.30552333 -8.79321289 18.24804688 C-11.45581313 21.02443884 -11.85546875 22.56665915 -11.85546875 26.3984375 C-10.63781836 29.91609417 -9.93617569 31.85665225 -6.55200195 33.55322266 C-3.82490653 34.40801707 -1.68320039 34.65177603 1.1640625 34.671875 C2.10443359 34.6925 3.04480469 34.713125 4.01367188 34.734375 C5.96410613 34.76025999 7.91465651 34.77858257 9.86523438 34.7890625 C17.65810854 34.98055975 22.91338162 36.6813344 28.89453125 41.7109375 C34.28967198 48.15513337 36.51448895 54.09368484 36.42578125 62.4765625 C35.74727549 69.52548346 32.55676989 74.88823864 27.14453125 79.3984375 C20.99715248 83.82455021 16.64879119 84.57205034 9.20703125 84.63671875 C8.33054932 84.6447905 7.45406738 84.65286224 6.55102539 84.66117859 C4.69842499 84.67500135 2.84579931 84.68573158 0.99316406 84.69360352 C-1.84488602 84.7108731 -4.68178785 84.7547806 -7.51953125 84.79882812 C-9.31900185 84.80895045 -11.11848234 84.81746799 -12.91796875 84.82421875 C-13.7680249 84.84172684 -14.61808105 84.85923492 -15.49389648 84.87727356 C-21.342761 84.85563896 -21.342761 84.85563896 -23.8828125 82.59057617 C-25.34583217 79.29327355 -25.36360581 76.95539695 -24.85546875 73.3984375 C-22.00199684 70.32235431 -20.3301762 69.46004814 -16.13842773 68.91601562 C-14.70953546 68.90186496 -13.28035177 68.90744784 -11.8515625 68.9296875 C-11.09126236 68.92263794 -10.33096222 68.91558838 -9.54762268 68.9083252 C-7.12905916 68.88634743 -4.71160261 68.88928422 -2.29296875 68.8984375 C0.89643083 68.91048134 4.08418261 68.89679577 7.2734375 68.8671875 C8.00268936 68.87850708 8.73194122 68.88982666 9.48329163 68.90148926 C12.90017337 68.86749519 14.80479224 68.65081699 17.58178711 66.58789062 C19.75883067 63.53778492 20.01197177 61.11010298 20.14453125 57.3984375 C19.04245117 54.00035724 18.22355249 53.45111833 15.14453125 51.3984375 C12.97188217 51.0810666 12.97188217 51.0810666 10.57421875 51.08984375 C9.67703125 51.06470703 8.77984375 51.03957031 7.85546875 51.01367188 C5.98834254 50.97895259 4.1211499 50.94761405 2.25390625 50.91992188 C-6.87722015 50.65327217 -14.98234395 48.71670066 -21.85546875 42.3984375 C-26.56676679 36.54114804 -28.38859928 30.24274986 -28.16015625 22.79296875 C-27.18200187 15.10567858 -24.02686316 9.80412312 -18.1484375 4.87109375 C-12.04933916 0.95395564 -7.11543676 -0.05521841 0 0 Z " fill="#1E7840" transform="translate(467.85546875,68.6015625)"/>
<path d="M0 0 C1.39768235 0.59987674 2.79305655 1.2051323 4.1875 1.8125 C4.96480469 2.14894531 5.74210937 2.48539062 6.54296875 2.83203125 C9.14058743 4.06682932 11.54400662 5.50636965 14 7 C11.5281245 17.5153426 8.47828124 27.84552444 5.375 38.1875 C4.97932327 39.50818985 4.97932327 39.50818985 4.57565308 40.8555603 C1.29965531 51.75811352 -2.07566987 62.6007382 -5.9375 73.3125 C-6.27797363 74.25697998 -6.61844727 75.20145996 -6.96923828 76.17456055 C-9.04145029 81.77075253 -11.38582777 87.20224588 -13.89648438 92.61547852 C-15.62915809 96.35951042 -17.22236812 100.16343596 -18.83081055 103.9621582 C-21.31201107 109.69566405 -24.17316679 115.12884832 -27.25 120.5625 C-27.70890625 121.38041016 -28.1678125 122.19832031 -28.640625 123.04101562 C-29.7568909 125.02936425 -30.87670398 127.01561734 -32 129 C-36.19240091 129.2375298 -38.56371232 129.14903014 -41.875 126.5 C-42.47054687 126.0359375 -43.06609375 125.571875 -43.6796875 125.09375 C-44.11539063 124.7328125 -44.55109375 124.371875 -45 124 C-44.42102945 120.46555963 -43.50687893 117.68538403 -41.8203125 114.53125 C-41.16869141 113.30341797 -41.16869141 113.30341797 -40.50390625 112.05078125 C-40.04886719 111.20902344 -39.59382812 110.36726563 -39.125 109.5 C-38.67769531 108.65824219 -38.23039063 107.81648438 -37.76953125 106.94921875 C-36.00861241 103.65074245 -34.23396607 100.38636598 -32.296875 97.1875 C-30.99998848 94.99998057 -30.04199921 92.86959088 -29.125 90.5 C-28.78855469 89.63375 -28.45210937 88.7675 -28.10546875 87.875 C-27.74066406 86.92625 -27.37585938 85.9775 -27 85 C-26.58363281 83.948125 -26.16726562 82.89625 -25.73828125 81.8125 C-23.49518298 76.10034586 -21.46428699 70.42124126 -19.78515625 64.51977539 C-19.05168301 62.16586455 -18.18352641 59.96233648 -17.21875 57.6953125 C-14.36276478 50.63578598 -12.2424946 43.35087244 -10.0625 36.0625 C-9.84378235 35.33676788 -9.6250647 34.61103577 -9.39971924 33.86331177 C-6.01704918 22.63857525 -2.81930427 11.3810862 0 0 Z " fill="#F7FBF9" transform="translate(171,1)"/>
<path d="M0 0 C2.27592705 2.27592705 2.56907067 3.48158328 3.3671875 6.55078125 C3.61339844 7.47826172 3.85960937 8.40574219 4.11328125 9.36132812 C4.36464844 10.33521484 4.61601562 11.30910156 4.875 12.3125 C7.04618171 20.61238777 9.42184747 28.81704291 12 37 C12.39300293 38.25014893 12.78600586 39.50029785 13.19091797 40.78833008 C14.23673888 44.10534561 15.29314561 47.41887928 16.35449219 50.73095703 C16.7869085 52.08348461 17.21722817 53.4366842 17.64550781 54.79052734 C20.05025804 62.38975701 22.59585061 69.78399496 26 77 C26.67966676 78.66140763 27.34938905 80.32700041 28 82 C31.15058321 90.18341122 31.15058321 90.18341122 35.1796875 97.9453125 C36.29893288 100.74875569 35.98089125 102.16289302 35 105 C33.22265625 107.23828125 33.22265625 107.23828125 31.0625 109.3125 C30.35222656 110.00988281 29.64195313 110.70726563 28.91015625 111.42578125 C27 113 27 113 25 113 C24.24161787 111.71323688 23.49393731 110.42016797 22.75 109.125 C22.33234375 108.40570313 21.9146875 107.68640625 21.484375 106.9453125 C19.36488183 102.73979184 17.6980793 98.39003228 16 94 C15.57025879 92.89027832 15.14051758 91.78055664 14.69775391 90.63720703 C13.51312456 87.56216741 12.33524827 84.48468928 11.16333008 81.40478516 C10.67921599 80.1343317 10.1935367 78.86447357 9.70629883 77.59521484 C7.10465949 70.81751236 4.58858992 64.06575631 2.59936523 57.08056641 C1.99714834 54.99010107 1.32585655 52.93427148 0.625 50.875 C-1.066644 45.8801985 -2.60457026 40.83968728 -4.15917969 35.80102539 C-5.21028126 32.42310933 -6.29904689 29.09248926 -7.625 25.8125 C-9.75692654 20.41568024 -10.78409274 14.65698695 -12 9 C-8.18504423 5.60282037 -4.51045941 2.46025059 0 0 Z " fill="#F7FAF8" transform="translate(25,3)"/>
<path d="M0 0 C2.85167194 1.39039454 4.37842699 3.32726878 6.41796875 5.74609375 C12.19778549 12.37867033 16.84613005 17.50115673 25.98046875 18.37109375 C30.37134239 18.28777546 32.66532845 16.69820599 36.04296875 13.99609375 C39.15039298 15.46428043 41.94768614 17.19634375 44.79296875 19.12109375 C45.5921875 19.65992188 46.39140625 20.19875 47.21484375 20.75390625 C47.818125 21.16382813 48.42140625 21.57375 49.04296875 21.99609375 C46.652943 27.34573082 42.71990389 29.14238132 37.60546875 31.74609375 C29.94257062 34.43327575 19.29289451 34.57065572 11.8515625 31.08203125 C5.37739276 27.19473279 0.09683497 22.25414715 -5.08203125 16.80859375 C-5.58001221 16.29756104 -6.07799316 15.78652832 -6.59106445 15.26000977 C-9.95368888 11.60217715 -9.95368888 11.60217715 -9.96875 8.87109375 C-8.76183221 6.63433491 -7.42790605 4.99751887 -5.64453125 3.18359375 C-5.05027344 2.55839844 -4.45601563 1.93320313 -3.84375 1.2890625 C-1.95703125 -0.00390625 -1.95703125 -0.00390625 0 0 Z " fill="#F7FAF9" transform="translate(72.95703125,127.00390625)"/>
<path d="M0 0 C3 1.4375 3 1.4375 6 4 C6.70253906 4.598125 7.40507813 5.19625 8.12890625 5.8125 C11.99016517 9.18412898 15.70464784 12.67228622 19.2890625 16.3359375 C19.85294678 16.91093994 20.41683105 17.48594238 20.99780273 18.07836914 C22.09611514 19.20556363 23.18722902 20.33983325 24.26977539 21.48217773 C27.86929953 25.18685525 31.411544 27.61631154 36 30 C35.34 31.98 34.68 33.96 34 36 C33.01 35.505 33.01 35.505 32 35 C32.495 34.01 32.495 34.01 33 33 C32.29875 32.773125 31.5975 32.54625 30.875 32.3125 C27.30656387 30.68343133 24.93485489 28.59359269 22 26 C19.0280615 27.12451727 16.66559313 28.22293791 14 30 C7.63295443 30.64749616 3.21556606 29.77139697 -2 26 C-7.46069265 21.06335157 -12.47890776 15.82037809 -17 10 C-16.690625 9.4225 -16.38125 8.845 -16.0625 8.25 C-14.91850217 6.08319538 -14.91850217 6.08319538 -14.625 3.875 C-14 2 -14 2 -12.265625 0.90625 C-8.23896512 -0.70441395 -4.25906282 -0.52387833 0 0 Z " fill="#14763C" transform="translate(89,116)"/>
<path d="M0 0 C2.49770493 1.1893833 4.48680657 2.50776832 6.625 4.25 C5.965 5.9 5.305 7.55 4.625 9.25 C3.965 8.92 3.305 8.59 2.625 8.25 C2.955 7.59 3.285 6.93 3.625 6.25 C2.861875 5.96125 2.09875 5.6725 1.3125 5.375 C-1.375 4.25 -1.375 4.25 -4.375 2.25 C-4.375 1.59 -4.375 0.93 -4.375 0.25 C-2.375 -0.75 -2.375 -0.75 0 0 Z " fill="#1F7944" transform="translate(118.375,142.75)"/>
<path d="M0 0 C0.66 0.33 1.32 0.66 2 1 C1.32904297 1.65355469 1.32904297 1.65355469 0.64453125 2.3203125 C-2.2547153 5.17628672 -5.0797672 8.00799193 -7.625 11.1875 C-9.89141527 13.87141282 -12.1881363 15.91118697 -15 18 C-15.66 17.67 -16.32 17.34 -17 17 C-11.39 11.39 -5.78 5.78 0 0 Z " fill="#237F49" transform="translate(178,120)"/>
<path d="M0 0 C3.45201639 1.47721422 5.64961936 3.43794001 8.25 6.125 C8.95640625 6.84945312 9.6628125 7.57390625 10.390625 8.3203125 C11.18726562 9.15175781 11.18726562 9.15175781 12 10 C11.34 10.66 10.68 11.32 10 12 C8.32737283 10.38113585 6.66204463 8.7547271 5 7.125 C4.071875 6.22007812 3.14375 5.31515625 2.1875 4.3828125 C0 2 0 2 0 0 Z " fill="#2D8451" transform="translate(103,129)"/>
<path d="M0 0 C0.99 0.33 1.98 0.66 3 1 C-0.3 4.3 -3.6 7.6 -7 11 C-7.33 10.01 -7.66 9.02 -8 8 C-5.36 5.36 -2.72 2.72 0 0 Z " fill="#CFE3D8" transform="translate(71,127)"/>
<path d="M0 0 C0 0.66 0 1.32 0 2 C-0.99 2.66 -1.98 3.32 -3 4 C-3.72382467 6.05925139 -3.72382467 6.05925139 -4 8 C-4.99 8 -5.98 8 -7 8 C-6.44414399 4.1090079 -4.34122117 0 0 0 Z " fill="#0C7436" transform="translate(59,110)"/>
<path d="M0 0 C-1.15173355 2.46800047 -2.04783565 4.04783565 -4 6 C-4.99 6 -5.98 6 -7 6 C-5.52522876 2.59668175 -4.14385429 0 0 0 Z " fill="#25824B" transform="translate(62,110)"/>
<path d="M0 0 C2.5625 0.25 2.5625 0.25 5.5625 2.25 C5.2325 2.58 4.9025 2.91 4.5625 3.25 C3.03730724 3.16062197 1.51568071 3.00462854 0 2.8125 C-1.23943359 2.65974609 -1.23943359 2.65974609 -2.50390625 2.50390625 C-3.14199219 2.42011719 -3.78007812 2.33632812 -4.4375 2.25 C-2.4375 0.25 -2.4375 0.25 0 0 Z " fill="#076C2F" transform="translate(136.4375,130.75)"/>
</svg>
