<?xml version="1.0" encoding="UTF-8"?>
<svg version="1.1" xmlns="http://www.w3.org/2000/svg" width="790" height="344">
<path d="M0 0 C260.7 0 521.4 0 790 0 C790 113.52 790 227.04 790 344 C529.3 344 268.6 344 0 344 C0 230.48 0 116.96 0 0 Z " fill="#FEFEFE" transform="translate(0,0)"/>
<path d="M0 0 C2.26815676 1.40683141 3.65352475 2.75236201 4.8515625 5.1484375 C4.8515625 5.8084375 4.8515625 6.4684375 4.8515625 7.1484375 C5.5115625 7.1484375 6.1715625 7.1484375 6.8515625 7.1484375 C6.8515625 4.5084375 6.8515625 1.8684375 6.8515625 -0.8515625 C11.8015625 -0.8515625 16.7515625 -0.8515625 21.8515625 -0.8515625 C21.94197746 8.44970224 22.01534385 17.7506745 22.05881119 27.05227947 C22.0796747 31.3715264 22.10796937 35.69045675 22.15332031 40.00952148 C22.19682277 44.17869485 22.22070891 48.34756396 22.23107147 52.51694679 C22.238455 54.1065735 22.25287353 55.6961838 22.27448273 57.28568077 C22.30357658 59.51463 22.30751621 61.7423266 22.30566406 63.97143555 C22.31454651 65.23940475 22.32342896 66.50737396 22.33258057 67.81376648 C21.76689518 71.73539604 20.61311434 73.36407438 17.8515625 76.1484375 C14.41551485 77.86646132 10.46717354 77.2680993 6.6875 77.24609375 C5.78029205 77.2446788 4.87308411 77.24326385 3.93838501 77.24180603 C1.03441095 77.23619846 -1.86948665 77.22364468 -4.7734375 77.2109375 C-6.73958222 77.20592348 -8.70572815 77.2013604 -10.671875 77.19726562 C-15.4974254 77.18622656 -20.32291847 77.16895685 -25.1484375 77.1484375 C-25.1484375 72.8584375 -25.1484375 68.5684375 -25.1484375 64.1484375 C-9.8034375 63.6534375 -9.8034375 63.6534375 5.8515625 63.1484375 C6.1815625 57.8684375 6.5115625 52.5884375 6.8515625 47.1484375 C5.2015625 48.7984375 3.5515625 50.4484375 1.8515625 52.1484375 C-2.69008596 55.81572428 -6.28140995 56.83591184 -12.0234375 56.7109375 C-13.08570557 56.69450195 -13.08570557 56.69450195 -14.16943359 56.67773438 C-21.33381898 56.38066242 -25.04825171 54.42679489 -29.84765625 49.3515625 C-37.29682116 40.33320304 -38.22353716 30.58358847 -37.1484375 19.1484375 C-35.34803011 11.17520477 -30.92041975 4.28836634 -24.046875 -0.234375 C-15.90878812 -4.34655318 -8.08763002 -4.02952591 0 0 Z " fill="#0B0954" transform="translate(610.1484375,157.8515625)"/>
<path d="M0 0 C1.33547127 -0.00845947 1.33547127 -0.00845947 2.69792175 -0.01708984 C4.16683365 -0.01101715 4.16683365 -0.01101715 5.66542053 -0.00482178 C6.69477219 -0.00832642 7.72412384 -0.01183105 8.78466797 -0.01544189 C12.20079718 -0.02427288 15.61672071 -0.01840475 19.03285217 -0.01165771 C21.39935343 -0.01300407 23.76585443 -0.01494436 26.13235474 -0.01745605 C31.09815599 -0.02040926 36.06388542 -0.01610372 41.02967834 -0.0067749 C47.40340622 0.00461347 53.77696555 -0.00193479 60.15068722 -0.01391983 C65.03962479 -0.02113841 69.92852225 -0.01885039 74.81746101 -0.01366425 C77.16786786 -0.01232742 79.51827832 -0.0139766 81.86868095 -0.01862335 C85.15128635 -0.02368779 88.43361692 -0.01597902 91.71620178 -0.00482178 C92.69345215 -0.00887024 93.67070251 -0.0129187 94.67756653 -0.01708984 C95.57070053 -0.0114502 96.46383453 -0.00581055 97.3840332 0 C98.16035064 0.00075405 98.93666807 0.0015081 99.73651028 0.002285 C101.75550842 0.25396729 101.75550842 0.25396729 104.75550842 2.25396729 C105.14369202 4.54473877 105.14369202 4.54473877 105.15394592 7.37506104 C105.15781311 8.39277588 105.1616803 9.41049072 105.16566467 10.45904541 C105.15406311 11.52574463 105.14246155 12.59244385 105.13050842 13.69146729 C105.14210999 14.75429932 105.15371155 15.81713135 105.16566467 16.91217041 C105.16179749 17.93117432 105.1579303 18.95017822 105.15394592 20.00006104 C105.15056213 20.93519531 105.14717834 21.87032959 105.14369202 22.83380127 C104.67602097 25.74953908 104.04676379 26.45295475 101.75550842 28.25396729 C99.75492096 28.63149071 99.75492096 28.63149071 97.4287262 28.63491821 C96.54545151 28.64337769 95.66217682 28.65183716 94.75213623 28.66055298 C93.78580765 28.65448029 92.81947906 28.64840759 91.8238678 28.64215088 C90.80412369 28.64740784 89.78437958 28.65266479 88.73373413 28.65808105 C85.35542078 28.671309 81.97757676 28.66253286 78.59925842 28.65240479 C76.25660613 28.65442471 73.91395445 28.65733546 71.57130432 28.66110229 C66.65852377 28.66552945 61.74590671 28.65908187 56.83314514 28.64508057 C50.52775306 28.62798865 44.22274404 28.63782771 37.91736603 28.65579796 C33.07902629 28.66662513 28.24077775 28.66319432 23.4024353 28.65541458 C21.07714798 28.65340963 18.75185244 28.65588214 16.42657471 28.66285324 C13.17987553 28.67045002 9.93380152 28.65888794 6.68714905 28.64215088 C5.23765617 28.65125992 5.23765617 28.65125992 3.75888062 28.66055298 C2.87560593 28.65209351 1.99233124 28.64363403 1.08229065 28.63491821 C-0.06917576 28.6332216 -0.06917576 28.6332216 -1.24390411 28.63149071 C-3.79010943 28.15100577 -4.68044993 27.28566274 -6.24449158 25.25396729 C-6.61680603 22.83380127 -6.61680603 22.83380127 -6.60777283 20.00006104 C-6.60680603 18.47155518 -6.60680603 18.47155518 -6.6058197 16.91217041 C-6.58970642 15.84933838 -6.57359314 14.78650635 -6.55699158 13.69146729 C-6.56021423 12.62476807 -6.56343689 11.55806885 -6.5667572 10.45904541 C-6.49393891 0.00631075 -6.49393891 0.00631075 0 0 Z " fill="#5F80F1" transform="translate(22.244491577148438,122.74603271484375)"/>
<path d="M0 0 C3.05948071 1.85408404 5.15464406 3.93365667 7 7 C7 7.66 7 8.32 7 9 C7.66 9 8.32 9 9 9 C9 6.69 9 4.38 9 2 C13.62 2 18.24 2 23 2 C23.495 22.295 23.495 22.295 24 43 C25.65 43.33 27.3 43.66 29 44 C29 48.62 29 53.24 29 58 C15.63523866 58.49499116 15.63523866 58.49499116 12.59375 56.125 C11.00639911 54.00853215 10.37089619 52.5962733 10 50 C9.01 50 8.02 50 7 50 C6.7215625 51.11375 6.7215625 51.11375 6.4375 52.25 C4.43180518 56.0869814 2.03224433 57.73272321 -2 59 C-8.34591178 59.79024562 -15.02305091 60.23085943 -20.4453125 56.38671875 C-27.78809776 49.83724949 -31.8135962 43.30541528 -32.46875 33.31640625 C-32.50289161 31.73210443 -32.5129093 30.14711707 -32.5 28.5625 C-32.49033203 27.31581543 -32.49033203 27.31581543 -32.48046875 26.04394531 C-32.24685354 18.19631868 -30.47839801 12.73086238 -25.0625 6.921875 C-17.6373801 0.00301327 -10.06920764 -1.55887962 0 0 Z " fill="#090753" transform="translate(329,155)"/>
<path d="M0 0 C6.61003758 3.51281937 12.33900962 8.51315505 15.01953125 15.640625 C17.06561789 25.16644557 16.90304677 35.96355279 11.609375 44.38671875 C7.06943002 50.19649983 1.00648406 55.02910182 -6.390625 56.38671875 C-23.46935687 57.51421079 -23.46935687 57.51421079 -30.390625 52.38671875 C-31.9684375 51.33484375 -31.9684375 51.33484375 -33.578125 50.26171875 C-39.21487378 45.31801285 -42.10993755 37.33935021 -42.62890625 30.03125 C-42.81984877 20.17258628 -42.02113248 13.05303123 -35.140625 5.57421875 C-25.28503936 -3.58043084 -12.30037246 -5.06590484 0 0 Z " fill="#090752" transform="translate(547.390625,157.61328125)"/>
<path d="M0 0 C16.5 0 33 0 50 0 C50 4.62 50 9.24 50 14 C38.12 14 26.24 14 14 14 C14 19.94 14 25.88 14 32 C25.55 32 37.1 32 49 32 C49 36.62 49 41.24 49 46 C37.45 46 25.9 46 14 46 C14 56.56 14 67.12 14 78 C9.38 78 4.76 78 0 78 C0 52.26 0 26.52 0 0 Z " fill="#050350" transform="translate(164,134)"/>
<path d="M0 0 C11.22 0 22.44 0 34 0 C34 21.78 34 43.56 34 66 C39.94 66 45.88 66 52 66 C52 70.62 52 75.24 52 80 C34.84 80 17.68 80 0 80 C0 75.38 0 70.76 0 66 C6.27 66 12.54 66 19 66 C19 48.84 19 31.68 19 14 C12.73 14 6.46 14 0 14 C0 9.38 0 4.76 0 0 Z " fill="#0F0D57" transform="translate(439,133)"/>
<path d="M0 0 C10.89 0 21.78 0 33 0 C33 21.78 33 43.56 33 66 C39.27 66 45.54 66 52 66 C52 70.62 52 75.24 52 80 C34.51 80 17.02 80 -1 80 C-1 75.38 -1 70.76 -1 66 C5.6 66 12.2 66 19 66 C19 48.84 19 31.68 19 14 C12.73 14 6.46 14 0 14 C0 9.38 0 4.76 0 0 Z " fill="#060551" transform="translate(232,133)"/>
<path d="M0 0 C0.72944824 -0.01023193 1.45889648 -0.02046387 2.21044922 -0.03100586 C6.74780696 0.04365952 9.53596541 0.76735516 13.1875 3.4375 C14.2084375 4.07558594 14.2084375 4.07558594 15.25 4.7265625 C20.40704134 8.28242568 24.25143127 12.35422393 26.1875 18.4375 C25.80859375 21.21484375 25.80859375 21.21484375 25.1875 23.4375 C16.75892857 25.72321429 16.75892857 25.72321429 12.1875 25.4375 C11.5996875 24.07625 11.5996875 24.07625 11 22.6875 C8.94243029 18.99806465 7.92905587 17.42281536 4.1875 15.4375 C-0.77057971 14.61938158 -5.59016122 14.23389037 -10.11328125 16.68359375 C-13.86626585 19.79942568 -15.57396183 22.10664133 -16.0859375 27.109375 C-16.37764454 34.21879542 -16.37764454 34.21879542 -13.5625 40.5625 C-10.68888448 43.56673441 -8.80515287 45.19113565 -4.6640625 45.703125 C-0.04582507 45.67071632 3.95306507 45.50307802 8.1875 43.4375 C9.5373008 41.65484114 9.5373008 41.65484114 10.1875 39.4375 C10.84990302 37.76913419 11.51609177 36.10226221 12.1875 34.4375 C14.146464 34.74602185 16.10465713 35.0594418 18.0625 35.375 C19.15304687 35.54902344 20.24359375 35.72304687 21.3671875 35.90234375 C24.1875 36.4375 24.1875 36.4375 26.1875 37.4375 C26.1875 43.76464854 23.62199993 47.40427161 19.52734375 52.125 C13.16442912 58.41355669 6.91689566 59.91753208 -1.8125 60.0625 C-10.28417911 59.93907962 -16.38311193 58.32589411 -22.859375 52.640625 C-30.00013553 45.26380627 -31.34913631 37.40520052 -31.30273438 27.39282227 C-30.98669074 19.21326615 -27.96938428 13.57809842 -22.625 7.5625 C-15.86846927 1.46865672 -8.85190236 0.09726328 0 0 Z " fill="#0A0853" transform="translate(743.8125,154.5625)"/>
<path d="M0 0 C4.62 0 9.24 0 14 0 C14 7.92 14 15.84 14 24 C20.6 24 27.2 24 34 24 C34 28.29 34 32.58 34 37 C27.4 37 20.8 37 14 37 C14.33 46.24 14.66 55.48 15 65 C20.94 65.33 26.88 65.66 33 66 C33 70.62 33 75.24 33 80 C28.41604218 80.10771702 23.83460364 80.18719721 19.25 80.25 C17.94804687 80.28351563 16.64609375 80.31703125 15.3046875 80.3515625 C14.05429687 80.36445313 12.80390625 80.37734375 11.515625 80.390625 C10.36352539 80.41157227 9.21142578 80.43251953 8.02441406 80.45410156 C4.34655501 79.9018883 3.23189028 78.91659999 1 76 C-0.25282725 72.24151826 -0.12381835 68.74509081 -0.09765625 64.83203125 C-0.0962413 64.03721848 -0.09482635 63.2424057 -0.09336853 62.42350769 C-0.08777378 59.88646675 -0.07522228 57.34951425 -0.0625 54.8125 C-0.05748432 53.09179815 -0.05292153 51.37109492 -0.04882812 49.65039062 C-0.03865722 45.43353231 -0.01908084 41.21686509 0 37 C-5.28 37 -10.56 37 -16 37 C-16 32.71 -16 28.42 -16 24 C-10.72 24 -5.44 24 0 24 C0 16.08 0 8.16 0 0 Z " fill="#050350" transform="translate(385,133)"/>
<path d="M0 0 C1.84717873 -0.01429802 1.84717873 -0.01429802 3.73167419 -0.02888489 C5.08161447 -0.02862346 6.43155475 -0.02768644 7.78149414 -0.02612305 C9.16150543 -0.03000879 10.54151552 -0.0343432 11.92152405 -0.03910828 C14.81588617 -0.04657595 17.71012633 -0.04627544 20.60449219 -0.04101562 C24.31485277 -0.03522184 28.02471402 -0.05214649 31.73499203 -0.0753603 C34.58572817 -0.09008829 37.43634383 -0.09097062 40.28711128 -0.08785057 C41.65506542 -0.08836432 43.02302621 -0.09361206 44.39094353 -0.10366249 C46.30355909 -0.11598922 48.2162753 -0.1073058 50.12890625 -0.09765625 C51.21763535 -0.09828568 52.30636444 -0.0989151 53.42808533 -0.0995636 C56.12915039 0.2746582 56.12915039 0.2746582 57.97990417 1.67634583 C59.43682864 3.70256125 59.51591016 4.91730628 59.52758789 7.3996582 C59.53145508 8.18856445 59.53532227 8.9774707 59.53930664 9.7902832 C59.52770508 10.61012695 59.51610352 11.4299707 59.50415039 12.2746582 C59.51575195 13.09450195 59.52735352 13.9143457 59.53930664 14.7590332 C59.53543945 15.54793945 59.53157227 16.3368457 59.52758789 17.1496582 C59.5242041 17.86895508 59.52082031 18.58825195 59.51733398 19.3293457 C58.9981383 21.93120182 58.24256546 22.67404132 56.12915039 24.2746582 C53.42808533 24.64888 53.42808533 24.64888 50.12890625 24.64697266 C48.89430161 24.65320145 47.65969696 24.65943024 46.38768005 24.66584778 C45.03978064 24.65716062 43.69188517 24.64784274 42.34399414 24.63793945 C40.96301779 24.63742082 39.58204069 24.63793865 38.20106506 24.63945007 C35.30841028 24.63936039 32.41603442 24.62893773 29.5234375 24.61083984 C25.81196126 24.58813128 22.10089182 24.58761269 18.3893652 24.59435749 C15.53866446 24.59769524 12.68805683 24.59107147 9.83737373 24.58122826 C8.46860809 24.57737418 7.09983209 24.5762289 5.73106194 24.5778141 C3.82068438 24.57818406 1.91032037 24.56410317 0 24.54931641 C-1.0879335 24.54470901 -2.175867 24.54010162 -3.29676819 24.53535461 C-5.87084961 24.2746582 -5.87084961 24.2746582 -7.87084961 22.2746582 C-8.12963867 20.2434082 -8.12963867 20.2434082 -8.13647461 17.7746582 C-8.13905273 16.8877832 -8.14163086 16.0009082 -8.14428711 15.0871582 C-8.13268555 13.6949707 -8.13268555 13.6949707 -8.12084961 12.2746582 C-8.12858398 11.3465332 -8.13631836 10.4184082 -8.14428711 9.4621582 C-8.14170898 8.5752832 -8.13913086 7.6884082 -8.13647461 6.7746582 C-8.13421875 5.9599707 -8.13196289 5.1452832 -8.12963867 4.3059082 C-7.51300902 -0.53405285 -4.01421646 0.01700018 0 0 Z " fill="#080652" transform="translate(67.870849609375,197.725341796875)"/>
<path d="M0 0 C10.56 0 21.12 0 32 0 C32 13.86 32 27.72 32 42 C37.28 42 42.56 42 48 42 C48 46.62 48 51.24 48 56 C31.5 56 15 56 -2 56 C-2 51.38 -2 46.76 -2 42 C4.6 42 11.2 42 18 42 C18 32.43 18 22.86 18 13 C12.06 13 6.12 13 0 13 C0 8.71 0 4.42 0 0 Z " fill="#0A0853" transform="translate(649,157)"/>
<path d="M0 0 C2.42222595 -0.3742218 2.42222595 -0.3742218 5.50366211 -0.37231445 C6.65503159 -0.37854324 7.80640106 -0.38477203 8.99266052 -0.39118958 C10.24160599 -0.38197983 11.49055145 -0.37277008 12.77734375 -0.36328125 C14.05476944 -0.36377975 15.33219513 -0.36427826 16.64833069 -0.36479187 C19.35464344 -0.36244729 22.06017943 -0.35426448 24.76635742 -0.33618164 C28.23451479 -0.3135166 31.70223634 -0.31294556 35.17044735 -0.31969929 C38.47694563 -0.32384598 41.78336662 -0.31186453 45.08984375 -0.30078125 C46.33676498 -0.30169266 47.58368622 -0.30260406 48.86839294 -0.30354309 C50.6001754 -0.28924507 50.6001754 -0.28924507 52.36694336 -0.2746582 C53.38461288 -0.27005081 54.40228241 -0.26544342 55.45079041 -0.26069641 C58 0 58 0 61 2 C61.37231445 4.03125 61.37231445 4.03125 61.36328125 6.5 C61.36263672 7.386875 61.36199219 8.27375 61.36132812 9.1875 C61.34521484 10.115625 61.32910156 11.04375 61.3125 12 C61.31572266 12.928125 61.31894531 13.85625 61.32226562 14.8125 C61.26694139 21.73305861 61.26694139 21.73305861 59 24 C56.53308105 24.26069641 56.53308105 24.26069641 53.38867188 24.2746582 C52.21405396 24.28419022 51.03943604 24.29372223 49.82922363 24.30354309 C48.55526733 24.30263168 47.28131104 24.30172028 45.96875 24.30078125 C44.66675659 24.30506638 43.36476318 24.3093515 42.02331543 24.31376648 C39.26599053 24.32123265 36.50879366 24.32093436 33.75146484 24.31567383 C30.21363105 24.3098746 26.67632001 24.32681841 23.13857269 24.3500185 C19.76944261 24.36826917 16.40042934 24.36457123 13.03125 24.36328125 C11.12031555 24.37709587 11.12031555 24.37709587 9.17077637 24.39118958 C7.99615845 24.38496078 6.82154053 24.37873199 5.61132812 24.37231445 C4.5736731 24.37294388 3.53601807 24.3735733 2.46691895 24.3742218 C1.65283569 24.25072861 0.83875244 24.12723541 0 24 C-2.0331579 20.95026315 -2.2548508 20.31043132 -2.265625 16.875 C-2.26820312 16.08609375 -2.27078125 15.2971875 -2.2734375 14.484375 C-2.26570312 13.66453125 -2.25796875 12.8446875 -2.25 12 C-2.25773438 11.18015625 -2.26546875 10.3603125 -2.2734375 9.515625 C-2.27085938 8.72671875 -2.26828125 7.9378125 -2.265625 7.125 C-2.26336914 6.40570313 -2.26111328 5.68640625 -2.25878906 4.9453125 C-2 3 -2 3 0 0 Z " fill="#FFA911" transform="translate(18,162)"/>
<path d="M0 0 C2.96081176 1.48979535 4.86022297 3.23864671 6.84765625 5.8671875 C8.70887782 11.88878668 9.24087599 18.45574802 6.34765625 24.2421875 C2.99728913 28.45162311 0.03572345 30.77649931 -5.33203125 31.68359375 C-9.31478042 31.89144766 -11.75526965 31.46250547 -15.40234375 29.7421875 C-19.44788268 26.07297778 -21.73899124 23.01689568 -22.4375 17.6171875 C-22.60638797 12.21277254 -22.45195019 7.7513444 -19.08984375 3.3046875 C-13.29643496 -1.18816013 -7.07846725 -2.35507882 0 0 Z " fill="#F7F7FA" transform="translate(541.08984375,169.6953125)"/>
<path d="M0 0 C3.88665392 1.6066614 6.26612505 3.5372087 8.15625 7.3046875 C10.03941729 13.32036078 10.00389845 19.75126748 7.4375 25.5 C3.4209987 29.61948851 -0.23926844 32.19731754 -6.125 32.375 C-11.62302578 31.84293299 -13.7895519 31.15665041 -17.8125 27.3125 C-21.56905547 21.62981258 -21.0316277 14.47435316 -20 8 C-15.62662026 -0.48090052 -8.85376786 -1.00636697 0 0 Z " fill="#F8F8FA" transform="translate(608,169)"/>
<path d="M0 0 C1.65032227 -0.00580078 1.65032227 -0.00580078 3.33398438 -0.01171875 C4.48318359 -0.00011719 5.63238281 0.01148438 6.81640625 0.0234375 C7.96173828 0.01183594 9.10707031 0.00023437 10.28710938 -0.01171875 C11.38861328 -0.00785156 12.49011719 -0.00398437 13.625 0 C14.63232178 0.00338379 15.63964355 0.00676758 16.67749023 0.01025391 C19.80838638 0.46015222 21.19029415 1.12627593 23.37890625 3.3984375 C23.86474609 5.34375 23.86474609 5.34375 23.83984375 7.5234375 C23.83597656 8.31234375 23.83210938 9.10125 23.828125 9.9140625 C23.79138672 11.14382812 23.79138672 11.14382812 23.75390625 12.3984375 C23.75261719 13.21828125 23.75132813 14.038125 23.75 14.8828125 C23.66039121 20.97621006 23.66039121 20.97621006 21.37890625 24.3984375 C18.61328125 24.78662109 18.61328125 24.78662109 15.12890625 24.796875 C13.2571875 24.80267578 13.2571875 24.80267578 11.34765625 24.80859375 C9.383125 24.79119141 9.383125 24.79119141 7.37890625 24.7734375 C6.06921875 24.78503906 4.75953125 24.79664063 3.41015625 24.80859375 C2.16234375 24.80472656 0.91453125 24.80085938 -0.37109375 24.796875 C-1.5209375 24.79349121 -2.67078125 24.79010742 -3.85546875 24.78662109 C-4.768125 24.65852051 -5.68078125 24.53041992 -6.62109375 24.3984375 C-9.33491458 20.32770625 -8.95237016 17.17515638 -8.93359375 12.3984375 C-8.94970703 11.57859375 -8.96582031 10.75875 -8.98242188 9.9140625 C-8.98306641 9.12515625 -8.98371094 8.33625 -8.984375 7.5234375 C-8.98735596 6.80414063 -8.99033691 6.08484375 -8.9934082 5.34375 C-8.02241413 0.27038557 -4.5806522 0.01540455 0 0 Z " fill="#0B0954" transform="translate(103.62109375,161.6015625)"/>
<path d="M0 0 C4.57756641 2.20704095 6.7617507 4.49799429 9 9 C9.8086749 14.82100218 9.84476646 20.21660414 7.3125 25.5625 C6.549375 26.366875 5.78625 27.17125 5 28 C4.278125 28.78375 3.55625 29.5675 2.8125 30.375 C-1.17274751 32.67758745 -4.50336973 32.64705609 -9 32 C-12.71875701 30.67777529 -14.35763437 28.81241121 -16.3125 25.5 C-18.922187 19.78404588 -19.11396594 13.27920709 -17.09765625 7.34375 C-13.40619624 -0.53837103 -7.9963327 -1.26814087 0 0 Z " fill="#F8F7FA" transform="translate(329,169)"/>
<path d="M0 0 C1.06669922 0.00322266 2.13339844 0.00644531 3.23242188 0.00976562 C4.29525391 -0.00634766 5.35808594 -0.02246094 6.453125 -0.0390625 C7.98163086 -0.0400293 7.98163086 -0.0400293 9.54101562 -0.04101562 C10.4761499 -0.04399658 11.41128418 -0.04697754 12.37475586 -0.05004883 C14.79492188 0.32226562 14.79492188 0.32226562 16.59838867 1.5871582 C18.0570957 3.70244709 18.18133971 4.89222912 18.19335938 7.44726562 C18.19916016 8.630625 18.19916016 8.630625 18.20507812 9.83789062 C18.19347656 10.65773437 18.181875 11.47757813 18.16992188 12.32226562 C18.18152344 13.14210937 18.193125 13.96195313 18.20507812 14.80664062 C18.20121094 15.59554687 18.19734375 16.38445312 18.19335938 17.19726562 C18.18828369 18.27621094 18.18828369 18.27621094 18.18310547 19.37695312 C17.6677557 21.9595361 16.94529575 22.81144386 14.79492188 24.32226562 C12.37475586 24.71044922 12.37475586 24.71044922 9.54101562 24.72070312 C8.52201172 24.72457031 7.50300781 24.7284375 6.453125 24.73242188 C4.85887695 24.71501953 4.85887695 24.71501953 3.23242188 24.69726562 C2.16572266 24.70886719 1.09902344 24.72046875 0 24.73242188 C-1.01771484 24.72855469 -2.03542969 24.7246875 -3.08398438 24.72070312 C-4.4849939 24.71562744 -4.4849939 24.71562744 -5.91430664 24.71044922 C-6.67026123 24.58234863 -7.42621582 24.45424805 -8.20507812 24.32226562 C-10.27985638 21.21009824 -10.460304 20.48166055 -10.47070312 16.94335938 C-10.47328125 16.10482422 -10.47585938 15.26628906 -10.47851562 14.40234375 C-10.47078125 13.53029297 -10.46304687 12.65824219 -10.45507812 11.75976562 C-10.4628125 10.88384766 -10.47054688 10.00792969 -10.47851562 9.10546875 C-10.4759375 8.26822266 -10.47335937 7.43097656 -10.47070312 6.56835938 C-10.46844727 5.80193115 -10.46619141 5.03550293 -10.46386719 4.24584961 C-9.724327 -1.25116656 -4.25200116 0.02962129 0 0 Z " fill="#90A0FF" transform="translate(26.205078125,197.677734375)"/>
<path d="M0 0 C2.92810762 1.81651121 5.43591638 3.87183276 7 7 C7.57791538 14.0505676 7.57791538 14.0505676 5.25 17.875 C2.19780056 20.75763281 0.31085388 21.76695931 -3.8125 22.5 C-7.73156516 21.88524468 -9.75888771 20.66918506 -12.6328125 17.98046875 C-14.80792651 14.82966074 -14.83143762 12.08802291 -14.56640625 8.34375 C-13.69948011 4.75646942 -11.93862097 3.1185407 -9 1 C-5.61670875 -0.12776375 -3.54843366 -0.41746278 0 0 Z " fill="#0D0B56" transform="translate(677,129)"/>
<path d="M0 0 C0.33 0 0.66 0 1 0 C1 3.96 1 7.92 1 12 C17.5 12 34 12 51 12 C51 8.37 51 4.74 51 1 C45.39 1 39.78 1 34 1 C34 0.67 34 0.34 34 0 C40.27 0 46.54 0 53 0 C53 4.62 53 9.24 53 14 C35.51 14 18.02 14 0 14 C0 9.38 0 4.76 0 0 Z " fill="#3A3875" transform="translate(231,199)"/>
<path d="M0 0 C5.61 0 11.22 0 17 0 C17 4.62 17 9.24 17 14 C7.76 14 -1.48 14 -11 14 C-11.33 13.34 -11.66 12.68 -12 12 C-3.09 12 5.82 12 15 12 C15 8.37 15 4.74 15 1 C10.05 1 5.1 1 0 1 C0 0.67 0 0.34 0 0 Z " fill="#41407A" transform="translate(401,199)"/>
<path d="M0 0 C0.66 0.33 1.32 0.66 2 1 C-0.31 3.31 -2.62 5.62 -5 8 C-5.33 7.34 -5.66 6.68 -6 6 C-4 4 -2 2 0 0 Z " fill="#D4D4E1" transform="translate(526,170)"/>
</svg>
