<?xml version="1.0" encoding="UTF-8"?>
<svg version="1.1" xmlns="http://www.w3.org/2000/svg" width="301" height="176">
<path d="M0 0 C1.85390426 -0.00435298 3.70780672 -0.00953808 5.56170654 -0.01548767 C10.57417738 -0.02882571 15.58657257 -0.02946215 20.59905767 -0.02692437 C24.79366854 -0.02585114 28.98826432 -0.030747 33.18287194 -0.03552979 C43.08384027 -0.04660698 52.98477066 -0.04707244 62.88574219 -0.04101562 C73.07748997 -0.03497652 83.26909967 -0.0472894 93.46082389 -0.06858569 C102.23227466 -0.08623585 111.00368161 -0.09219768 119.77514946 -0.08894795 C125.00461659 -0.08714042 130.23398519 -0.08971819 135.46343613 -0.10366249 C140.38340886 -0.1162919 145.30316724 -0.11424858 150.2231369 -0.1012516 C152.02094472 -0.09889739 153.81876786 -0.10157871 155.61655807 -0.10987473 C171.45498597 -0.17764966 184.91481402 1.37457735 197.30126953 12.2746582 C208.22052997 23.91841934 209.90636074 38.98028264 210.13330078 54.16918945 C210.15970607 55.60732141 210.18646137 57.04544698 210.21354675 58.48356628 C210.26769952 61.48653576 210.31453348 64.48951502 210.35668945 67.49267578 C210.41127535 71.30871714 210.48885273 75.12389953 210.5726366 78.93939686 C210.6343665 81.90697563 210.68122697 84.87465988 210.7240963 87.84256554 C210.74656624 89.24781973 210.77401169 90.65300487 210.8068943 92.05805397 C211.1382763 106.775465 208.97353402 120.23394467 198.71533203 131.3215332 C187.8525643 141.41704225 175.47942295 143.75410293 161.05126953 143.6730957 C159.32154907 143.67740097 159.32154907 143.67740097 157.55688477 143.68179321 C155.13671371 143.68382026 152.71652575 143.67838648 150.29638672 143.66577148 C146.62315723 143.64969928 142.9510279 143.66566788 139.27783203 143.68481445 C136.91064214 143.68283178 134.54345292 143.67898761 132.17626953 143.6730957 C131.09466553 143.6791684 130.01306152 143.68524109 128.89868164 143.6914978 C121.43504079 143.62372919 114.76889058 142.3793703 107.61376953 140.2746582 C107.08009766 141.02489258 106.54642578 141.77512695 105.99658203 142.5480957 C93.67876762 159.4691072 80.59218752 169.8225894 60.13720703 174.88793945 C46.74216072 176.94074067 33.98733829 175.26862441 22.67626953 167.5246582 C14.3644518 160.96206191 9.86737787 153.35220615 6.61376953 143.2746582 C6.61376953 141.9546582 6.61376953 140.6346582 6.61376953 139.2746582 C5.94990234 139.55180664 5.28603516 139.82895508 4.60205078 140.11450195 C3.71904297 140.47672852 2.83603516 140.83895508 1.92626953 141.2121582 C0.62109375 141.75163086 0.62109375 141.75163086 -0.71044922 142.30200195 C-6.42112471 144.37785334 -11.84922395 144.44866485 -17.85888672 144.4777832 C-19.23722939 144.48633331 -19.23722939 144.48633331 -20.64341736 144.49505615 C-22.5875433 144.50448641 -24.53168509 144.51103228 -26.47583008 144.51489258 C-29.41435628 144.52454529 -32.35216665 144.55556558 -35.29052734 144.5871582 C-51.31504143 144.67937164 -64.29738703 143.39938009 -76.67529297 132.2043457 C-85.23995461 123.25475545 -89.30376894 112.20111853 -89.41748047 99.8918457 C-88.78264866 85.4494221 -84.57185846 75.03424701 -74.19873047 65.0871582 C-69.02964555 60.6377082 -62.39242456 56.2746582 -55.38623047 56.2746582 C-55.71623047 55.1609082 -56.04623047 54.0471582 -56.38623047 52.8996582 C-59.04782023 41.98522537 -57.19820258 30.79483753 -51.69873047 21.0246582 C-45.04313585 10.87040138 -36.31700395 4.01352664 -24.32785034 1.21516418 C-16.31009771 -0.32750933 -8.13100496 -0.01264369 0 0 Z M45.61376953 38.2746582 C43.89645 42.2741185 43.22906829 45.0560657 44.71264648 49.13256836 C45.32074639 50.53589037 45.9519925 51.9293355 46.60205078 53.3137207 C46.93627045 54.06891998 47.27049011 54.82411926 47.61483765 55.60220337 C48.33046616 57.21194962 49.05576832 58.81742458 49.78988647 60.41882324 C50.93211896 62.91242808 52.04638751 65.4168947 53.15405273 67.92602539 C56.29019084 75.00835319 59.49825624 82.0540879 62.79345703 89.0637207 C63.22746826 90.01037598 63.66147949 90.95703125 64.10864258 91.93237305 C64.87530264 93.59877971 65.6666292 95.25417496 66.48803711 96.89428711 C68.40041172 101.06581852 68.89284853 103.57251448 67.50439453 108.0168457 C66.17708272 111.25771918 64.67042116 114.26157654 62.67626953 117.1496582 C61.95117188 118.22860352 61.95117188 118.22860352 61.21142578 119.3293457 C57.0385049 124.41031049 52.63986341 125.10512925 46.39111328 126.33325195 C43.17427599 127.42362859 42.18897021 128.29927914 40.61376953 131.2746582 C40.67835471 134.9560132 40.832817 137.30627706 43.17626953 140.2121582 C48.72541403 142.63101606 54.72960487 141.53612551 60.25048828 139.50512695 C71.57166453 133.61063023 77.93338345 122.37189537 83.11376953 111.2121582 C83.5268335 110.33438721 83.93989746 109.45661621 84.36547852 108.55224609 C88.91144146 98.79762646 93.20246354 88.92706075 97.47949219 79.05224609 C100.10009681 73.00409934 102.73020477 66.96762156 105.50830078 60.98950195 C105.93296631 60.07241455 106.35763184 59.15532715 106.79516602 58.21044922 C107.56236644 56.56447556 108.33850633 54.92262322 109.12573242 53.28613281 C111.05837271 49.12930017 112.20076926 45.96375014 111.61376953 41.2746582 C109.76440271 38.19238017 108.51596093 36.64478801 105.17626953 35.2746582 C101.54787961 35.2746582 100.37679719 35.85700901 97.61376953 38.2746582 C92.19897965 47.01693167 89.01119856 57.26971472 85.36376953 66.8371582 C84.41104406 69.32832862 83.45686914 71.81891671 82.49957275 74.30833435 C81.90797175 75.84749237 81.31913279 77.38771545 80.7333374 78.92909241 C78.72562103 84.1628067 78.72562103 84.1628067 77.61376953 85.2746582 C77.40745407 84.74705399 77.20113861 84.21944977 76.98857117 83.67585754 C74.83623474 78.17435703 72.67762106 72.67534976 70.51538086 67.17773438 C69.70973765 65.12693256 68.9056856 63.07550491 68.10327148 61.0234375 C66.94821367 58.0703516 65.78741239 55.11957936 64.62548828 52.16918945 C64.26911789 51.25442337 63.9127475 50.33965729 63.545578 49.39717102 C60.8758087 41.74719061 60.8758087 41.74719061 55.61376953 35.9621582 C51.38695379 34.50919029 48.98385194 35.59587475 45.61376953 38.2746582 Z M-20.38623047 38.2746582 C-22.8005483 41.89613495 -23.08052575 42.99899806 -22.38623047 47.2746582 C-20.45185348 50.36478544 -18.10264076 53.04174121 -15.69873047 55.7746582 C-15.07289062 56.50813477 -14.44705078 57.24161133 -13.80224609 57.99731445 C-10.36050087 62.04450624 -10.36050087 62.04450624 -6.77832031 65.96606445 C-5.36669922 67.4934082 -5.36669922 67.4934082 -3.38623047 70.2746582 C-3.68846783 74.14384104 -4.86305024 76.30204387 -7.37060547 79.20043945 C-7.97646484 79.91522461 -8.58232422 80.63000977 -9.20654297 81.36645508 C-10.16173828 82.46570313 -10.16173828 82.46570313 -11.13623047 83.5871582 C-19.59762736 92.48423312 -19.59762736 92.48423312 -23.51123047 103.5246582 C-22.04949096 107.09779921 -20.78302656 108.42857337 -17.38623047 110.2746582 C-13.94256977 110.91756223 -13.94256977 110.91756223 -10.38623047 109.2746582 C-7.27356515 106.25747341 -4.86665738 102.81812522 -2.38623047 99.2746582 C-1.55090754 98.11275779 -0.71494904 96.95131409 0.12158203 95.7902832 C0.95433257 94.61984376 1.78509418 93.44798643 2.61376953 92.2746582 C3.2110083 91.42919434 3.2110083 91.42919434 3.8203125 90.56665039 C5.96247244 87.68852338 5.96247244 87.68852338 6.61376953 84.2746582 C7.27376953 84.2746582 7.93376953 84.2746582 8.61376953 84.2746582 C8.83291016 84.9449707 9.05205078 85.6152832 9.27783203 86.3059082 C11.03042921 90.20056861 13.42934598 93.37331902 15.98876953 96.7746582 C16.47087891 97.42563477 16.95298828 98.07661133 17.44970703 98.74731445 C18.39308732 100.01626348 19.34237739 101.28084464 20.2980957 102.54052734 C21.46274884 104.07560458 22.60810425 105.62528105 23.75048828 107.17700195 C25.56524347 109.58489741 25.56524347 109.58489741 29.05126953 110.3371582 C32.63728205 110.54865912 32.63728205 110.54865912 35.48876953 108.7121582 C38.18484196 105.61960453 38.84736438 104.40150048 38.61376953 100.2746582 C34.61956805 92.86167558 28.77822135 86.56657038 23.20947266 80.31762695 C22.60167969 79.60735352 21.99388672 78.89708008 21.36767578 78.1652832 C20.53731812 77.22217285 20.53731812 77.22217285 19.69018555 76.26000977 C18.61376953 74.2746582 18.61376953 74.2746582 18.80053711 71.7199707 C19.97877977 68.17710715 22.28530983 65.75175901 24.73876953 63.0246582 C25.73839791 61.87312151 26.73709384 60.72077473 27.73486328 59.56762695 C28.69435604 58.469846 29.65398234 57.37218174 30.61376953 56.2746582 C35.61039231 50.76484538 35.61039231 50.76484538 38.30126953 44.0246582 C37.42492985 40.5192995 36.23676722 38.75587223 33.61376953 36.2746582 C31.22025458 35.11255601 31.22025458 35.11255601 28.61376953 35.2746582 C24.10063784 37.40731943 21.50035127 40.58153149 18.61376953 44.5246582 C18.1795166 45.10368896 17.74526367 45.68271973 17.29785156 46.27929688 C14.34265948 50.23415337 11.43864833 54.22566526 8.61376953 58.2746582 C5.13063548 57.11361352 4.63202724 56.27866869 2.58251953 53.3449707 C2.01919922 52.54961914 1.45587891 51.75426758 0.87548828 50.93481445 C0.0034375 49.67991211 0.0034375 49.67991211 -0.88623047 48.3996582 C-2.0400088 46.75469264 -3.19617126 45.11139611 -4.35498047 43.4699707 C-4.86480469 42.73794434 -5.37462891 42.00591797 -5.89990234 41.25170898 C-7.97606157 38.49008983 -9.48573857 36.60641838 -12.76123047 35.3996582 C-16.2051276 35.2356631 -17.66818798 36.21776118 -20.38623047 38.2746582 Z M120.95166016 39.08129883 C119.29172581 41.36238427 119.29172581 41.36238427 119.67626953 44.8996582 C120.28885403 48.52982744 120.28885403 48.52982744 123.61376953 50.2746582 C126.81630968 50.55194349 126.81630968 50.55194349 130.46923828 50.4699707 C131.46169304 50.46572586 131.46169304 50.46572586 132.47419739 50.46139526 C134.5834069 50.45021739 136.69218878 50.42511801 138.80126953 50.3996582 C140.23290402 50.38962527 141.66454517 50.38049997 143.09619141 50.37231445 C146.6021893 50.35028616 150.10793767 50.31577306 153.61376953 50.2746582 C147.07073558 59.72983795 140.35472727 69.0195967 133.36376953 78.1496582 C132.6812915 79.04531494 131.99881348 79.94097168 131.2956543 80.86376953 C128.49147203 84.53954502 125.68336809 88.20639101 122.78173828 91.8059082 C118.47311988 96.94312853 118.47311988 96.94312853 117.30126953 103.2746582 C118.95030734 107.04388749 119.85445686 107.63504715 123.61376953 109.2746582 C127.07353435 109.71170241 130.50519853 109.6950244 133.98876953 109.6730957 C134.99085449 109.67596588 135.99293945 109.67883606 137.02539062 109.68179321 C139.14014248 109.68383106 141.2549133 109.67832077 143.36962891 109.66577148 C146.60248044 109.64971427 149.83408178 109.66563008 153.06689453 109.68481445 C155.12418895 109.68283197 157.18148259 109.6789882 159.23876953 109.6730957 C160.68582275 109.68220474 160.68582275 109.68220474 162.16210938 109.6914978 C168.90654722 109.64907912 168.90654722 109.64907912 174.61376953 106.2746582 C175.86215334 102.86936825 175.86215334 102.86936825 175.61376953 99.2746582 C174.13656949 96.9387769 174.13656949 96.9387769 171.61376953 95.2746582 C168.13652059 94.63191867 168.13652059 94.63191867 164.22314453 94.6652832 C163.51853088 94.64874695 162.81391724 94.63221069 162.08795166 94.61517334 C159.84646851 94.56674681 157.6056634 94.54533633 155.36376953 94.5246582 C153.84029802 94.49649373 152.31685802 94.46656561 150.79345703 94.43481445 C147.06704197 94.36099228 143.34075573 94.31138352 139.61376953 94.2746582 C147.67729455 83.24267168 155.82465482 72.28569089 164.19384766 61.48291016 C171.05475672 53.20605781 171.05475672 53.20605781 175.17626953 43.5246582 C174.35359025 40.23394108 173.3933256 39.28016068 170.61376953 37.2746582 C167.10833807 36.66192342 163.63355135 36.71450763 160.08251953 36.7434082 C159.0544519 36.7395813 158.02638428 36.73575439 156.96716309 36.73181152 C154.79515605 36.72909147 152.6231163 36.73645915 150.45117188 36.75317383 C147.12572224 36.77458126 143.80243318 36.75337442 140.47705078 36.7277832 C138.36636893 36.73042646 136.25568842 36.7355514 134.14501953 36.7434082 C132.65270813 36.73126282 132.65270813 36.73126282 131.13024902 36.71887207 C125.71046842 36.74441111 125.71046842 36.74441111 120.95166016 39.08129883 Z M-53.38623047 94.2746582 C-54.99572466 97.49364659 -54.84093593 100.78412509 -54.38623047 104.2746582 C-53.13236041 107.36283552 -53.13236041 107.36283552 -50.38623047 109.2746582 C-46.06002413 110.57413436 -42.62929894 110.80362351 -38.44873047 109.0246582 C-35.1999086 106.26808208 -34.42484518 104.67367688 -34.01123047 100.3996582 C-34.10273086 96.25926565 -35.38116924 94.19133528 -38.38623047 91.2746582 C-44.10495155 88.41529766 -49.16393134 89.92441061 -53.38623047 94.2746582 Z " fill="#491D55" transform="translate(90.38623046875,0.725341796875)"/>
</svg>
