<?xml version="1.0" encoding="UTF-8"?>
<svg version="1.1" xmlns="http://www.w3.org/2000/svg" width="1920" height="634">
<path d="M0 0 C0.72380859 0.34401855 1.44761719 0.68803711 2.19335938 1.04248047 C17.85260721 8.61441162 32.09604717 18.36991695 44.52441406 30.55517578 C46.09378837 32.09183315 47.68325912 33.60599417 49.2734375 35.12109375 C81.78398505 66.4471999 99.46544755 110.16068826 100.9765625 155.01464844 C101.84525684 202.80834932 84.09456352 247.47364125 51.2109375 282.00390625 C18.66450906 315.62420162 -25.88378468 335.43682784 -72.85668945 336.24169922 C-100.43112271 336.33990082 -127.08776734 330.89291177 -152 319 C-152.72380859 318.65598145 -153.44761719 318.31196289 -154.19335938 317.95751953 C-170.32568721 310.1568335 -184.69220499 300.04427246 -197.47363281 287.49560547 C-199.00708855 285.99305431 -200.56039452 284.51347594 -202.1171875 283.03515625 C-233.40209387 252.98700298 -251.64666098 209.18916706 -253 166 C-253.03996094 165.03320312 -253.07992187 164.06640625 -253.12109375 163.0703125 C-254.08257519 118.6159354 -237.74434091 73.22097975 -206.8984375 40.9609375 C-206.43147461 40.48495117 -205.96451172 40.00896484 -205.48339844 39.51855469 C-203.87891008 37.87604028 -202.30348314 36.20803922 -200.7265625 34.5390625 C-149.69200444 -18.76418136 -65.91452287 -31.46709553 0 0 Z " fill="#292E42" transform="translate(978,141)"/>
<path d="M0 0 C5.14788989 4.66676647 9.81371793 9.21343647 14.16796875 14.65625 C14.49796875 -0.19375 14.82796875 -15.04375 15.16796875 -30.34375 C38.92796875 -30.34375 62.68796875 -30.34375 87.16796875 -30.34375 C87.21214147 13.18166843 87.24903822 56.70706555 87.27009941 100.23250001 C87.27260053 105.38262049 87.2751892 110.53274092 87.27783203 115.68286133 C87.27861896 117.22066783 87.27861896 117.22066783 87.27942179 118.78954113 C87.28810096 135.34313348 87.30385709 151.8967118 87.32227434 168.45029586 C87.34104287 185.4627524 87.3521001 202.47520163 87.35614574 219.4876681 C87.35887644 229.96721784 87.36746975 240.44672791 87.38380168 250.92626543 C87.39445461 258.13327911 87.3975508 265.34027257 87.3949715 272.54729354 C87.393703 276.69208815 87.39550896 280.83681393 87.4063797 284.98159599 C87.53946235 338.56245732 80.64831569 386.67510949 42.16796875 426.65625 C41.31525391 427.60371094 41.31525391 427.60371094 40.4453125 428.5703125 C18.38464586 452.38003455 -17.41660946 465.52114437 -48.83203125 469.65625 C-49.50500244 469.7505127 -50.17797363 469.84477539 -50.87133789 469.94189453 C-73.77341797 472.71564879 -99.25227605 472.18603867 -121.83203125 467.65625 C-123.33926758 467.35823486 -123.33926758 467.35823486 -124.87695312 467.05419922 C-156.10399266 460.67206545 -184.67076645 447.85885318 -207.83203125 425.65625 C-208.651875 424.89957031 -209.47171875 424.14289063 -210.31640625 423.36328125 C-230.8528614 403.81538217 -239.6069536 379.11925473 -243.83203125 351.65625 C-220.73203125 351.65625 -197.63203125 351.65625 -173.83203125 351.65625 C-171.19203125 356.93625 -168.55203125 362.21625 -165.83203125 367.65625 C-163.23286439 371.5350067 -160.77354593 375.08785514 -157.83203125 378.65625 C-157.32671875 379.275 -156.82140625 379.89375 -156.30078125 380.53125 C-140.86766131 397.5391781 -114.15420039 407.23053851 -91.83203125 408.65625 C-71.40806414 409.64357296 -51.42892423 408.98212554 -32.83203125 399.65625 C-31.49011719 399.02976562 -31.49011719 399.02976562 -30.12109375 398.390625 C-10.61613476 388.66608957 2.24013948 371.20843796 9.484375 350.98046875 C13.44260595 337.84965831 14.46294615 324.93501711 14.36328125 311.29296875 C14.3595401 309.7645537 14.35669836 308.23613622 14.35470581 306.7077179 C14.34715591 302.73101908 14.32758438 298.75447191 14.30529785 294.77783203 C14.28465052 290.70151825 14.27566417 286.62517939 14.265625 282.54882812 C14.24432812 274.58456668 14.21029999 266.62042733 14.16796875 258.65625 C13.36480225 259.53958008 12.56163574 260.42291016 11.73413086 261.33300781 C10.65884635 262.50860528 9.58339817 263.68405306 8.5078125 264.859375 C7.98102905 265.43961426 7.45424561 266.01985352 6.91149902 266.61767578 C-15.92383934 291.5161839 -50.15047147 308.14345085 -83.83203125 310.65625 C-89.10325346 310.84853405 -94.37050931 310.90191625 -99.64453125 310.90625 C-100.74959518 310.90726212 -100.74959518 310.90726212 -101.87698364 310.90829468 C-113.43387778 310.89149481 -124.55163618 310.31292162 -135.83203125 307.65625 C-136.5684082 307.48996094 -137.30478516 307.32367188 -138.06347656 307.15234375 C-149.95724616 304.39703033 -160.8790111 300.00154483 -171.83203125 294.65625 C-173.35763672 293.91568359 -173.35763672 293.91568359 -174.9140625 293.16015625 C-187.52786455 286.64087057 -198.31777103 277.80782891 -208.45996094 267.97705078 C-209.60981274 266.87016497 -210.78455203 265.78921185 -211.96484375 264.71484375 C-243.05376368 235.64215084 -258.475452 189.87012612 -259.95605469 148.16259766 C-260.03824221 144.2434703 -260.07860385 140.32609676 -260.08203125 136.40625 C-260.08270599 135.70615814 -260.08338074 135.00606628 -260.08407593 134.28475952 C-260.01024168 85.68733072 -243.47046003 40.29467878 -208.83203125 5.65625 C-205.30173505 2.4591971 -201.62960963 -0.47141829 -197.83203125 -3.34375 C-196.79691406 -4.14425781 -195.76179688 -4.94476563 -194.6953125 -5.76953125 C-138.45132334 -48.28879144 -53.27640853 -47.13067555 0 0 Z M-161.1796875 58.21875 C-182.97627772 83.94096967 -190.18931373 115.88653942 -187.51953125 148.90234375 C-185.08029977 174.47464778 -176.48301105 196.86761234 -159.83203125 216.65625 C-159.06890625 217.666875 -158.30578125 218.6775 -157.51953125 219.71875 C-142.1378378 236.53129865 -118.25766673 248.67988119 -95.27832031 249.77832031 C-66.11034437 250.6071262 -40.07358304 243.92574303 -18.15234375 223.9140625 C1.56367438 205.06368122 14.09486329 177.32635504 15.32910156 150.10205078 C15.37508707 145.9949036 15.41462847 141.88865928 15.41796875 137.78125 C15.41864349 137.0398175 15.41931824 136.29838501 15.42001343 135.53448486 C15.37080242 101.55497162 3.88266044 73.82765605 -19.875 49.5703125 C-36.30640172 33.97127072 -59.46478555 25.76251254 -81.83203125 24.65625 C-82.53199219 24.615 -83.23195313 24.57375 -83.953125 24.53125 C-113.0691723 23.65061341 -141.66584447 36.91911434 -161.1796875 58.21875 Z " fill="#292E42" transform="translate(1366.83203125,163.34375)"/>
<path d="M0 0 C27.30995121 25.3222016 40.81511697 59.81227602 42.9375 96.6875 C43.11963656 103.58857241 43.06411727 110.49441942 43.05102539 117.3972168 C43.05074297 119.48748269 43.05090232 121.57774869 43.0514679 123.66801453 C43.05175373 129.31595211 43.04589164 134.96386828 43.03889394 140.61180091 C43.03262472 146.52414321 43.03205378 152.43648606 43.03086853 158.34883118 C43.02776572 169.53283203 43.01956651 180.71682306 43.00951904 191.9008196 C42.99832526 204.63843683 42.99283923 217.37605454 42.98782361 230.11367548 C42.977383 256.30495701 42.9590506 282.49622509 42.9375 308.6875 C19.8375 308.6875 -3.2625 308.6875 -27.0625 308.6875 C-27.08437378 299.70341919 -27.08437378 299.70341919 -27.10668945 290.5378418 C-27.15711458 270.70867443 -27.22357564 250.87958449 -27.29821491 231.05049419 C-27.34306242 219.03277657 -27.38250223 207.01508785 -27.40893555 194.99731445 C-27.43200542 184.51508954 -27.46550283 174.03295695 -27.51120156 163.55080539 C-27.53501316 158.00744049 -27.55382061 152.46416634 -27.56011391 146.92075157 C-27.56621981 141.68814035 -27.586415 136.45576098 -27.61677551 131.22323608 C-27.62546845 129.3171278 -27.62929681 127.4109891 -27.62750816 125.50486183 C-27.60987718 98.01163048 -31.99749132 70.2213173 -52.0625 49.6875 C-69.17529682 34.68417536 -90.81206876 27.8857056 -113.42578125 28.5 C-137.57125186 30.21701124 -159.28728692 37.01172419 -175.75 55.75 C-188.50269882 72.198472 -194.19452763 92.76381677 -194.22071838 113.39416504 C-194.22565636 114.23404512 -194.23059434 115.0739252 -194.23568195 115.93925619 C-194.25095325 118.73359081 -194.25938924 121.52790265 -194.26782227 124.32226562 C-194.27740896 126.33327431 -194.2874195 128.34428101 -194.29782104 130.35528564 C-194.32479047 135.80090651 -194.34584302 141.24653597 -194.36582303 146.69218636 C-194.38773184 152.38835327 -194.41509653 158.08449394 -194.44187927 163.78063965 C-194.49174008 174.56097929 -194.53670338 185.34133355 -194.57990164 196.12170172 C-194.6293306 208.39736633 -194.68422771 220.67300458 -194.73958123 232.94864368 C-194.85329974 258.19490572 -194.95943897 283.44119205 -195.0625 308.6875 C-218.4925 308.6875 -241.9225 308.6875 -266.0625 308.6875 C-266.0625 197.8075 -266.0625 86.9275 -266.0625 -27.3125 C-242.6325 -27.3125 -219.2025 -27.3125 -195.0625 -27.3125 C-194.7325 -15.7625 -194.4025 -4.2125 -194.0625 7.6875 C-189.1125 2.7375 -189.1125 2.7375 -184.0625 -2.3125 C-133.40085187 -45.71858546 -49.78703538 -43.44769236 0 0 Z " fill="#2A2E42" transform="translate(388.0625,160.3125)"/>
<path d="M0 0 C0.79792969 0.64582031 1.59585937 1.29164063 2.41796875 1.95703125 C20.85650847 17.53934279 32.5504888 39.54573209 39.3125 62.375 C39.54291992 63.13893066 39.77333984 63.90286133 40.01074219 64.68994141 C44.62316471 81.30753121 45.43695568 98.1430062 45.34057617 115.28222656 C45.33972744 117.43293241 45.34020984 119.58363913 45.34190369 121.73434448 C45.34275545 127.50578184 45.32526411 133.27702761 45.30418181 139.04842091 C45.2852767 145.10484121 45.28365377 151.16126714 45.28010559 157.2177124 C45.27082542 168.65644559 45.24626681 180.09509155 45.21605712 191.53378654 C45.18238688 204.56905652 45.16599552 217.60433093 45.15097082 230.63963366 C45.11971315 257.42648176 45.06475212 284.21321047 45 311 C22.23 311 -0.54 311 -24 311 C-24.02505615 305.36365479 -24.0501123 299.72730957 -24.07592773 293.92016602 C-24.15953248 275.26448571 -24.24815477 256.60883171 -24.33933926 237.95318699 C-24.3944838 226.64612877 -24.44793366 215.3390674 -24.49731445 204.03198242 C-24.54038758 194.17021431 -24.58672144 184.30846766 -24.63687855 174.44673294 C-24.66329464 169.23097588 -24.68814059 164.01522257 -24.70907402 158.79944038 C-24.72888117 153.87716914 -24.75309074 148.95493805 -24.78049088 144.0327034 C-24.78973564 142.23862512 -24.797454 140.44453812 -24.80341911 138.65044594 C-24.7552555 116.67049138 -24.7552555 116.67049138 -27.625 94.9375 C-27.79539795 94.10806885 -27.9657959 93.2786377 -28.14135742 92.42407227 C-32.41792126 73.15277187 -42.75972474 55.20292075 -59.4375 44.1875 C-81.95402964 30.79079382 -108.76306656 27.56861612 -134.15234375 34.00390625 C-152.72599652 39.14527998 -169.10707646 49.81643001 -178.99951172 66.70654297 C-190.74953883 87.60089731 -192.29279673 109.62819541 -192.31884766 133.10571289 C-192.32817104 135.05893864 -192.33834318 137.01216048 -192.34928894 138.96537781 C-192.37633168 144.21212946 -192.39166103 149.45885466 -192.40471697 154.70565724 C-192.42046147 160.20959929 -192.44721492 165.7134882 -192.4727478 171.21739197 C-192.51933681 181.61493364 -192.55617646 192.01248554 -192.58942068 202.41007751 C-192.62778342 214.25792148 -192.67715601 226.10571181 -192.72740483 237.9535104 C-192.83042869 262.3023054 -192.91833135 286.65112336 -193 311 C-216.1 311 -239.2 311 -263 311 C-263 200.12 -263 89.24 -263 -25 C-239.9 -25 -216.8 -25 -193 -25 C-192.505 -7.18 -192.505 -7.18 -192 11 C-189.999375 8.89625 -187.99875 6.7925 -185.9375 4.625 C-138.35860639 -43.70055943 -50.86121673 -41.96992255 0 0 Z " fill="#292E42" transform="translate(1754,158)"/>
<path d="M0 0 C1.51854958 0.0002825 3.0370993 0.00012291 4.5556488 -0.0004425 C8.65417082 -0.00072802 12.75266324 0.0051289 16.85117841 0.01213145 C21.14329199 0.01840598 25.43540634 0.01897202 29.7275238 0.02015686 C37.84457029 0.02325813 45.96160321 0.03145521 54.07864374 0.04150635 C63.32414022 0.05270498 72.56963736 0.05818737 81.81513894 0.06320179 C100.82395121 0.07363888 119.83275088 0.0912149 138.84155273 0.11352539 C135.72064239 3.30076708 132.49049572 5.95361712 128.90405273 8.61352539 C118.98748736 16.11113994 109.68117676 24.43700201 101.84155273 34.11352539 C100.90674007 35.23599049 99.97183536 36.35837894 99.03686523 37.48071289 C97.99143075 38.75319526 96.94717065 40.02664332 95.90405273 41.30102539 C95.42572998 41.8763501 94.94740723 42.4516748 94.45458984 43.04443359 C93.97513916 43.63828857 93.49568848 44.23214355 93.00170898 44.84399414 C92.51193069 45.44779907 92.0221524 46.051604 91.51753235 46.67370605 C89.70620754 49.14029602 89.70620754 49.14029602 88.46368408 52.3256073 C84.38429954 61.1166895 84.38429954 61.1166895 79.96203423 62.85035515 C74.19803106 64.01675032 68.32308492 63.67408243 62.47827148 63.49633789 C60.56226097 63.48689085 58.64621082 63.48365389 56.73017883 63.48629761 C51.68713267 63.47867904 46.64819187 63.39614536 41.60626221 63.29486084 C33.57998333 63.14792121 25.55209707 63.12401745 17.52472878 63.08291245 C14.75112539 63.05955663 11.97910467 63.0100048 9.20597839 62.95462036 C-22.58637355 62.46142959 -50.82292821 71.71840204 -74.08422852 93.84790039 C-94.50879521 114.76358114 -103.87356652 142.18872098 -103.56079102 171.04443359 C-102.7780381 199.92401355 -90.44902402 226.32330177 -69.45141602 246.22680664 C-48.04535556 265.56277361 -21.234553 272.61563159 6.99731636 272.02113724 C12.13701719 271.92424418 17.27730003 271.89952224 22.41772461 271.86352539 C28.9256573 271.81581574 35.4307027 271.74624915 41.93701172 271.58911133 C47.22972624 271.46319995 52.51809205 271.41624782 57.81223869 271.42118454 C59.81590523 271.40890008 61.81962116 271.36828704 63.82208443 271.29777908 C79.01955017 270.78365103 79.01955017 270.78365103 83.73127365 274.67369843 C87.09349379 278.46987026 89.49321132 282.67671932 91.78587151 287.17679977 C101.31324607 304.65547599 119.96029805 319.81596547 135.76220703 331.31860352 C137.47001201 332.56367398 139.15797442 333.83588601 140.84155273 335.11352539 C140.84155273 335.44352539 140.84155273 335.77352539 140.84155273 336.11352539 C121.5948656 336.16043146 102.34819021 336.19560481 83.1014576 336.21714973 C74.16307784 336.22742327 65.22473378 336.24140774 56.28637695 336.2644043 C48.48761401 336.2844592 40.68887694 336.29727026 32.89008892 336.30170238 C28.76805404 336.30428947 24.64609314 336.31028643 20.52408218 336.3249855 C-19.46378087 336.46202756 -19.46378087 336.46202756 -37.47094727 331.98852539 C-38.33429688 331.77679688 -39.19764648 331.56506836 -40.0871582 331.34692383 C-73.2576942 322.81735743 -105.48188843 303.94459503 -127.15844727 277.11352539 C-127.9409082 276.14543945 -128.72336914 275.17735352 -129.52954102 274.17993164 C-139.12643086 262.10541337 -146.65480843 249.0692504 -153.15844727 235.11352539 C-153.69469727 233.96754883 -154.23094727 232.82157227 -154.78344727 231.64086914 C-171.57392125 192.85662325 -171.13004403 146.67057895 -156.33422852 107.37133789 C-150.29707371 92.27128766 -142.34549843 77.80591253 -132.15844727 65.11352539 C-131.72177734 64.5655127 -131.28510742 64.0175 -130.83520508 63.45288086 C-102.95273039 28.77543304 -64.41308473 6.79784511 -20.33070374 0.57301331 C-13.5716863 -0.15029241 -6.78891895 -0.0177721 0 0 Z " fill="#292F42" transform="translate(626.158447265625,132.886474609375)"/>
<path d="M0 0 C23.43 0 46.86 0 71 0 C71 110.88 71 221.76 71 336 C47.57 336 24.14 336 0 336 C0 225.12 0 114.24 0 0 Z " fill="#292E42" transform="translate(1836,133)"/>
<path d="M0 0 C23.1 0 46.2 0 70 0 C70 110.88 70 221.76 70 336 C46.9 336 23.8 336 0 336 C0 225.12 0 114.24 0 0 Z " fill="#2A2F43" transform="translate(15,133)"/>
<path d="M0 0 C11.6080266 7.70178332 17.7252769 18.11313292 20.9296875 31.46484375 C22.05547353 44.4113831 19.75105599 55.59859565 12.1796875 66.33984375 C11.5609375 67.24734375 10.9421875 68.15484375 10.3046875 69.08984375 C2.6799917 77.16305107 -7.79715864 83.08250554 -19.01953125 83.67578125 C-33.49020168 83.9703496 -44.82070514 81.42704128 -55.8203125 71.33984375 C-64.97608579 61.04536924 -69.20270278 50.0414263 -69.03515625 36.33984375 C-68.0993774 23.27296812 -62.52336103 12.10131356 -52.8203125 3.33984375 C-37.06961333 -7.65632256 -16.86709938 -9.92869423 0 0 Z " fill="#292F42" transform="translate(1895.8203125,5.66015625)"/>
<path d="M0 0 C9.79467841 6.99119264 16.85004454 16.97644563 19.03125 28.91015625 C20.65698777 42.79666634 17.96086682 55.01870974 9.8203125 66.3984375 C3.27031186 74.57810337 -6.23932964 80.76617079 -16.6875 82.3125 C-31.86831694 83.56670089 -44.04433327 81.16412526 -56.10546875 71.34375 C-65.17283115 62.95985713 -69.95153284 52.62037632 -70.6875 40.3125 C-70.80244209 26.61797139 -66.90316479 15.53491809 -57.6875 5.3125 C-41.52494137 -9.48455828 -18.566498 -11.27812653 0 0 Z " fill="#292E42" transform="translate(75.6875,6.6875)"/>
</svg>
