<?xml version="1.0" encoding="UTF-8"?>
<svg version="1.1" xmlns="http://www.w3.org/2000/svg" width="2137" height="655">
<path d="M0 0 C1.26360352 0.27287842 1.26360352 0.27287842 2.55273438 0.55126953 C21.5604574 4.76808992 39.90803961 11.71639434 57 21 C57.66193359 21.35175293 58.32386719 21.70350586 59.00585938 22.06591797 C73.44197427 29.75021358 86.24595124 38.94802 98.53320312 49.71679688 C99.87290664 50.88881447 101.22490646 52.04673825 102.578125 53.203125 C143.83205761 89.13396953 168.82803115 143.00258142 173.8190918 197.08569336 C174.23458095 203.77893758 174.24488984 210.48357665 174.25 217.1875 C174.25067474 217.98479523 174.25134949 218.78209045 174.25204468 219.60354614 C174.23419754 232.9270154 173.53046891 245.88689095 171 259 C170.83371094 259.86512207 170.66742188 260.73024414 170.49609375 261.62158203 C166.63129955 280.91334643 160.40484344 299.74995327 151.02978516 317.06982422 C149.95571836 319.0829992 148.93365428 321.11695839 147.91796875 323.16015625 C132.74141314 353.3473657 108.60802509 379.7182047 81 399 C80.34660645 399.46083984 79.69321289 399.92167969 79.02001953 400.39648438 C56.75551667 416 56.75551667 416 51 416 C51.03480469 414.74509766 51.03480469 414.74509766 51.0703125 413.46484375 C51.55178416 382.40992158 41.10269437 356.92184937 19.72265625 334.625 C15.14941811 329.72923693 12.13985736 326.02487531 11.9453125 319.03515625 C12.25314735 313.68909099 14.29080955 309.84019938 18 306 C20.65761877 303.75322084 23.37915834 301.59739269 26.1015625 299.4296875 C46.69893176 282.16342917 59.18369526 255.51309105 62 229 C63.933437 194.55554749 54.49463153 165.51842962 31.85546875 139.5390625 C13.10049556 119.70541738 -14.25801925 107.78995126 -41.34765625 106.6796875 C-74.54948035 105.86661046 -101.97331634 115.75573756 -126.56640625 138.578125 C-146.19946978 158.11664729 -158.17697938 184.99799356 -158.25 212.75 C-158.24006469 240.16749143 -150.78984495 267.28299146 -132 288 C-131.31550781 288.81339844 -130.63101563 289.62679688 -129.92578125 290.46484375 C-124.96455914 296.24551368 -119.64503688 300.89711027 -113.6015625 305.48046875 C-109.53926031 309.41468033 -108.17914693 313.38767763 -107.5625 318.9375 C-108.0016851 326.85797615 -112.14857402 331.33231157 -117.625 336.5625 C-136.61645146 354.78964362 -145.48275001 380.04120109 -146.5625 405.9375 C-146.62727539 407.3925293 -146.62727539 407.3925293 -146.69335938 408.87695312 C-146.79862093 411.25118601 -146.90075707 413.62550921 -147 416 C-156.18203536 411.65347439 -164.70522252 406.91849584 -173 401 C-173.95261719 400.32324219 -174.90523438 399.64648438 -175.88671875 398.94921875 C-194.55655887 385.3145024 -211.15017239 369.50523185 -225 351 C-225.57105469 350.27425781 -226.14210937 349.54851562 -226.73046875 348.80078125 C-258.05126574 308.74710789 -269.19890599 258.85854021 -269.11352539 209.15722656 C-269.11324298 206.85006715 -269.11340231 204.54290765 -269.1139679 202.23574829 C-269.11425376 196.0011126 -269.1083912 189.76649632 -269.10139394 183.53186512 C-269.0951252 177.00559908 -269.09455382 170.47933255 -269.09336853 163.95306396 C-269.09078421 153.00841945 -269.08437962 142.06378169 -269.07543945 131.11914062 C-269.06624513 119.85156285 -269.05918568 108.58398702 -269.05493164 97.31640625 C-269.05466364 96.61352651 -269.05439565 95.91064677 -269.05411953 95.18646765 C-269.05180634 89.07138161 -269.0496537 82.95629551 -269.04751682 76.84120941 C-269.03812557 50.56079961 -269.01819973 24.28040859 -269 -2 C-232.7 -2 -196.4 -2 -159 -2 C-158.505 10.375 -158.505 10.375 -158 23 C-154.65875 21.2675 -154.65875 21.2675 -151.25 19.5 C-105.29599229 -3.61050793 -50.43100792 -11.25725177 0 0 Z " fill="#6733FE" transform="translate(282,167)"/>
<path d="M0 0 C36.3 0 72.6 0 110 0 C109.98839844 14.61539063 109.97679688 29.23078125 109.96484375 44.2890625 C109.95973111 53.5768231 109.95487538 62.86458266 109.95117188 72.15234375 C109.94525284 86.87744497 109.93831845 101.60254045 109.92456055 116.32763672 C109.91454278 127.05484598 109.90812981 137.78205054 109.90591151 148.50926435 C109.90461636 154.18070836 109.90160726 159.85213896 109.89426994 165.52357864 C109.88739738 170.88003523 109.88540547 176.23647308 109.88689232 181.59293365 C109.88662097 183.54133837 109.88468336 185.48974383 109.88079453 187.43814468 C109.86162702 197.55206961 109.99451329 207.64256224 110.42897034 217.74813843 C110.46567115 218.63587814 110.50237196 219.52361785 110.54018492 220.43825877 C111.7473458 245.76430935 119.72265718 270.95062202 137 290 C137.68449219 290.81339844 138.36898437 291.62679688 139.07421875 292.46484375 C144.03544086 298.24551368 149.35496312 302.89711027 155.3984375 307.48046875 C159.46073969 311.41468033 160.82085307 315.38767763 161.4375 320.9375 C160.9983149 328.85797615 156.85142598 333.33231157 151.375 338.5625 C132.38354854 356.78964362 123.51724999 382.04120109 122.4375 407.9375 C122.37272461 409.3925293 122.37272461 409.3925293 122.30664062 410.87695312 C122.20137907 413.25118601 122.09924293 415.62550921 122 418 C112.81796464 413.65347439 104.29477748 408.91849584 96 403 C95.04738281 402.32324219 94.09476562 401.64648438 93.11328125 400.94921875 C74.44344113 387.3145024 57.84982761 371.50523185 44 353 C43.42894531 352.27425781 42.85789063 351.54851562 42.26953125 350.80078125 C10.94873426 310.74710789 -0.19890599 260.85854021 -0.11352539 211.15722656 C-0.11324298 208.85006715 -0.11340231 206.54290765 -0.1139679 204.23574829 C-0.11425376 198.0011126 -0.1083912 191.76649632 -0.10139394 185.53186512 C-0.0951252 179.00559908 -0.09455382 172.47933255 -0.09336853 165.95306396 C-0.09078421 155.00841945 -0.08437962 144.06378169 -0.07543945 133.11914062 C-0.06624513 121.85156285 -0.05918568 110.58398702 -0.05493164 99.31640625 C-0.05466364 98.61352651 -0.05439565 97.91064677 -0.05411953 97.18646765 C-0.05180634 91.07138161 -0.0496537 84.95629551 -0.04751682 78.84120941 C-0.03812557 52.56079961 -0.01819973 26.28040859 0 0 Z " fill="#7E55F7" transform="translate(13,165)"/>
<path d="M0 0 C16.5 0 33 0 50 0 C58.90184144 27.09704051 67.77873633 54.19916688 76.4375 81.375 C82.46859522 100.30371393 88.63760911 119.17998199 95 138 C97.62640406 131.60695507 100.02749022 125.18816563 102.1796875 118.62109375 C102.61325813 117.31203568 102.61325813 117.31203568 103.05558777 115.97653198 C103.67527925 114.10509815 104.29369093 112.23324012 104.91091919 110.36099243 C106.57533554 105.31379249 108.25040713 100.27013384 109.92578125 95.2265625 C110.4380854 93.68374352 110.4380854 93.68374352 110.96073914 92.10975647 C114.27052764 82.1575415 117.65835669 72.23275794 121.0625 62.3125 C128.17200771 41.58440767 135.09145647 20.79612594 142 0 C157.18 0 172.36 0 188 0 C189.06476563 3.20589844 190.12953125 6.41179687 191.2265625 9.71484375 C198.39331698 31.27493346 205.58601437 52.8242355 212.96206665 74.3137207 C218.50882305 90.4786806 223.91823176 106.68823323 229.29150391 122.91162109 C229.75354973 124.30410316 229.75354973 124.30410316 230.22492981 125.72471619 C230.80363996 127.46903739 231.38108627 129.21377857 231.95707703 130.95899963 C233.28637377 135.05621261 233.28637377 135.05621261 235 139 C237.52178737 131.5665737 240.04313956 124.13299995 242.5639677 116.69924831 C243.73506663 113.24579958 244.90630382 109.79239789 246.07788086 106.33911133 C247.21292461 102.99349056 248.34757406 99.64773629 249.48197365 96.30189705 C250.11578726 94.43281944 250.74998756 92.56387298 251.38420105 90.69493103 C252.59235875 87.13092284 253.79718359 83.56581425 255 80 C255.220847 79.34632761 255.44169399 78.69265522 255.66923332 78.01917458 C256.34669306 76.01180155 257.02157152 74.00357729 257.69580078 71.99511719 C258.29595505 70.21086334 258.29595505 70.21086334 258.90823364 68.39056396 C260.56298529 63.25160611 261.90909605 58.05570744 263.1875 52.8125 C263.43435547 51.83603516 263.68121094 50.85957031 263.93554688 49.85351562 C266.95160165 37.66865432 268.28791988 26.3193407 268.125 13.75 C268.063125 6.94375 268.063125 6.94375 268 0 C282.85 0 297.7 0 313 0 C327.427468 43.28240399 291.46160565 107.01729825 276.45727539 146.82330322 C272.41633664 157.54380889 268.39553577 168.27182995 264.375 179 C262.27125 184.61 260.1675 190.22 258 196 C242.82 196 227.64 196 212 196 C196.49 149.47 180.98 102.94 165 55 C154.12269244 86.78786357 154.12269244 86.78786357 143.43887901 118.63876343 C142.3934059 121.7934117 141.3453758 124.9472021 140.29682922 128.10083008 C137.32974045 137.02591741 134.3666295 145.95232259 131.40551758 154.87939453 C129.56343452 160.43229308 127.71848958 165.98423389 125.87174416 171.5355835 C125.17644162 173.62769078 124.4822772 175.72017667 123.78928185 177.81304932 C122.83575613 180.69267214 121.87863433 183.57107528 120.9206543 186.44921875 C120.63766983 187.30693375 120.35468536 188.16464874 120.06312561 189.0483551 C118.11395493 194.88604507 118.11395493 194.88604507 117 196 C115.58774954 196.0928726 114.17091066 196.11746772 112.75561523 196.11352539 C111.40432777 196.11341209 111.40432777 196.11341209 110.02574158 196.11329651 C109.04658279 196.10813522 108.06742401 196.10297394 107.05859375 196.09765625 C106.06118668 196.0962413 105.0637796 196.09482635 104.03614807 196.09336853 C100.83656876 196.08775114 97.63705831 196.07519571 94.4375 196.0625 C92.27408955 196.05748724 90.11067801 196.05292395 87.94726562 196.04882812 C82.63148675 196.03777607 77.31574829 196.02102104 72 196 C67.41647479 185.42418963 63.47120967 174.62876085 59.5 163.8125 C58.75870196 161.79939136 58.01715893 159.78637291 57.27539062 157.7734375 C55.68480381 153.45575256 54.09572332 149.13751745 52.5078125 144.81884766 C49.94562004 137.85081454 47.37945017 130.88425036 44.8125 123.91796875 C44.37679184 122.73547546 43.94108368 121.55298218 43.49217224 120.33465576 C42.60643447 117.93080298 41.72068717 115.5269537 40.83493042 113.12310791 C39.49662174 109.49083113 38.15855137 105.85846666 36.82055664 102.22607422 C31.552017 87.92326407 26.2826321 73.62076678 21.00265503 59.32217407 C20.29795887 57.41370189 19.59346752 55.50515406 18.88919067 53.5965271 C15.38502809 44.10166782 11.86482745 34.61364503 8.28125 25.1484375 C7.99278702 24.38525711 7.70432404 23.62207672 7.40711975 22.83576965 C6.07798942 19.32018372 4.74421094 15.8065349 3.40014648 12.29663086 C2.72060913 10.5043103 2.72060913 10.5043103 2.02734375 8.67578125 C1.63281006 7.64364502 1.23827637 6.61150879 0.83178711 5.5480957 C0 3 0 3 0 0 Z " fill="#0A1230" transform="translate(1823,98)"/>
<path d="M0 0 C16.37153235 13.58117796 26.93666503 30.8160301 32.83764648 51.05639648 C33.17795898 52.17530273 33.51827148 53.29420898 33.86889648 54.44702148 C37.11828108 67.38438607 36.67928152 81.80191988 35.83764648 95.05639648 C34.83764648 96.05639648 34.83764648 96.05639648 32.20020199 96.17944431 C31.01385442 96.17852252 29.82750685 96.17760073 28.60520935 96.176651 C27.946903 96.17750543 27.28859664 96.17835985 26.61034161 96.17924017 C24.38847542 96.18089679 22.16668353 96.17537066 19.94482422 96.16992188 C18.35849001 96.16964002 16.77215567 96.16979771 15.18582153 96.17036438 C10.86575927 96.17065241 6.54572452 96.16475486 2.22566867 96.15779042 C-2.28403666 96.15155773 -6.79374256 96.15095315 -11.30345154 96.14976501 C-19.84929726 96.14665145 -28.39513025 96.13843772 -36.94097036 96.12841552 C-46.66752985 96.11725517 -56.39408993 96.11174413 -66.12065423 96.10672009 C-86.1345611 96.09625513 -106.14845651 96.0786552 -126.16235352 96.05639648 C-125.21142719 98.47378654 -124.25682434 100.88961331 -123.30004883 103.3046875 C-123.03233673 103.98637245 -122.76462463 104.6680574 -122.48880005 105.37039948 C-116.58123127 120.24624446 -106.57531154 130.06143962 -92.15063477 136.80639648 C-75.36947832 143.82596519 -57.16808479 143.3932648 -40.14672852 137.31420898 C-31.1589987 133.52618673 -22.13867887 128.48034132 -16.87712097 119.9800415 C-15.16235352 118.05639648 -15.16235352 118.05639648 -12.94136047 117.57537842 C-12.07754257 117.58426086 -11.21372467 117.59314331 -10.32373047 117.60229492 C-9.34294022 117.60259705 -8.36214996 117.60289917 -7.35163879 117.60321045 C-5.7671418 117.63417816 -5.7671418 117.63417816 -4.15063477 117.66577148 C-3.06727341 117.67143127 -1.98391205 117.67709106 -0.86772156 117.68292236 C2.59701478 117.70533683 6.06072202 117.75554431 9.52514648 117.80639648 C11.87213677 117.82645485 14.21914325 117.84470677 16.56616211 117.86108398 C22.32367548 117.90521818 28.08058747 117.97218107 33.83764648 118.05639648 C26.25566099 141.27921994 7.47793474 159.76835094 -13.95751953 170.70654297 C-42.62883004 184.63695519 -74.39899207 186.27321798 -104.72485352 176.96264648 C-117.45015035 172.34660744 -128.94920159 165.93412707 -139.16235352 157.05639648 C-139.74887695 156.61295898 -140.33540039 156.16952148 -140.93969727 155.71264648 C-159.21765509 141.60636374 -169.25031112 117.3426429 -172.76318359 95.20410156 C-176.36143268 66.82965172 -170.19341846 39.25974803 -153.10766602 16.29467773 C-135.55998211 -6.09266989 -112.41163619 -17.62166199 -84.89672852 -22.52563477 C-54.26234896 -25.95437808 -24.27895338 -19.3282269 0 0 Z M-112.16235352 34.05639648 C-117.89027718 40.95552498 -126.16235352 51.68529207 -126.16235352 61.05639648 C-88.21235352 61.05639648 -50.26235352 61.05639648 -11.16235352 61.05639648 C-16.33282929 43.82147723 -24.14451457 31.81743911 -40.16235352 23.05639648 C-64.13583068 12.00753373 -93.04983807 14.94388104 -112.16235352 34.05639648 Z " fill="#0A1230" transform="translate(1789.162353515625,116.943603515625)"/>
<path d="M0 0 C17.3899717 15.90411969 28.50019477 33.35015925 34.46875 56.2578125 C34.83806641 57.65773437 34.83806641 57.65773437 35.21484375 59.0859375 C37.60261639 70.34963738 38.26980931 85.05357526 35.46875 96.2578125 C-17.66125 96.5878125 -70.79125 96.9178125 -125.53125 97.2578125 C-118.50960243 115.51409619 -110.80227637 128.92054804 -92.53125 137.2578125 C-85.36241905 139.81365658 -78.13331949 141.74241796 -70.53125 142.2578125 C-69.89832031 142.309375 -69.26539063 142.3609375 -68.61328125 142.4140625 C-52.76727217 143.12757886 -35.4642444 137.72663581 -23.53125 127.2578125 C-23.00509094 126.54631546 -22.47893188 125.83481842 -21.93682861 125.10176086 C-17.09834153 118.7360988 -17.09834153 118.7360988 -12.92401123 117.46206665 C-9.92205886 117.21969921 -7.03986164 117.24329116 -4.03125 117.37890625 C-2.41682007 117.39800804 -2.41682007 117.39800804 -0.76977539 117.41749573 C2.64542376 117.46761249 6.05517614 117.58046734 9.46875 117.6953125 C11.79289163 117.74048705 14.11711714 117.78154641 16.44140625 117.81835938 C22.11902486 117.91723071 27.79349836 118.06754123 33.46875 118.2578125 C33.01185437 119.68578848 32.54993017 121.11215606 32.0859375 122.5378418 C31.82925293 123.33232224 31.57256836 124.12680267 31.30810547 124.94535828 C23.26879404 147.09394772 0.37576137 163.79457859 -19.78515625 173.62109375 C-48.01713949 186.39537476 -80.51221818 185.79211783 -109.24780273 175.24194336 C-133.91800554 165.75194722 -152.59092235 147.62150162 -164.05859375 124.12890625 C-175.32766586 98.40527963 -176.52247509 67.33981185 -166.67041016 40.95214844 C-156.67145389 15.81656081 -137.910622 -3.11059449 -113.45361328 -14.39819336 C-77.45365669 -29.89154958 -30.36571259 -25.8108557 0 0 Z M-113.53125 36.2578125 C-118.8824443 43.0372285 -125.53125 52.20155898 -125.53125 61.2578125 C-87.58125 61.2578125 -49.63125 61.2578125 -10.53125 61.2578125 C-15.30814552 45.33482742 -22.95878161 32.84326958 -37.8125 24.5703125 C-63.49686939 12.17096176 -93.49525413 14.23534183 -113.53125 36.2578125 Z " fill="#0A1230" transform="translate(1144.53125,116.7421875)"/>
<path d="M0 0 C11.22 0 22.44 0 34 0 C34.00586624 2.62565918 34.01173248 5.25131836 34.01777649 7.95654297 C34.07442268 32.67723991 34.14749179 57.39784926 34.23571491 82.11845398 C34.28067792 94.82814708 34.32009149 107.53781213 34.34643555 120.24755859 C34.36941145 131.32553827 34.40280506 142.4034292 34.44870156 153.4813385 C34.47263912 159.34684567 34.49136447 165.21226492 34.49761391 171.07781982 C34.50366225 176.60012729 34.52365344 182.12220979 34.55427551 187.64443398 C34.56305968 189.66965485 34.56677754 191.69490512 34.56500816 193.72014427 C34.56335277 196.48955133 34.58007755 199.25827475 34.60127258 202.02758789 C34.59642501 202.82527525 34.59157743 203.62296261 34.58658296 204.44482231 C34.67008358 211.07543812 36.00039988 216.56805391 40.3125 221.8125 C45.35362716 225.06776999 45.35362716 225.06776999 58 227 C58 237.56 58 248.12 58 259 C26.01220132 259.61514997 26.01220132 259.61514997 13.3125 248.6875 C2.37340619 235.97449909 2.37340619 235.97449909 1.8125 227 C1.874375 226.34 1.93625 225.68 2 225 C1.34 225 0.68 225 0 225 C-0.39638672 225.87205078 -0.39638672 225.87205078 -0.80078125 226.76171875 C-2.90034719 230.68045258 -6.01063144 233.73998902 -9 237 C-9.50273438 237.58007812 -10.00546875 238.16015625 -10.5234375 238.7578125 C-26.10287269 255.76074938 -50.64534784 263.01804912 -73 264 C-100.30787881 264.51600875 -124.26151173 254.84128426 -144 236 C-144.61359375 235.46117187 -145.2271875 234.92234375 -145.859375 234.3671875 C-163.05754806 218.66793778 -171.95601723 192.34082553 -173.12109375 169.640625 C-174.20697447 141.32085578 -167.71704373 112.35722259 -148 91 C-146.67548828 89.53820312 -146.67548828 89.53820312 -145.32421875 88.046875 C-128.93607501 70.50572705 -105.79232365 59.58982021 -81.69921875 58.76171875 C-55.06798986 58.27207636 -31.86507834 64.37191828 -11.984375 82.9609375 C-8.17814348 86.83691672 -4.60906832 90.93979814 -1 95 C-0.505 47.975 -0.505 47.975 0 0 Z M-113 106 C-113.63550781 106.44859375 -114.27101563 106.8971875 -114.92578125 107.359375 C-126.74477132 116.59720632 -134.58452107 131.57347521 -137.52734375 146.09375 C-139.94264457 166.05491383 -138.3687083 187.10322134 -125.71923828 203.67822266 C-122.68579231 207.33585224 -119.39617635 210.68019943 -116 214 C-115.43925781 214.59296875 -114.87851563 215.1859375 -114.30078125 215.796875 C-101.44157248 228.35232293 -82.90156872 231.49323935 -65.78515625 231.34765625 C-48.07328672 230.92752451 -32.16442705 224.53377912 -19.6171875 211.84765625 C-5.17873938 196.1377627 1.01367414 177.98551499 0.33984375 156.80859375 C-0.69360513 138.50441202 -7.85904013 122.78959731 -21 110 C-21.58910156 109.37867188 -22.17820312 108.75734375 -22.78515625 108.1171875 C-35.27020492 95.87909584 -53.75510711 90.98906752 -70.75634766 90.9296875 C-86.48106015 91.42247501 -100.22472689 96.98216016 -113 106 Z " fill="#0A1230" transform="translate(1374,319)"/>
<path d="M0 0 C11.22 0 22.44 0 34 0 C34.00586624 2.62565918 34.01173248 5.25131836 34.01777649 7.95654297 C34.07442268 32.67723991 34.14749179 57.39784926 34.23571491 82.11845398 C34.28067792 94.82814708 34.32009149 107.53781213 34.34643555 120.24755859 C34.36941145 131.32553827 34.40280506 142.4034292 34.44870156 153.4813385 C34.47263912 159.34684567 34.49136447 165.21226492 34.49761391 171.07781982 C34.50366225 176.60012729 34.52365344 182.12220979 34.55427551 187.64443398 C34.56305968 189.66965485 34.56677754 191.69490512 34.56500816 193.72014427 C34.56335277 196.48955133 34.58007755 199.25827475 34.60127258 202.02758789 C34.59642501 202.82527525 34.59157743 203.62296261 34.58658296 204.44482231 C34.67008358 211.07543812 36.00039988 216.56805391 40.3125 221.8125 C45.35362716 225.06776999 45.35362716 225.06776999 58 227 C58 237.56 58 248.12 58 259 C26.01220132 259.61514997 26.01220132 259.61514997 13.3125 248.6875 C2.37340619 235.97449909 2.37340619 235.97449909 1.8125 227 C1.874375 226.34 1.93625 225.68 2 225 C1.34 225 0.68 225 0 225 C-0.39638672 225.87205078 -0.39638672 225.87205078 -0.80078125 226.76171875 C-2.90034719 230.68045258 -6.01063144 233.73998902 -9 237 C-9.50273438 237.58007812 -10.00546875 238.16015625 -10.5234375 238.7578125 C-26.10287269 255.76074938 -50.64534784 263.01804912 -73 264 C-98.71337715 264.4858791 -123.10646407 255.8815048 -141.8359375 238.09765625 C-142.90714844 237.05931641 -142.90714844 237.05931641 -144 236 C-144.91652344 235.19369141 -144.91652344 235.19369141 -145.8515625 234.37109375 C-162.9503408 218.79480941 -171.94219968 191.99942309 -173.12548828 169.62744141 C-174.20634719 141.31328307 -167.71222932 112.35200768 -148 91 C-146.67548828 89.53820312 -146.67548828 89.53820312 -145.32421875 88.046875 C-128.93607501 70.50572705 -105.79232365 59.58982021 -81.69921875 58.76171875 C-55.06798986 58.27207636 -31.86507834 64.37191828 -11.984375 82.9609375 C-8.17814348 86.83691672 -4.60906832 90.93979814 -1 95 C-0.505 47.975 -0.505 47.975 0 0 Z M-118.875 111.25 C-132.68411479 125.9848655 -138.78072555 145.28788317 -138.28125 165.24609375 C-136.81486587 184.81824859 -129.40347601 201.38952962 -115.0625 214.875 C-98.14972196 229.24567337 -78.62190966 232.33551478 -57 231 C-40.76513632 229.01997262 -25.46265507 219.77345646 -14.875 207.5 C-7.39966499 197.64408163 -2.12021511 186.19123688 0 174 C0.12890625 173.27425781 0.2578125 172.54851562 0.390625 171.80078125 C3.15372598 153.29527597 -1.92305782 134.56661963 -12 119 C-23.6333514 103.6651277 -39.34300383 94.63754914 -58.4375 91.6875 C-80.84992233 88.80325675 -102.41128344 95.88762983 -118.875 111.25 Z " fill="#0A1230" transform="translate(1143,319)"/>
<path d="M0 0 C11.22 0 22.44 0 34 0 C34.33 31.35 34.66 62.7 35 95 C38.96 90.05 38.96 90.05 43 85 C63.20598313 65.52673034 87.51629333 58.5069648 114.953125 58.78125 C122.24594577 58.96232562 128.95810234 60.02555697 136 62 C137.04027344 62.29003906 138.08054687 62.58007812 139.15234375 62.87890625 C163.76534154 70.44969965 183.23481462 87.35600698 195.2878418 109.87329102 C209.06314706 136.78387664 211.17771826 168.6253655 202.10180664 197.40869141 C193.45629019 223.02869346 176.12628993 243.22994811 151.8984375 255.24609375 C129.21764352 265.84078937 102.30720951 267.29300339 78.4453125 259.8984375 C67.48606962 255.90153716 57.9479243 250.45093316 49 243 C48.38382813 242.51789063 47.76765625 242.03578125 47.1328125 241.5390625 C42.01788472 237.42438726 39.27536146 233.49689331 35 228 C34.67 238.23 34.34 248.46 34 259 C22.78 259 11.56 259 0 259 C0 173.53 0 88.06 0 0 Z M51 113 C37.71572543 127.30202141 32.60028591 145.80402004 32.7890625 164.96484375 C33.55103235 184.48914529 41.78806102 201.56964058 55.9375 214.875 C72.85027804 229.24567337 92.37809034 232.33551478 114 231 C131.26846433 228.89391319 147.16324639 218.74379547 157.8125 205.25 C166.0920842 193.59341187 171.17240118 180.30194211 172 166 C172.04125 165.31808594 172.0825 164.63617188 172.125 163.93359375 C172.66925995 145.46277158 166.3904856 127.19540913 154.25 113.25 C140.65364463 98.96161456 122.59868635 91.50518267 102.9453125 90.96875 C82.63508753 91.12962307 65.21128506 98.64468165 51 113 Z " fill="#0A1230" transform="translate(547,319)"/>
<path d="M0 0 C11.22 0 22.44 0 34 0 C34.01458252 3.42084961 34.02916504 6.84169922 34.04418945 10.36621094 C34.09463806 21.69778534 34.16110348 33.02922858 34.23571491 44.36066818 C34.28054221 51.22757169 34.31998634 58.09442485 34.34643555 64.96142578 C34.37199957 71.5945784 34.41299136 78.22752283 34.46318626 84.8605423 C34.47980743 87.38490229 34.49135116 89.90930124 34.49761391 92.43370819 C34.50730655 95.98306132 34.53542836 99.53184378 34.56762695 103.08105469 C34.56619186 104.11324631 34.56475677 105.14543793 34.5632782 106.20890808 C34.75364224 121.15065071 39.49765096 134.07655395 49.81640625 145 C60.32054799 154.62096703 75.06002826 158.38951185 89.0625 158.21875 C104.44045001 157.07358351 119.01420197 152.44077515 129.8515625 141.0546875 C139.07929311 129.36622873 142.45315539 115.94157683 142.43237305 101.26464844 C142.4425647 100.16074265 142.45275635 99.05683685 142.46325684 97.91947937 C142.49314963 94.31605803 142.50261645 90.71290353 142.51171875 87.109375 C142.528583 84.5930291 142.54673557 82.07669154 142.56611633 79.56036377 C142.60861157 73.64277416 142.63823524 67.72523261 142.66143972 61.80753827 C142.6912943 54.39894606 142.74146203 46.99051335 142.79101562 39.58203125 C142.87683964 26.38806858 142.94274155 13.19411759 143 0 C154.22 0 165.44 0 177 0 C177.06957032 25.5569158 177.12304698 51.11380863 177.15543652 76.67080021 C177.17087804 88.53846023 177.19191551 100.40606018 177.22631836 112.27368164 C177.25630398 122.62250401 177.27559471 132.97128285 177.28226548 143.32014745 C177.28616225 148.79523862 177.29526324 154.27020531 177.31719017 159.74525642 C177.33770029 164.90884985 177.3438047 170.07226867 177.33932304 175.23589897 C177.34014179 177.12113777 177.34602023 179.006383 177.35761642 180.8915863 C177.50540638 206.17912813 171.70628467 228.77030394 153.61328125 247.3828125 C152.75089844 248.24648438 151.88851563 249.11015625 151 250 C150.41605469 250.59554687 149.83210938 251.19109375 149.23046875 251.8046875 C133.153873 266.86377719 109.52675146 272.60992446 88.1875 272.4375 C86.87668457 272.43065186 85.56586914 272.42380371 84.21533203 272.41674805 C59.89347572 272.01494532 37.56016244 263.25027924 20.48242188 245.62353516 C10.86091509 235.08614713 5.06992288 222.81465297 2 209 C13.55 209 25.1 209 37 209 C39.97 214.445 39.97 214.445 43 220 C51.32403426 230.91576654 64.48393451 238.05498963 78 240 C95.93544596 241.70476265 111.86483058 238.63736439 126.27734375 227.19140625 C136.93566425 217.35138291 142.04078632 204.22458931 143 190 C143.11396075 184.97824853 143.09468091 179.96019677 143.0625 174.9375 C143.05747314 173.58138187 143.05291234 172.22526192 143.04882812 170.86914062 C143.03712079 167.57938006 143.02072211 164.28971406 143 161 C141.98292969 162.17755859 141.98292969 162.17755859 140.9453125 163.37890625 C127.27435547 178.92996046 110.65869906 187.9383856 90 191 C65.34147918 192.55984884 42.37229368 189.64477985 23.09765625 172.9765625 C9.9086764 160.54895765 0.70643218 142.62556254 -0.12304783 124.27830696 C-0.12212604 123.34729605 -0.12120424 122.41628513 -0.12025452 121.45706177 C-0.12231651 119.84179344 -0.12231651 119.84179344 -0.12442017 118.19389343 C-0.12082489 117.0279213 -0.11722961 115.86194916 -0.11352539 114.66064453 C-0.11367142 113.42106491 -0.11381744 112.18148529 -0.1139679 110.90434265 C-0.11339199 107.51841818 -0.10838825 104.13255523 -0.10139394 100.74664164 C-0.09512847 97.2032378 -0.09455408 93.65983308 -0.09336853 90.11642456 C-0.09026462 83.41237391 -0.08206392 76.70833963 -0.07201904 70.00429618 C-0.06082868 62.36947991 -0.05534009 54.73466284 -0.05032361 47.0998404 C-0.03988051 31.39988252 -0.02154674 15.69994717 0 0 Z " fill="#0A1230" transform="translate(1443,383)"/>
<path d="M0 0 C21.91561142 -0.54628357 43.0783224 5.46230636 59.16796875 20.75390625 C76.38918243 38.41220657 81.09295845 58.71536891 81.015625 82.5625 C81.02556734 84.2678298 81.03752174 85.97314891 81.05136108 87.67845154 C81.08333491 92.1123217 81.09408169 96.54594537 81.09820557 100.97991943 C81.1070518 108.1046788 81.14269359 115.22924013 81.1903801 122.35383415 C81.20285765 124.82211398 81.20221844 127.29013352 81.20010376 129.75843811 C81.20668702 131.27979732 81.21369386 132.80115478 81.22119141 134.32250977 C81.22245026 135.63913101 81.22370911 136.95575226 81.2250061 138.31227112 C81.57456958 143.60502175 82.36155178 149.69449957 85.4765625 154.12109375 C91.25660186 158.00451182 91.25660186 158.00451182 102.4765625 159.12109375 C102.4765625 172.98109375 102.4765625 186.84109375 102.4765625 201.12109375 C64.05581322 201.9942926 64.05581322 201.9942926 50.234375 189.015625 C39.26275678 177.34069792 37.0339366 164.09038344 37.06587219 148.52684784 C37.07042081 146.11043242 37.0561535 143.69472275 37.03747559 141.27838135 C37.00098387 136.14262971 36.9870441 131.00695578 36.9765625 125.87109375 C36.96438823 119.92375337 36.94239067 113.97676351 36.89656067 108.02957916 C36.88322014 105.67734565 36.88711869 103.32558251 36.89196777 100.97332764 C36.83043266 83.89018545 34.37182608 68.33993521 22.1953125 55.453125 C11.93531405 46.65252288 -0.67796554 43.55774953 -13.95703125 43.80859375 C-24.74410524 44.75379191 -34.72191994 47.64265332 -43.5234375 54.12109375 C-44.15507813 54.5490625 -44.78671875 54.97703125 -45.4375 55.41796875 C-54.25810856 62.02371084 -58.34603958 72.66850671 -60.5234375 83.12109375 C-60.92457982 87.1840553 -60.96126729 91.21303263 -60.95581055 95.29370117 C-60.9660022 96.45598236 -60.97619385 97.61826355 -60.98669434 98.81576538 C-61.01664829 102.61941458 -61.02606353 106.42281121 -61.03515625 110.2265625 C-61.052016 112.87886812 -61.07002464 115.53114119 -61.08955383 118.1834259 C-61.13302606 124.42686827 -61.16169079 130.67028493 -61.18487722 136.91383201 C-61.21203304 144.02890102 -61.25593757 151.14383691 -61.30116594 158.2588104 C-61.39373566 172.87950431 -61.4633322 187.50022925 -61.5234375 202.12109375 C-76.0434375 202.12109375 -90.5634375 202.12109375 -105.5234375 202.12109375 C-105.5234375 137.11109375 -105.5234375 72.10109375 -105.5234375 5.12109375 C-91.3334375 5.12109375 -77.1434375 5.12109375 -62.5234375 5.12109375 C-62.1934375 12.38109375 -61.8634375 19.64109375 -61.5234375 27.12109375 C-60.4921875 25.98671875 -59.4609375 24.85234375 -58.3984375 23.68359375 C-42.90605711 8.2186335 -21.48899957 1.03120586 0 0 Z " fill="#0A1230" transform="translate(733.5234375,92.87890625)"/>
<path d="M0 0 C16.83 0 33.66 0 51 0 C52.2890625 3.25875 53.578125 6.5175 54.90625 9.875 C56.52017986 13.95194934 58.13483897 18.02860959 59.7495842 22.10523605 C60.49788314 23.99465502 61.24592465 25.88417576 61.993927 27.77371216 C68.46941234 44.12910642 74.98205863 60.46915141 81.54061508 76.7914238 C82.64771571 79.54707423 83.75416216 82.30298639 84.86038208 85.05899048 C85.59441818 86.88763556 86.32845748 88.71627936 87.0625 90.54492188 C87.60544614 91.89757173 87.60544614 91.89757173 88.15936089 93.27754784 C90.34126626 98.71188027 92.52799368 104.14424418 94.71788692 109.57536221 C96.09354276 112.99010696 97.46497602 116.40653616 98.83532906 119.82341194 C99.47972727 121.42746872 100.12596664 123.03078718 100.77412224 124.63332939 C101.66331337 126.83237985 102.54615451 129.03387589 103.42749023 131.23608398 C103.69062767 131.88235748 103.95376511 132.52863098 104.2248764 133.19448853 C105.33104834 135.97585772 106 137.97261801 106 141 C106.66 141 107.32 141 108 141 C108.13028595 140.26463516 108.2605719 139.52927032 108.39480591 138.7716217 C108.95108803 136.22400333 109.67888133 134.05257889 110.68310547 131.65405273 C111.20089317 130.40724731 111.20089317 130.40724731 111.72914124 129.13525391 C112.1046965 128.24370605 112.48025177 127.3521582 112.8671875 126.43359375 C113.2580101 125.49507568 113.6488327 124.55655762 114.05149841 123.58959961 C114.8886252 121.57972572 115.72760755 119.57062386 116.56826782 117.56222534 C118.757211 112.32791159 120.92658926 107.08549766 123.09765625 101.84375 C123.5252977 100.81197128 123.95293915 99.78019257 124.39353943 98.71714783 C136.28739711 70.40453579 136.28739711 70.40453579 145 41 C145.19432617 40.18184814 145.38865234 39.36369629 145.58886719 38.52075195 C147.2922923 30.45792297 147.22697121 22.52298735 147.125 14.3125 C147.08375 9.589375 147.0425 4.86625 147 0 C161.85 0 176.7 0 192 0 C197.33977269 34.70852246 186.71547045 64.87447163 173.10980225 96.42095947 C170.9023516 101.55079653 168.71313096 106.68844781 166.51953125 111.82421875 C161.87780557 122.68395344 157.22153241 133.53738759 152.55888367 144.38815308 C147.53121548 156.08866065 142.51500985 167.79406274 137.5 179.5 C135.025 185.275 132.55 191.05 130 197 C114.82 197 99.64 197 84 197 C76.8780682 181.18376184 69.97353973 165.30082298 63.25 149.3125 C56.00050793 132.07685012 48.68498753 114.87091206 41.3125 97.6875 C40.5678096 95.95113281 40.5678096 95.95113281 39.80807495 94.1796875 C34.82111074 82.55207478 29.82909231 70.92663968 24.83118916 59.30372524 C22.62042879 54.16225221 20.41129423 49.02008231 18.20314312 43.87748814 C16.38907191 39.65313118 14.57142964 35.43032166 12.75317383 31.20776367 C11.80014583 28.98883272 10.8472577 26.76984169 9.89453125 24.55078125 C9.4715979 23.57082184 9.04866455 22.59086243 8.61291504 21.58120728 C5.55265347 14.44133512 2.79423235 7.26500412 0 0 Z " fill="#0A1230" transform="translate(1328,98)"/>
<path d="M0 0 C11.22 0 22.44 0 34 0 C34.0093457 4.50205078 34.01869141 9.00410156 34.02832031 13.64257812 C34.06208193 28.5145411 34.11742558 43.38636584 34.18390274 58.25821686 C34.22368204 67.27533764 34.25608016 76.29237129 34.27099609 85.30957031 C34.28401837 93.17059641 34.31099769 101.0314307 34.35461307 108.89234877 C34.37721501 113.05321276 34.39291145 117.21384029 34.39188385 121.37477112 C34.39113648 125.29504065 34.40911764 129.21478772 34.44116783 133.13492203 C34.44965306 134.56993856 34.4514261 136.0050138 34.44580269 137.4400444 C34.41898325 145.33913255 34.5434873 151.32525479 39 158 C44.93275465 162.60091177 49.01077713 162.54741402 57 164 C57 174.56 57 185.12 57 196 C24.49179086 196.62515787 24.49179086 196.62515787 11.77734375 184.9609375 C6.96049674 179.86498347 3.78351649 174.4101173 1 168 C0.55011719 168.61746094 0.10023438 169.23492188 -0.36328125 169.87109375 C-5.52031023 176.66100966 -11.13345884 181.95935663 -18 187 C-18.75667969 187.55558594 -19.51335937 188.11117187 -20.29296875 188.68359375 C-39.04500448 201.10964152 -64.34015073 203.24932017 -85.984375 199.31640625 C-105.47572241 195.29915991 -121.07149292 185.22905386 -132.32421875 168.734375 C-141.69031388 153.45170229 -144.16646914 136.68132528 -144.11352539 119.06640625 C-144.11367142 117.78752029 -144.11381744 116.50863434 -144.1139679 115.19099426 C-144.11425329 111.70602767 -144.10839843 108.22109593 -144.10139394 104.73613739 C-144.09511728 101.08597493 -144.0945532 97.43581156 -144.09336853 93.78564453 C-144.09026788 86.88333128 -144.08207165 79.98103397 -144.07201904 73.07872772 C-144.06081847 65.21654164 -144.05533753 57.35435478 -144.05032361 49.4921627 C-144.03988791 33.32809768 -144.02155826 17.1640546 -144 1 C-132.78 1 -121.56 1 -110 1 C-109.98541748 4.53154785 -109.97083496 8.0630957 -109.95581055 11.70166016 C-109.90533041 23.40840753 -109.83885902 35.11503459 -109.76428509 46.82164955 C-109.71948513 53.91493867 -109.68003497 61.00817934 -109.65356445 68.1015625 C-109.6304554 74.29041443 -109.59691599 80.47911102 -109.55129844 86.66783941 C-109.52753829 89.93908107 -109.51025489 93.21014054 -109.50238609 96.48146439 C-109.44738301 117.2579888 -109.17308188 137.37076768 -94.48046875 153.6875 C-83.28582401 164.14673012 -67.81306978 167.69035386 -52.90625 167.3515625 C-37.31329629 165.94819667 -23.77474774 160.62586227 -13 149 C-2.43086325 135.70269219 -0.88416506 120.6916876 -0.79467773 104.32983398 C-0.78477814 103.19710556 -0.77487854 102.06437714 -0.76467896 100.89732361 C-0.73327427 97.18026772 -0.70839023 93.46319909 -0.68359375 89.74609375 C-0.66300604 87.15820497 -0.6420091 84.57031942 -0.62062073 81.98243713 C-0.57120246 75.88412856 -0.52588912 69.78580234 -0.48259836 63.68744761 C-0.43304378 56.73933675 -0.37819383 49.79127076 -0.32291877 42.84320343 C-0.20942428 28.56217648 -0.10321451 14.28110486 0 0 Z " fill="#0A1230" transform="translate(914,382)"/>
<path d="M0 0 C13.53 0 27.06 0 41 0 C41 17.49 41 34.98 41 53 C56.84 53 72.68 53 89 53 C89 66.2 89 79.4 89 93 C73.16 93 57.32 93 41 93 C41.11998153 109.13192665 41.11998153 109.13192665 41.2578125 125.26367188 C41.31802089 131.84721916 41.37617977 138.4307382 41.421875 145.0144043 C41.45886456 150.32481992 41.50526119 155.63507908 41.55806351 160.94536018 C41.57653498 162.96701361 41.59166941 164.98870049 41.60334396 167.01040459 C41.62033094 169.85141756 41.64939509 172.69207782 41.68115234 175.53295898 C41.68331253 176.36086945 41.68547272 177.18877991 41.68769836 178.04177856 C41.82867652 187.97377543 43.42877287 195.5326644 50.75 202.6875 C58.77430241 208.39709979 66.42736787 208.50922473 76 208.6875 C80.29 208.790625 84.58 208.89375 89 209 C89 222.53 89 236.06 89 250 C31.22494155 250.49806085 31.22494155 250.49806085 12.75 233.5 C1.64158311 221.73814682 -2.51563233 206.47392807 -2.34057617 190.63183594 C-2.34123329 189.03449867 -2.34123329 189.03449867 -2.34190369 187.40489197 C-2.33983566 183.93119109 -2.31659905 180.45799018 -2.29296875 176.984375 C-2.28736573 174.55772159 -2.28309897 172.13106477 -2.28010559 169.70440674 C-2.26871249 163.35209602 -2.23929328 156.99999473 -2.20599365 150.64776611 C-2.17517297 144.15192497 -2.16157471 137.65604961 -2.14648438 131.16015625 C-2.11441796 118.43999787 -2.06169559 105.72004921 -2 93 C-12.89 93 -23.78 93 -35 93 C-35 79.8 -35 66.6 -35 53 C-22.875 52.6875 -22.875 52.6875 -19.08544922 52.61206055 C-11.02656083 52.50534945 -11.02656083 52.50534945 -4 49 C-0.94167678 43.32296154 -0.53445626 38.50655148 -0.48828125 32.12890625 C-0.47033005 31.206577 -0.45237885 30.28424774 -0.43388367 29.33396912 C-0.38003264 26.41019152 -0.34596615 23.4865748 -0.3125 20.5625 C-0.27930466 18.57094128 -0.24481296 16.57940371 -0.20898438 14.58789062 C-0.12189818 9.72524049 -0.06161462 4.86330536 0 0 Z " fill="#0A1230" transform="translate(866,45)"/>
<path d="M0 0 C15.45611541 11.837707 24.91110469 27.21801017 28.51953125 46.3046875 C30.94055282 64.74846998 27.0347789 82.86286567 16.20703125 98.1171875 C13.3862743 101.64948675 10.3938066 104.91363965 7.20703125 108.1171875 C6.32144531 109.05498047 6.32144531 109.05498047 5.41796875 110.01171875 C-7.46699192 122.58448874 -26.34862892 127.09922217 -43.79296875 127.1171875 C-63.06452073 125.9587882 -79.45351324 117.93151036 -92.79296875 104.1171875 C-108.26090607 86.49675405 -110.99027959 67.78057128 -109.79296875 45.1171875 C-107.83561178 28.08818189 -97.14432589 13.17184062 -84.48828125 2.21875 C-59.98696277 -16.88517658 -25.5064027 -17.19452602 0 0 Z " fill="#A486FD" transform="translate(109.79296875,11.8828125)"/>
<path d="M0 0 C14.52 0 29.04 0 44 0 C44.33 9.24 44.66 18.48 45 28 C46.65 24.7 48.3 21.4 50 18 C57.64205779 7.57901211 68.38859069 2.10190155 81 0 C87.6 0 94.2 0 101 0 C101 14.52 101 29.04 101 44 C82.19 44 63.38 44 44 44 C44 94.49 44 144.98 44 197 C29.48 197 14.96 197 0 197 C0 131.99 0 66.98 0 0 Z " fill="#0A1230" transform="translate(1206,98)"/>
<path d="M0 0 C14.52 0 29.04 0 44 0 C44 65.01 44 130.02 44 197 C29.48 197 14.96 197 0 197 C0 131.99 0 66.98 0 0 Z " fill="#0A1330" transform="translate(1548,98)"/>
<path d="M0 0 C14.52 0 29.04 0 44 0 C44 65.01 44 130.02 44 197 C29.48 197 14.96 197 0 197 C0 131.99 0 66.98 0 0 Z " fill="#0B1231" transform="translate(548,98)"/>
<path d="M0 0 C6.79352042 4.34785307 11.52554534 9.74996503 13.47265625 17.7109375 C14.84693299 26.60166664 13.29472071 34.18145337 8.79296875 42.04296875 C4.92359942 47.26930441 -1.76977357 51.03059953 -8.14453125 52.1875 C-18.41407065 53.02611031 -25.77721365 51.76691488 -33.95703125 45.4375 C-38.71500459 41.09902315 -41.83310004 34.82767134 -42.3828125 28.40234375 C-42.59613056 18.98266737 -41.46505326 11.45618928 -34.95703125 4.3125 C-25.4486715 -4.15494458 -11.42578988 -6.17378515 0 0 Z " fill="#AB8FFF" transform="translate(1585.14453125,15.8125)"/>
<path d="M0 0 C7.81108119 4.86252737 11.89463109 10.47686203 14.76953125 19.1015625 C15.63648529 29.3628874 14.33797208 36.74842723 8.01953125 44.9140625 C3.29464 50.08266181 -2.98746047 52.72205589 -9.89453125 53.33984375 C-19.331988 53.57640269 -26.46728676 51.95289023 -33.60546875 45.5390625 C-38.74904355 39.93735553 -41.33286535 33.1258034 -41.66796875 25.5390625 C-41.20724177 17.47634035 -38.98916414 10.70558916 -33.2890625 4.86328125 C-24.28816825 -2.83957132 -11.02162775 -5.13862383 0 0 Z " fill="#AB8FFF" transform="translate(583.23046875,14.8984375)"/>
</svg>
