<?xml version="1.0" encoding="UTF-8"?>
<svg version="1.1" xmlns="http://www.w3.org/2000/svg" width="1167" height="266">
<path d="M0 0 C2.48623254 2.19623652 4.91459998 4.4388497 7.32421875 6.71875 C8.14535156 7.48703125 8.96648437 8.2553125 9.8125 9.046875 C35.41313087 33.73177568 52.94975452 70.7853644 54.48535156 106.46240234 C54.53136966 110.67305861 54.57087689 114.88283777 54.57421875 119.09375 C54.57489349 119.85541473 54.57556824 120.61707947 54.57626343 121.40182495 C54.56028715 132.74602576 54.16851864 143.68814792 51.32421875 154.71875 C51.14729492 155.42161133 50.97037109 156.12447266 50.78808594 156.84863281 C45.80959706 176.1349032 38.16266548 196.24677574 25.32421875 211.71875 C21.69841148 210.51014758 21.4483763 209.7093022 19.609375 206.4765625 C19.0947168 205.58565918 18.58005859 204.69475586 18.04980469 203.77685547 C17.22657715 202.32496826 17.22657715 202.32496826 16.38671875 200.84375 C15.20808453 198.80592755 14.02705372 196.76948955 12.84375 194.734375 C12.25029785 193.71279297 11.6568457 192.69121094 11.04541016 191.63867188 C8.64424035 187.56519799 6.12487479 183.57474631 3.57421875 179.59375 C-1.43699303 171.74600325 -6.29373932 163.80993501 -11.11328125 155.84375 C-16.62028849 146.7439091 -22.15298917 137.66197808 -27.77075195 128.62988281 C-30.84613841 123.68342333 -33.89786145 118.72326918 -36.9296875 113.75 C-38.02684369 111.95389024 -39.12432313 110.15797839 -40.22189331 108.36212158 C-40.93493063 107.19340434 -41.64648593 106.02378149 -42.35647583 104.85321045 C-43.3471378 103.22014521 -44.34338205 101.59047034 -45.33984375 99.9609375 C-45.9117041 99.0210498 -46.48356445 98.08116211 -47.07275391 97.11279297 C-48.46790795 95.02919861 -49.82721419 93.39678763 -51.67578125 91.71875 C-51.96453125 92.46125 -52.25328125 93.20375 -52.55078125 93.96875 C-53.67578125 96.71875 -53.67578125 96.71875 -54.75952148 98.58276367 C-57.90989773 105.92692615 -53.6787033 117.42116475 -52.11328125 124.90625 C-51.87931641 126.04900391 -51.64535156 127.19175781 -51.40429688 128.36914062 C-50.83344754 131.15348738 -50.2571989 133.93659449 -49.67578125 136.71875 C-52.72763333 133.88447371 -54.80659622 131.10317939 -56.85546875 127.484375 C-57.74310913 125.92952393 -57.74310913 125.92952393 -58.64868164 124.34326172 C-59.27637451 123.22967285 -59.90406738 122.11608398 -60.55078125 120.96875 C-61.21725862 119.7979075 -61.88450734 118.62750377 -62.55249023 117.45751953 C-63.58157745 115.65487444 -64.61020899 113.8519872 -65.63652039 112.04776001 C-68.96075994 106.20457216 -72.34353087 100.39623083 -75.73828125 94.59375 C-76.88419802 92.63286126 -78.03003109 90.6719236 -79.17578125 88.7109375 C-79.74554688 87.73608398 -80.3153125 86.76123047 -80.90234375 85.75683594 C-82.76773629 82.56122129 -84.62849056 79.36294028 -86.48828125 76.1640625 C-87.11597412 75.08527832 -87.74366699 74.00649414 -88.39038086 72.89501953 C-89.58486876 70.84187016 -90.7784537 68.78819507 -91.97094727 66.73388672 C-95.11479792 61.33390478 -98.33274998 55.99787574 -101.67578125 50.71875 C-104.33877777 53.93294658 -106.62947199 57.1356274 -108.70703125 60.75390625 C-109.26503418 61.7188501 -109.82303711 62.68379395 -110.39794922 63.67797852 C-110.98463379 64.70205811 -111.57131836 65.7261377 -112.17578125 66.78125 C-115.79329603 73.07143489 -119.41168044 79.34847065 -123.26171875 85.5 C-123.81666016 86.39323975 -124.37160156 87.28647949 -124.94335938 88.20678711 C-125.98941559 89.88216117 -127.04744624 91.5501375 -128.11914062 93.20922852 C-128.58900391 93.96647217 -129.05886719 94.72371582 -129.54296875 95.50390625 C-129.95659668 96.15238525 -130.37022461 96.80086426 -130.79638672 97.46899414 C-132.84391973 102.70719977 -131.54617506 108.14657668 -130.328125 113.45703125 C-129.91530273 115.30458008 -129.91530273 115.30458008 -129.49414062 117.18945312 C-129.05084829 119.12283677 -128.60755027 121.05621915 -128.16381836 122.98950195 C-127.734017 124.873287 -127.3121921 126.75888641 -126.890625 128.64453125 C-126.634021 129.76255127 -126.37741699 130.88057129 -126.11303711 132.0324707 C-125.67578125 134.71875 -125.67578125 134.71875 -126.67578125 136.71875 C-131.61416495 129.59628057 -135.95178262 122.18449383 -140.23828125 114.65625 C-145.28951517 105.7558314 -145.28951517 105.7558314 -150.640625 97.03515625 C-152.67578125 93.71875 -152.67578125 93.71875 -152.67578125 91.71875 C-153.33578125 91.71875 -153.99578125 91.71875 -154.67578125 91.71875 C-155.06382935 92.77449219 -155.06382935 92.77449219 -155.4597168 93.8515625 C-156.77980427 96.96401127 -158.37025941 99.7086963 -160.1328125 102.59375 C-160.4718158 103.15083649 -160.81081909 103.70792297 -161.16009521 104.28189087 C-162.26574479 106.09649388 -163.3768866 107.90766103 -164.48828125 109.71875 C-165.26384883 110.98861179 -166.03915539 112.25863303 -166.81420898 113.52880859 C-172.29688803 122.50513558 -177.82282796 131.4547079 -183.37109375 140.390625 C-187.13235411 146.44979823 -190.87450194 152.52068513 -194.61328125 158.59375 C-195.62310059 160.23355835 -195.62310059 160.23355835 -196.65332031 161.90649414 C-200.53316091 168.21380115 -204.38829183 174.53537898 -208.22436523 180.86938477 C-214.52772364 191.27494264 -220.99046136 201.55433507 -227.67578125 211.71875 C-234.77193177 209.35336649 -239.44840105 196.52705111 -242.80078125 189.96875 C-261.73183625 151.87224237 -263.88917324 107.57319455 -250.59863281 67.33447266 C-244.11928294 48.96945823 -234.54627999 32.33095068 -221.67578125 17.71875 C-220.91136719 16.84476563 -220.14695313 15.97078125 -219.359375 15.0703125 C-217.15998951 12.59181717 -214.92921686 10.14810437 -212.67578125 7.71875 C-212.12664062 7.11546875 -211.5775 6.5121875 -211.01171875 5.890625 C-156.06783152 -52.0305172 -58.54178545 -49.91007694 0 0 Z " fill="#4061FE" transform="translate(270.67578125,48.28125)"/>
<path d="M0 0 C30 0 30 0 38.53515625 8.28125 C40.54548645 11.12919617 40.54548645 11.12919617 41.88598633 13.6706543 C42.4059317 14.6225766 42.92587708 15.5744989 43.46157837 16.55526733 C43.98988251 17.52702911 44.51818665 18.49879089 45.0625 19.5 C46.23625668 21.46324351 47.42089686 23.42001836 48.6159668 25.37036133 C51.01099963 29.30651502 53.34800343 33.2686565 55.64257812 37.26416016 C59.57830552 44.06853794 63.88377895 50.60011597 68.26074219 57.12573242 C72.22425698 63.05039434 76.10439075 69.03046928 80 75 C80.33 50.25 80.66 25.5 81 0 C89.58 0 98.16 0 107 0 C107 39.93 107 79.86 107 121 C80 121 80 121 75.1875 116.82421875 C74.41082202 115.22461978 73.64088717 113.62017459 72.94726562 111.98284912 C70.93094696 107.76222125 68.064986 104.00147456 65.4375 100.14453125 C64.21090724 98.28709878 62.9883296 96.42700937 61.76953125 94.56445312 C61.14771973 93.61578369 60.5259082 92.66711426 59.88525391 91.68969727 C59.26312012 90.74022217 58.64098633 89.79074707 58 88.8125 C47.73123244 73.16440059 37.38245848 57.57368772 27 42 C26.67 68.07 26.34 94.14 26 121 C17.42 121 8.84 121 0 121 C0 81.07 0 41.14 0 0 Z " fill="#090909" transform="translate(414,82)"/>
<path d="M0 0 C9.9 0 19.8 0 30 0 C39.77349218 9.85238136 39.77349218 9.85238136 42.13891602 14.43115234 C42.9344841 15.91962677 42.9344841 15.91962677 43.74612427 17.43817139 C44.55241776 18.95377655 44.55241776 18.95377655 45.375 20.5 C46.56450258 22.53588922 47.76503481 24.56537286 48.97631836 26.58837891 C51.3357264 30.55512656 53.63937437 34.54576938 55.89697266 38.57128906 C59.76601526 45.42359491 64.09858885 51.90164175 68.5625 58.375 C69.75413754 60.15174741 70.94323346 61.93020411 72.12890625 63.7109375 C72.59369385 64.40493652 73.05848145 65.09893555 73.53735352 65.81396484 C75.36158003 68.54040854 77.18033836 71.27050754 79 74 C79.33 49.58 79.66 25.16 80 0 C88.58 0 97.16 0 106 0 C106 39.93 106 79.86 106 121 C97.09 121 88.18 121 79 121 C69.87171835 111.86733607 69.87171835 111.86733607 67.5300293 107.5324707 C67.00404144 106.58892731 66.47805359 105.64538391 65.93612671 104.67324829 C65.4003299 103.70857635 64.86453308 102.74390442 64.3125 101.75 C63.13200584 99.79763719 61.94149902 97.85129624 60.74145508 95.91088867 C58.29915633 91.94038047 55.9068896 87.94578512 53.54785156 83.92529297 C49.21006551 76.59430592 44.47974564 69.54611458 39.70068359 62.49829102 C35.09116672 55.69420847 30.55233771 48.84247079 26 42 C25.67 68.07 25.34 94.14 25 121 C16.75 121 8.5 121 0 121 C0 81.07 0 41.14 0 0 Z " fill="#070707" transform="translate(1010,82)"/>
<path d="M0 0 C67.81781377 0 67.81781377 0 79.96484375 11.9296875 C87.48166451 20.60660957 89.75944451 31.23396098 89.3828125 42.5078125 C88.13168113 53.92119457 84.19152509 62.98501086 75.25 70.25 C60.49396185 80.53451144 43.16138255 79.19955096 26 79 C26 92.86 26 106.72 26 121 C17.42 121 8.84 121 0 121 C0 81.07 0 41.14 0 0 Z M26 24 C26 33.9 26 43.8 26 54 C29.795 54.0825 33.59 54.165 37.5 54.25 C38.68013672 54.28641602 39.86027344 54.32283203 41.07617188 54.36035156 C49.0600973 54.44391054 54.33906898 53.28545092 60.4375 47.8125 C62.60011576 43.91979163 63.19602121 40.43792027 63 36 C61.39398792 31.27118666 59.19876865 28.67194369 55 26 C48.84103818 23.70564434 43.07899929 23.76562541 36.5625 23.875 C33.076875 23.91625 29.59125 23.9575 26 24 Z " fill="#080808" transform="translate(909,82)"/>
<path d="M0 0 C8.25 0 16.5 0 25 0 C25 39.93 25 79.86 25 121 C17.08 121 9.16 121 1 121 C0.505 117.535 0.505 117.535 0 114 C-0.43828125 114.39832031 -0.8765625 114.79664063 -1.328125 115.20703125 C-8.21681731 120.96160959 -16.84996743 123.73175838 -25.87890625 123.28125 C-34.83136129 122.09418414 -41.96437604 119.73172454 -49 114 C-49.93972656 113.24589844 -49.93972656 113.24589844 -50.8984375 112.4765625 C-59.22304525 105.02440272 -63.37558213 94.14013844 -64.21484375 83.19921875 C-64.64795428 69.84208987 -60.93339131 57.61801702 -51.82421875 47.609375 C-43.78081979 40.10775939 -35.13709028 36.09687012 -24.046875 35.96484375 C-14.43579242 36.47004168 -7.50964967 38.99228027 0 45 C0 30.15 0 15.3 0 0 Z M-35.8046875 67.94921875 C-38.73651143 72.97930882 -39.57021255 78.56730762 -38.375 84.25 C-35.82185007 91.21313617 -32.22637128 95.71547499 -25.6875 99.25 C-18.61779174 101.22294184 -13.61761982 100.04891067 -7.2734375 96.6328125 C-2.8137801 93.42982832 -0.70168801 89.10506404 1 84 C1.73501058 76.7064335 0.18258958 71.60966738 -3.625 65.3125 C-7.85084229 61.19786408 -13.14049847 58.83873382 -19.0625 58.5 C-26.1489009 59.39986043 -31.37334848 62.29502388 -35.8046875 67.94921875 Z " fill="#070707" transform="translate(751,82)"/>
<path d="M0 0 C9.24 0 18.48 0 28 0 C38.32493677 28.88957799 48.17882939 57.93588044 58 87 C59.85242382 84.22136427 60.76284177 82.09453956 61.8125 78.96313477 C62.16077347 77.93172867 62.50904694 76.90032257 62.86787415 75.83766174 C63.42827644 74.15651527 63.42827644 74.15651527 64 72.44140625 C64.39241379 71.27669296 64.78482758 70.11197968 65.18913269 68.91197205 C66.02872745 66.41927853 66.86684445 63.92614547 67.70248413 61.43212891 C69.84953324 55.02535976 72.01262789 48.62400219 74.17578125 42.22265625 C74.59684647 40.97598175 75.01791168 39.72930725 75.45173645 38.44485474 C79.80836279 25.56930407 84.36076049 12.77692193 89 0 C98.24 0 107.48 0 117 0 C113.62483824 11.25053919 113.62483824 11.25053919 112.03320312 15.63427734 C111.6736554 16.62869339 111.31410767 17.62310944 110.94366455 18.6476593 C110.56006775 19.69979111 110.17647095 20.75192291 109.78125 21.8359375 C109.16500763 23.53637459 109.16500763 23.53637459 108.53631592 25.27116394 C107.42411233 28.33809953 106.30942894 31.4041181 105.19337463 34.46965408 C104.26278287 37.02685641 103.33400957 39.58471758 102.40523148 42.14257908 C99.9992231 48.76863097 97.58925675 55.39323624 95.17747879 62.01718998 C93.50630567 66.60758164 91.83742649 71.19880189 90.16992188 75.79052734 C87.95159532 81.89888062 85.73012559 88.00608373 83.50610352 94.11236572 C82.66916744 96.41117455 81.83306613 98.71028747 80.99780273 101.00970459 C79.83980902 104.19627545 78.67823882 107.38151866 77.515625 110.56640625 C77.171828 111.51460739 76.82803101 112.46280853 76.47381592 113.43974304 C76.16051331 114.29566544 75.84721069 115.15158783 75.52441406 116.03344727 C75.25244202 116.78006119 74.98046997 117.52667511 74.70025635 118.2959137 C74 120 74 120 73 121 C70.78144736 121.08783542 68.56011504 121.10694609 66.33984375 121.09765625 C65.34314415 121.09553383 65.34314415 121.09553383 64.3263092 121.09336853 C62.19666101 121.08775518 60.06711661 121.07520054 57.9375 121.0625 C56.49674631 121.05748671 55.05599097 121.05292351 53.61523438 121.04882812 C50.07678898 121.03778145 46.53840461 121.02050792 43 121 C33.97004315 96.23161204 24.98438382 71.44743308 16.04175568 46.64739609 C15.31742519 44.63865871 14.5930111 42.6299515 13.86859131 40.62124634 C12.49141512 36.8023314 11.11477619 32.98322305 9.73828125 29.1640625 C9.33359116 28.04151566 8.92890106 26.91896881 8.51194763 25.7624054 C7.73715209 23.61182044 6.96349246 21.46082584 6.19107056 19.30938721 C5.33020819 16.91748281 4.46427688 14.52775354 3.59384155 12.13934326 C3.13046095 10.86032991 2.66713168 9.58129796 2.20385742 8.30224609 C1.78255051 7.14485931 1.36124359 5.98747253 0.9271698 4.79501343 C0 2 0 2 0 0 Z " fill="#090909" transform="translate(783,82)"/>
<path d="M0 0 C9.80838671 8.24098389 14.23771933 17.42992212 15.43359375 30.1171875 C16.04349135 42.4875018 12.58612696 53.09934747 4.93359375 62.9921875 C-3.25059618 71.77784021 -14.7822263 76.63849215 -26.60546875 77.3828125 C-41.61452016 77.5898339 -53.10655774 74.28286284 -64.19140625 63.9296875 C-73.33906243 54.32949709 -75.92689567 43.10260772 -75.625 30.12109375 C-74.9110461 18.68649878 -69.92857845 9.26441291 -61.69140625 1.3671875 C-56.68459235 -2.8942511 -51.54069738 -5.59496153 -45.37890625 -7.8203125 C-44.72535156 -8.06523438 -44.07179688 -8.31015625 -43.3984375 -8.5625 C-28.66890478 -13.14781296 -11.98935954 -9.17412405 0 0 Z M-45.75390625 20.3046875 C-49.45185636 25.02311018 -50.70951676 30.44378873 -50.18359375 36.38671875 C-48.72886258 43.30330421 -45.14551933 48.24151271 -39.37890625 52.1796875 C-35.19787968 54.43970186 -31.04042816 54.9485149 -26.37890625 54.1796875 C-19.7695707 52.01351808 -15.57010757 49.17711624 -12.21875 43.046875 C-9.74098126 37.53816124 -9.3478859 32.300489 -11.25 26.54296875 C-13.95552347 20.60855826 -16.73220539 17.42131207 -22.37890625 14.1796875 C-31.33991022 11.19268618 -39.24940239 13.6426896 -45.75390625 20.3046875 Z " fill="#0A0A0A" transform="translate(606.37890625,127.8203125)"/>
<path d="M0 0 C0 7.92 0 15.84 0 24 C-2.97 24.12375 -2.97 24.12375 -6 24.25 C-11.6742582 24.70690436 -16.5114318 25.29637846 -21 29 C-24.37213945 33.32856496 -26.09587345 37.92283344 -26.20532227 43.37963867 C-26.22526749 44.26032516 -26.24521271 45.14101166 -26.26576233 46.04838562 C-26.29083107 47.46882927 -26.29083107 47.46882927 -26.31640625 48.91796875 C-26.33718735 49.89034988 -26.35796844 50.86273102 -26.37937927 51.86457825 C-26.44478748 54.97214665 -26.50371929 58.07979985 -26.5625 61.1875 C-26.60569351 63.29362858 -26.64930807 65.39974856 -26.69335938 67.50585938 C-26.80125267 72.67048724 -26.90039123 77.83517907 -27 83 C-35.25 83 -43.5 83 -52 83 C-52 55.61 -52 28.22 -52 0 C-44.08 0 -36.16 0 -28 0 C-27.67 2.64 -27.34 5.28 -27 8 C-26.49210938 7.51789063 -25.98421875 7.03578125 -25.4609375 6.5390625 C-18.78631218 0.41440631 -9.11543429 -4.55771715 0 0 Z " fill="#0C0C0C" transform="translate(684,120)"/>
<path d="M0 0 C3.48488515 1.99223329 6.19540905 4.3908181 8 8 C8.52116532 13.22874055 8.59784058 17.6608371 6.4375 22.5 C2.96641783 26.06008428 -0.19780565 27.83889823 -5.2421875 28.12890625 C-11.02668281 27.8075454 -14.10592019 26.27399004 -18 22 C-20.42888537 17.24783298 -20.26469585 13.05878339 -19 8 C-15.3518359 -0.20836923 -8.30811393 -1.50732924 0 0 Z M-8 3 C-8.66 3.66 -9.32 4.32 -10 5 C-5.05 5.99 -5.05 5.99 0 7 C0.125 13.625 0.125 13.625 -1 17 C0.37168238 19.19038423 0.37168238 19.19038423 2 21 C4.29960113 17.96452651 5 16.36003344 5 12.5 C3.78669043 8.25341652 2.54281383 6.61860153 -1 4 C-4.58863524 2.9384058 -4.58863524 2.9384058 -8 3 Z M-13.5 6.2265625 C-15.28110756 8.33235113 -15.629284 9.65950531 -16 12.375 C-16.12375 13.12523438 -16.2475 13.87546875 -16.375 14.6484375 C-16.09504559 17.88317034 -16.09504559 17.88317034 -11 22 C-11 16.39 -11 10.78 -11 5 C-12.19391747 4.89449697 -12.19391747 4.89449697 -13.5 6.2265625 Z M-7 9 C-7 9.99 -7 10.98 -7 12 C-5.68 12 -4.36 12 -3 12 C-3 11.34 -3 10.68 -3 10 C-4.32 9.67 -5.64 9.34 -7 9 Z M-7 16 C-7 17.98 -7 19.96 -7 22 C-8.32 22.33 -9.64 22.66 -11 23 C-7.98675805 24.50662097 -5.31713623 24.17770373 -2 24 C-1.34 23.34 -0.68 22.68 0 22 C-0.99 21.67 -1.98 21.34 -3 21 C-4.0409066 19.35857037 -5.04504326 17.69287785 -6 16 C-6.33 16 -6.66 16 -7 16 Z " fill="#4B4B4B" transform="translate(1149,82)"/>
<path d="M0 0 C8.49609375 -0.09765625 8.49609375 -0.09765625 11 0 C12 1 12 1 12.125 4.375 C12 8 12 8 11 11 C11 12.32 11 13.64 11 15 C9.68 15 8.36 15 7 15 C6.34 13.68 5.68 12.36 5 11 C4.67 12.65 4.34 14.3 4 16 C2.68 16 1.36 16 0 16 C0 10.72 0 5.44 0 0 Z M4 3 C4 3.99 4 4.98 4 6 C5.32 6 6.64 6 8 6 C8 5.34 8 4.68 8 4 C6.68 3.67 5.36 3.34 4 3 Z " fill="#242424" transform="translate(1138,88)"/>
<path d="M0 0 C3.27269513 2.10202751 6.2442035 4.488407 8 8 C8.12145993 9.83037287 8.17543185 11.66564133 8.1875 13.5 C8.20167969 14.4796875 8.21585938 15.459375 8.23046875 16.46875 C8 19 8 19 6 21 C3.875 20.625 3.875 20.625 2 20 C2.350625 19.484375 2.70125 18.96875 3.0625 18.4375 C4.40992247 14.93420158 3.90134333 12.60537331 3 9 C1.20970769 6.11996455 -0.23402186 5.21043356 -3.48828125 4.31640625 C-5.98651579 3.80403849 -8.47652421 3.3660003 -11 3 C-8.9271681 -1.14566379 -4.04940135 -0.47243016 0 0 Z " fill="#3A3A3A" transform="translate(1149,82)"/>
<path d="M0 0 C0.66 0.33 1.32 0.66 2 1 C-5.59 8.59 -13.18 16.18 -21 24 C-21.66 23.67 -22.32 23.34 -23 23 C-15.69568836 14.86710152 -8.2434374 7.18866687 0 0 Z " fill="#7B91FE" transform="translate(70,45)"/>
<path d="M0 0 C-0.99 0.33 -1.98 0.66 -3 1 C-0.64046906 3.35953094 0.77895617 3.49141413 4 4 C4 4.33 4 4.66 4 5 C3.38511719 4.94199219 2.77023437 4.88398437 2.13671875 4.82421875 C-0.32405191 4.68685516 -2.56024603 4.6340369 -5 5 C-6.88051585 7.35589996 -6.88051585 7.35589996 -8 10 C-10.1875 10.8125 -10.1875 10.8125 -12 11 C-11.71998862 6.98650355 -11.24236211 5.27964858 -8.5625 2.1875 C-5.15195116 -0.72394413 -4.20362788 -1.26108837 0 0 Z " fill="#393939" transform="translate(1142,83)"/>
<path d="M0 0 C0.33 0.66 0.66 1.32 1 2 C2.65 1.34 4.3 0.68 6 0 C5.6875 2.375 5.6875 2.375 5 5 C2 7 2 7 -0.1875 6.625 C-0.785625 6.41875 -1.38375 6.2125 -2 6 C-1.34 5.01 -0.68 4.02 0 3 C-0.99 2.67 -1.98 2.34 -3 2 C-2.01 2 -1.02 2 0 2 C0 1.34 0 0.68 0 0 Z " fill="#434343" transform="translate(1149,101)"/>
<path d="M0 0 C0.66 0.33 1.32 0.66 2 1 C-1.96 4.96 -5.92 8.92 -10 13 C-10 8.41771462 -7.08388033 6.1816619 -4 3 C-1.625 1.0625 -1.625 1.0625 0 0 Z " fill="#555555" transform="translate(706,124)"/>
<path d="M0 0 C-0.99 0.33 -1.98 0.66 -3 1 C-0.64046906 3.35953094 0.77895617 3.49141413 4 4 C4 4.33 4 4.66 4 5 C3.06027344 4.98259766 3.06027344 4.98259766 2.1015625 4.96484375 C0.87566406 4.95130859 0.87566406 4.95130859 -0.375 4.9375 C-1.59316406 4.92009766 -1.59316406 4.92009766 -2.8359375 4.90234375 C-5.04937142 4.85533666 -5.04937142 4.85533666 -7 6 C-6.625 3.0625 -6.625 3.0625 -6 0 C-3.50907189 -1.24546405 -2.58919267 -0.7767578 0 0 Z " fill="#797979" transform="translate(1142,83)"/>
<path d="M0 0 C2.12046792 3.53411321 2.53199289 6.94393835 3 11 C0.47411298 8.63707344 -0.88820837 7.33537489 -2 4 C-1.34 4 -0.68 4 0 4 C0 2.68 0 1.36 0 0 Z " fill="#95A7FE" transform="translate(218,174)"/>
<path d="M0 0 C2.12046792 3.53411321 2.53199289 6.94393835 3 11 C0.47411298 8.63707344 -0.88820837 7.33537489 -2 4 C-1.34 4 -0.68 4 0 4 C0 2.68 0 1.36 0 0 Z " fill="#95A7FE" transform="translate(142,174)"/>
<path d="M0 0 C0 0.99 0 1.98 0 3 C-2.64 3 -5.28 3 -8 3 C-6.23110084 -0.53779831 -3.70375662 0 0 0 Z " fill="#0E0E0E" transform="translate(1146,82)"/>
</svg>
