<?xml version="1.0" encoding="UTF-8"?>
<svg version="1.1" xmlns="http://www.w3.org/2000/svg" width="2000" height="442">
<path d="M0 0 C0.61182129 0.45342773 1.22364258 0.90685547 1.85400391 1.37402344 C11.52338731 8.5937594 20.32758955 16.62165264 29 25 C29.52255371 25.50063965 30.04510742 26.0012793 30.58349609 26.51708984 C37.27522673 32.94579799 43.28316807 39.69682203 49 47 C49.79019531 47.98484375 50.58039063 48.9696875 51.39453125 49.984375 C95.42752269 105.37677894 113.85008332 176.62592007 107.23095703 246.64599609 C103.67027156 277.6957595 94.82789661 307.98169956 81 336 C80.61763184 336.78246094 80.23526367 337.56492187 79.84130859 338.37109375 C73.50975595 351.20809936 65.99642667 363.14121245 58 375 C54.52502726 373.84167575 54.2994643 373.30931691 52.5390625 370.265625 C52.07467773 369.47526855 51.61029297 368.68491211 51.13183594 367.87060547 C50.63458008 367.00580566 50.13732422 366.14100586 49.625 365.25 C48.54045279 363.40282884 47.45447057 361.5564996 46.3671875 359.7109375 C45.80870117 358.75928711 45.25021484 357.80763672 44.67480469 356.82714844 C42.09449453 352.47146453 39.42599216 348.17234078 36.75 343.875 C35.65995927 342.11991399 34.57012074 340.36470238 33.48046875 338.609375 C32.9189209 337.70509766 32.35737305 336.80082031 31.77880859 335.86914062 C22.80826938 321.40005239 13.91633959 306.88288226 5.07836914 292.33251953 C0.72239189 285.1682546 -3.6837554 278.0362128 -8.10620117 270.9128418 C-12.7048456 263.49722305 -17.24055739 256.04424765 -21.76953125 248.5859375 C-25.64840558 242.20428617 -29.56094387 235.84465975 -33.5 229.5 C-38.0385325 222.1897603 -42.53378033 214.85463832 -47 207.5 C-51.68055119 199.79520332 -56.3839582 192.10524413 -61.125 184.4375 C-61.65738281 183.57511719 -62.18976563 182.71273437 -62.73828125 181.82421875 C-64.89017496 178.3502104 -67.04889787 174.90084142 -69.3671875 171.53515625 C-71 169 -71 169 -71 167 C-71.66 167 -72.32 167 -73 167 C-73.24234375 167.69996094 -73.4846875 168.39992187 -73.734375 169.12109375 C-75.67991073 173.54658707 -78.66881396 177.26787839 -81.515625 181.16015625 C-83.8718077 185.82204103 -82.60919781 190.00880905 -81.47802734 194.91342163 C-80.91949719 197.35139293 -80.40075057 199.79649329 -79.8828125 202.2434082 C-78.57661556 208.37722884 -77.22776622 214.50130878 -75.875 220.625 C-75.17369882 223.8046486 -74.47329319 226.9844834 -73.77542114 230.16488647 C-73.34348171 232.13297549 -72.90952761 234.10062366 -72.47335815 236.06777954 C-72.27960602 236.94985077 -72.08585388 237.831922 -71.88623047 238.74072266 C-71.71461395 239.51727203 -71.54299744 240.29382141 -71.36618042 241.09390259 C-71 243 -71 243 -71 245 C-71.66 245 -72.32 245 -73 245 C-73.31001953 244.44465576 -73.62003906 243.88931152 -73.93945312 243.31713867 C-80.42062272 231.72862819 -87.0133266 220.21764585 -93.8125 208.8125 C-99.30676889 199.59573186 -104.70029659 190.32997694 -110 181 C-115.90615753 170.60463547 -121.94222139 160.29469031 -128.05932617 150.02148438 C-134.5666687 139.08026039 -140.9229071 128.05437615 -147.26464844 117.01660156 C-149.97951822 112.29728094 -152.7079316 107.5858299 -155.4375 102.875 C-155.90454346 102.06869141 -156.37158691 101.26238281 -156.8527832 100.43164062 C-157.90166436 98.62098303 -158.9507987 96.8104721 -160 95 C-168.32328374 107.98595866 -176.08167752 121.29540489 -183.8533783 134.61477661 C-186.6100815 139.33773998 -189.38157997 144.05176466 -192.16625977 148.75830078 C-193.21318164 150.52936917 -194.2567022 152.30245305 -195.29663086 154.07763672 C-198.0311289 158.73474059 -200.83140782 163.33529721 -203.7265625 167.89453125 C-204.64163574 169.36418335 -204.64163574 169.36418335 -205.57519531 170.86352539 C-206.73832061 172.72891204 -207.92135883 174.58209384 -209.12792969 176.41967773 C-209.65032227 177.26602783 -210.17271484 178.11237793 -210.7109375 178.984375 C-211.17806152 179.71366211 -211.64518555 180.44294922 -212.12646484 181.19433594 C-214.4626105 188.69768583 -211.3548071 197.6665289 -209.6796875 205.1171875 C-209.22249399 207.20829786 -208.76546753 209.29944476 -208.30859375 211.390625 C-207.58947541 214.65010169 -206.86745284 217.90889938 -206.14208984 221.16699219 C-205.4387004 224.33627627 -204.74612358 227.50777764 -204.0546875 230.6796875 C-203.83392548 231.65573944 -203.61316345 232.63179138 -203.38571167 233.63742065 C-203.18865631 234.54581696 -202.99160095 235.45421326 -202.78857422 236.39013672 C-202.52329422 237.5839949 -202.52329422 237.5839949 -202.25265503 238.80197144 C-201.98264208 241.15100909 -202.28236475 242.76344524 -203 245 C-211.45410801 230.7355523 -219.84635757 216.43628253 -228.18994141 202.10693359 C-230.07665827 198.86841743 -231.96573546 195.63128812 -233.85546875 192.39453125 C-234.48654541 191.31349121 -235.11762207 190.23245117 -235.76782227 189.11865234 C-236.97255556 187.05506948 -238.17746056 184.99158684 -239.38256836 182.92822266 C-239.92921143 181.99155762 -240.47585449 181.05489258 -241.0390625 180.08984375 C-241.80718262 178.77669189 -241.80718262 178.77669189 -242.59082031 177.43701172 C-243.84662917 175.26523694 -245.06252578 173.07584609 -246.2734375 170.87890625 C-247.69125278 167.93060534 -247.69125278 167.93060534 -250 167 C-250.27602051 167.72944824 -250.55204102 168.45889648 -250.83642578 169.21044922 C-251.93300989 171.83939803 -253.16952425 174.18335202 -254.6171875 176.6328125 C-255.13506836 177.5108252 -255.65294922 178.38883789 -256.18652344 179.29345703 C-256.7437207 180.22786621 -257.30091797 181.16227539 -257.875 182.125 C-258.45797852 183.10710449 -259.04095703 184.08920898 -259.64160156 185.10107422 C-263.71913089 191.93706206 -267.91724602 198.68614373 -272.19897461 205.39550781 C-276.71506639 212.49316348 -281.08309526 219.6776368 -285.4375 226.875 C-291.46903199 236.84157152 -297.5511592 246.77423029 -303.6953125 256.671875 C-313.18270744 271.95552035 -322.58287166 287.29264588 -331.92163086 302.66748047 C-336.27675878 309.83034852 -340.68136144 316.96143419 -345.10400391 324.08276367 C-348.52728661 329.60162668 -351.91643588 335.14004316 -355.28393555 340.69311523 C-357.60939447 344.52653133 -359.94349489 348.35462788 -362.28027344 352.18115234 C-363.43453959 354.07313942 -364.58619991 355.96671854 -365.73535156 357.86181641 C-367.37526742 360.5605129 -369.02931559 363.25000087 -370.6875 365.9375 C-371.18064697 366.75492676 -371.67379395 367.57235352 -372.18188477 368.41455078 C-372.64135498 369.15302246 -373.1008252 369.89149414 -373.57421875 370.65234375 C-373.97213623 371.30195068 -374.37005371 371.95155762 -374.7800293 372.62084961 C-375.18261963 373.07596924 -375.58520996 373.53108887 -376 374 C-376.99 374 -377.98 374 -379 374 C-380.69880975 371.86575526 -382.16408034 369.79076946 -383.625 367.5 C-384.06376465 366.82509521 -384.5025293 366.15019043 -384.95458984 365.45483398 C-389.6402942 358.1566936 -393.91964587 350.65043035 -398 343 C-398.34272949 342.35981934 -398.68545898 341.71963867 -399.03857422 341.06005859 C-431.74771424 279.38399228 -438.05321098 204.63068948 -417.92578125 137.9453125 C-405.7635191 99.41487829 -385.98343719 63.30728658 -358 34 C-356.7410227 32.57035584 -355.48996369 31.13366607 -354.25 29.6875 C-311.23756677 -19.76147312 -243.30489833 -47.77096115 -179.05517578 -52.484375 C-114.85062001 -56.64661517 -51.64423135 -38.47900617 0 0 Z " fill="#42A5A1" transform="translate(431,60)"/>
<path d="M0 0 C16.5 0 33 0 50 0 C67.94734846 21.91988409 67.94734846 21.91988409 72.44140625 31.44921875 C78.22667612 42.92412074 85.00924823 53.37615753 92.35684204 63.90151978 C95.4427066 68.34081712 98.4578761 72.82737597 101.4765625 77.3125 C102.327593 78.57312004 102.327593 78.57312004 103.19581604 79.85920715 C110.59284004 90.82245412 117.81910645 101.89414599 125 113 C130.445 121.415 130.445 121.415 136 130 C136.33 87.1 136.66 44.2 137 0 C151.19 0 165.38 0 180 0 C180 67.98 180 135.96 180 206 C165.48 206 150.96 206 136 206 C131.5747464 199.67820915 127.21094115 193.36421466 122.9921875 186.91015625 C121.84435221 185.16113942 120.69639766 183.41220085 119.54833984 181.66333008 C118.9509198 180.75225494 118.35349976 179.84117981 117.73797607 178.90249634 C106.03469666 161.06154222 94.21004394 143.30807641 82.21435547 125.66235352 C69.27184108 106.57102789 56.69037132 87.27056386 44 68 C43.67 113.54 43.34 159.08 43 206 C28.81 206 14.62 206 0 206 C0 138.02 0 70.04 0 0 Z " fill="#141821" transform="translate(680,133)"/>
<path d="M0 0 C118.44763963 0 118.44763963 0 139.28515625 19.15625 C152.72824594 33.60986807 158.61588786 49.64980985 158.4375 69.25 C158.42920166 70.43223145 158.42090332 71.61446289 158.41235352 72.83251953 C158.06646679 90.81124372 153.15673385 106.44716432 140.4453125 119.71875 C114.1054776 144.29137553 79.99372589 141 46 141 C46 166.08 46 191.16 46 217 C30.82 217 15.64 217 0 217 C0 145.39 0 73.78 0 0 Z M46 43 C46 61.15 46 79.3 46 98 C52.166875 98.0825 58.33375 98.165 64.6875 98.25 C66.60522217 98.28641602 68.52294434 98.32283203 70.4987793 98.36035156 C83.32124012 98.50091039 95.65498821 97.70467673 105.578125 88.54296875 C110.54348971 83.3968262 112.83429373 77.56382698 113.09375 70.41796875 C112.65310331 63.24644385 110.3193985 57.84954672 105.8125 52.3125 C93.29627407 42.0213809 79.78563609 42.72675774 64.375 42.875 C58.31125 42.91625 52.2475 42.9575 46 43 Z " fill="#151921" transform="translate(1333,123)"/>
<path d="M0 0 C13.53 0 27.06 0 41 0 C41 70.62 41 141.24 41 214 C27.8 214 14.6 214 1 214 C0.67 208.72 0.34 203.44 0 198 C-0.804375 199.03125 -1.60875 200.0625 -2.4375 201.125 C-9.98264373 209.85127605 -20.64870138 214.5894836 -32 216 C-51.07396603 217.05357013 -68.76696044 215.04397249 -83.84521484 202.13916016 C-98.96699032 188.40744894 -108.27552274 169.89713783 -109.3828125 149.4296875 C-110.02881643 128.33214438 -105.4067488 109.07582336 -91 93 C-89.92492188 91.76830078 -89.92492188 91.76830078 -88.828125 90.51171875 C-77.03526015 77.81319271 -61.48435509 70.87361307 -44.16162109 69.95507812 C-26.68063789 69.53677271 -14.04393666 75.40538963 -1 87 C-0.67 58.29 -0.34 29.58 0 0 Z M-60 121 C-66.8718045 129.78424066 -67.95788138 139.05620519 -67 150 C-64.75155251 160.04136208 -59.50625761 167.91865095 -51.04296875 173.74609375 C-42.53869578 178.96573357 -32.81215098 179.61845735 -23.08984375 177.30859375 C-13.64178177 173.81850594 -6.55846166 168.03171843 -2 159 C2.08059753 148.46743882 2.26569952 138.47504438 -2 128 C-6.19247607 119.21803309 -12.98829631 113.30010864 -21.9765625 109.7109375 C-36.29102908 104.68153032 -50.24292037 109.9686749 -60 121 Z " fill="#141821" transform="translate(1253,125)"/>
<path d="M0 0 C12.30303976 10.49043722 17.56996118 24.05996191 19 40 C19.12873448 43.30242008 19.12691063 46.59971636 19.11352539 49.90429688 C19.11367142 50.861315 19.11381744 51.81833313 19.1139679 52.80435181 C19.11327567 55.94250824 19.10551576 59.08060404 19.09765625 62.21875 C19.09578962 64.4045 19.09436687 66.59025041 19.09336853 68.77600098 C19.08956267 74.51014372 19.07974896 80.24426087 19.06866455 85.97839355 C19.05840882 91.83715468 19.05386201 97.69591997 19.04882812 103.5546875 C19.03812487 115.03647135 19.0205438 126.51822954 19 138 C5.47 138 -8.06 138 -22 138 C-22.33 132.72 -22.66 127.44 -23 122 C-24.11375 123.19625 -25.2275 124.3925 -26.375 125.625 C-37.34574683 136.48066907 -50.42456885 140.34929349 -65.5625 140.5 C-80.06712208 140.35539277 -92.47610867 136.27173036 -103.25 126.3125 C-112.52393253 116.47537319 -115.50729986 105.46812218 -115.24609375 92.26953125 C-114.43936901 81.55161683 -110.30808956 71.81963535 -102.5 64.3125 C-87.33350339 52.15636661 -68.25614847 49.21775084 -49.37890625 48.82421875 C-48.25935547 48.80037109 -47.13980469 48.77652344 -45.98632812 48.75195312 C-43.67663013 48.70847336 -41.36666718 48.67750697 -39.05664062 48.65820312 C-37.94611328 48.63048828 -36.83558594 48.60277344 -35.69140625 48.57421875 C-34.69310791 48.55963623 -33.69480957 48.54505371 -32.66625977 48.5300293 C-29.29610488 47.86007176 -28.11689111 46.65529467 -26 44 C-24.44068642 39.42601351 -25.16377518 36.13797324 -26.99609375 31.82421875 C-29.4989134 27.27629356 -33.84669138 25.17747427 -38.6328125 23.54296875 C-47.09899061 21.60105661 -54.55931166 22.61860294 -62 27 C-62.886875 27.515625 -63.77375 28.03125 -64.6875 28.5625 C-68.39897968 32.4746002 -70.56975032 37.22427678 -73 42 C-81.68381181 40.67149163 -90.20278584 38.89577801 -98.75 36.875 C-99.9359375 36.59785156 -101.121875 36.32070312 -102.34375 36.03515625 C-105.22997794 35.36015133 -108.11535239 34.68172086 -111 34 C-110.1219194 20.73705119 -104.85677987 11.0062719 -95 2 C-69.45954985 -18.61349807 -26.16116565 -20.68443565 0 0 Z M-67.625 84.3125 C-70.1793099 87.7848807 -71.07811821 90.62538023 -71 95 C-69.41774549 100.18627868 -67.60245313 103.11008757 -63 106 C-56.05331272 109.15758513 -49.49112325 108.71775662 -42.375 106.375 C-34.71566104 103.31126441 -30.14088077 99.3583763 -26.7265625 91.83203125 C-25.32316003 88.29334439 -24.88835634 85.59656178 -24.9375 81.8125 C-24.94652344 80.91144531 -24.95554687 80.01039063 -24.96484375 79.08203125 C-24.97644531 78.39496094 -24.98804688 77.70789063 -25 77 C-29.43727178 76.88243242 -33.87413528 76.81229284 -38.3125 76.75 C-39.55580078 76.71648437 -40.79910156 76.68296875 -42.08007812 76.6484375 C-51.48551072 76.5496928 -60.72722713 77.25225283 -67.625 84.3125 Z " fill="#141821" transform="translate(1621,202)"/>
<path d="M0 0 C14.17642026 12.18451666 24.31955516 28.62958535 25.79785156 47.61669922 C26.91534808 68.71648059 22.5840822 87.67569665 8.5703125 104.07421875 C7.60158203 105.14929688 7.60158203 105.14929688 6.61328125 106.24609375 C6.06027344 106.8803125 5.50726562 107.51453125 4.9375 108.16796875 C0.20705795 113.27097545 -5.39747043 116.77249632 -11.38671875 120.24609375 C-12.17949219 120.71144531 -12.97226562 121.17679688 -13.7890625 121.65625 C-32.00258 131.56610062 -54.4319762 132.6319929 -74.15234375 127.2109375 C-93.71517538 121.24442258 -108.93085158 110.11143101 -119.09765625 92.23828125 C-128.24940987 74.78298531 -130.52488155 54.13421307 -124.765625 35.15625 C-120.44984272 22.38243424 -114.075159 12.55286818 -104.38671875 3.24609375 C-103.8040625 2.65570313 -103.22140625 2.0653125 -102.62109375 1.45703125 C-75.39104668 -24.26023543 -28.18700385 -22.61825884 0 0 Z M-76.14453125 32.0625 C-83.99844086 41.83055341 -85.62383478 52.04812972 -84.38671875 64.24609375 C-83.47313196 67.87247398 -82.19240868 70.97955051 -80.38671875 74.24609375 C-79.80921875 75.29796875 -79.23171875 76.34984375 -78.63671875 77.43359375 C-73.18888005 84.24339212 -67.0196313 89.28248376 -58.38671875 91.24609375 C-47.16082941 92.42075531 -38.01198369 91.24571978 -29.13671875 84.05859375 C-22.0886849 77.39577633 -17.90759307 70.18769506 -17.05078125 60.4140625 C-16.93433715 48.54840866 -18.88220213 39.03409426 -27.38671875 30.24609375 C-35.23844606 23.71286405 -43.47879696 20.62347519 -53.69140625 20.96484375 C-62.32976627 21.86623784 -70.09985162 25.81633104 -76.14453125 32.0625 Z " fill="#141821" transform="translate(1011.38671875,211.75390625)"/>
<path d="M0 0 C9.57611651 8.24312109 16.33559473 17.47511605 18.6875 30.1875 C13.93905211 31.47723013 9.18848424 32.75871765 4.43579102 34.03271484 C2.82027731 34.46699446 1.20535901 34.90349545 -0.40893555 35.34228516 C-2.73332092 35.9736704 -5.05975107 36.59695888 -7.38671875 37.21875 C-8.10462082 37.41561401 -8.82252289 37.61247803 -9.56217957 37.81530762 C-13.2265056 38.78581471 -16.51719618 39.42045983 -20.3125 39.1875 C-20.76689453 38.17429687 -20.76689453 38.17429687 -21.23046875 37.140625 C-24.20592258 30.80519715 -26.51388678 26.91414237 -33.0625 23.9375 C-40.20617869 22.28895876 -45.84895228 22.69718423 -52.3125 26.1875 C-55.14844601 28.07813067 -55.30747813 29.16812991 -56.1875 32.5625 C-56.33141611 36.73606724 -56.12354562 38.12090478 -53.3125 41.1875 C-46.78874117 44.12884791 -40.3632857 45.09030975 -33.3125 46.0625 C-15.61610714 48.71986421 1.94701846 52.46613896 13.6875 67.1875 C21.25462496 79.10620318 22.54294612 92.73450218 19.5625 106.4375 C15.98791529 119.08343647 7.82226269 128.51913581 -3.3125 135.1875 C-21.60408361 144.81328372 -43.64386309 145.66928286 -63.3125 140.1875 C-79.70736911 134.69005281 -91.12797019 125.37542433 -98.83813477 109.94775391 C-100.70501201 106.00715927 -101.67641617 102.53676158 -102.3125 98.1875 C-97.56405211 96.89776987 -92.81348424 95.61628235 -88.06079102 94.34228516 C-86.44527731 93.90800554 -84.83035901 93.47150455 -83.21606445 93.03271484 C-80.89167908 92.4013296 -78.56524893 91.77804112 -76.23828125 91.15625 C-75.52037918 90.95938599 -74.80247711 90.76252197 -74.06282043 90.55969238 C-70.3984944 89.58918529 -67.10780382 88.95454017 -63.3125 89.1875 C-62.99539063 89.98414063 -62.67828125 90.78078125 -62.3515625 91.6015625 C-59.34955883 98.41826697 -56.69633 102.78019559 -49.95703125 106.1953125 C-43.052354 108.78584133 -37.11067992 108.79991736 -30.2265625 106.1484375 C-26.93090395 104.49388239 -24.94585251 102.45420501 -23.3125 99.1875 C-22.90385205 95.50966847 -22.94752781 93.74168589 -25.0078125 90.61328125 C-31.39923212 83.88604128 -44.12636451 83.41766242 -52.875 81.75 C-68.79336941 78.69295349 -83.48310926 73.98448335 -93.3125 60.1875 C-99.41839926 50.66611335 -100.51569332 36.96216084 -98.203125 26.06640625 C-93.74378187 11.65177518 -85.16106501 2.53312914 -72.3125 -4.8125 C-50.08045158 -15.52642765 -20.13196378 -15.48612599 0 0 Z " fill="#141821" transform="translate(1913.3125,199.8125)"/>
<path d="M0 0 C9.63682544 8.10329807 17.59495025 17.90909674 19.25 30.75 C10.33423275 33.26787871 1.4121269 35.76163956 -7.5625 38.0625 C-9.45935547 38.55169922 -9.45935547 38.55169922 -11.39453125 39.05078125 C-14.31503303 39.65936078 -16.78527542 39.90247155 -19.75 39.75 C-19.96914062 39.15832031 -20.18828125 38.56664062 -20.4140625 37.95703125 C-23.13642508 31.17325782 -25.7823716 27.60155992 -32.5625 24.4375 C-39.70326973 22.89733398 -45.29977637 23.26687924 -51.75 26.75 C-54.30216137 28.53651296 -54.68692505 29.5472591 -55.625 32.5625 C-55.785583 36.65736639 -55.17789949 38.43922797 -52.75 41.75 C-46.25946102 44.74390179 -39.78693971 45.65471889 -32.75 46.625 C-15.0645918 49.28071471 2.52601843 53.02321691 14.25 67.75 C21.52721253 79.37872639 23.17314702 92.77727352 20.59765625 106.1328125 C16.65118227 119.10705743 9.19845233 129.16200691 -2.74731445 135.57080078 C-22.43639588 145.6497038 -45.14940535 146.40289687 -66.0703125 139.68359375 C-81.02519205 133.88905602 -92.0509408 124.04796986 -98.7890625 109.5078125 C-100.29664815 105.77407233 -100.87358893 102.73917588 -100.75 98.75 C-96.14409056 97.46005565 -91.53593925 96.17857904 -86.92553711 94.90478516 C-85.35849084 94.47056488 -83.79207433 94.03406504 -82.22631836 93.59521484 C-79.97152058 92.96367098 -77.71456166 92.3404449 -75.45703125 91.71875 C-74.76100296 91.52188599 -74.06497467 91.32502197 -73.34785461 91.12219238 C-69.72978961 90.13488303 -66.50393489 89.52114029 -62.75 89.75 C-61.93501438 91.3529053 -61.12310073 92.95737278 -60.3125 94.5625 C-59.86003906 95.45582031 -59.40757813 96.34914063 -58.94140625 97.26953125 C-57.75 99.75 -57.75 99.75 -56.75 102.75 C-55.05230766 103.85168984 -55.05230766 103.85168984 -52.75 104.75 C-51.698125 105.265625 -50.64625 105.78125 -49.5625 106.3125 C-42.70160565 109.16511066 -36.65343487 109.35669511 -29.69921875 106.7109375 C-26.37775307 105.07350151 -24.38975308 103.02950617 -22.75 99.75 C-22.35067228 96.15605049 -22.47302606 94.24624497 -24.25 91.0625 C-30.40084122 85.37297187 -39.42515214 84.75603751 -47.375 83.375 C-63.068567 80.47910469 -80.17908827 76.9169958 -90.54296875 63.56640625 C-97.92257209 52.46117793 -98.88429852 40.74622531 -97.75 27.75 C-96.23799389 20.26728797 -92.77441849 14.4141014 -87.75 8.75 C-86.8528125 7.73099609 -86.8528125 7.73099609 -85.9375 6.69140625 C-65.05467845 -15.58079657 -24.40172661 -18.01973657 0 0 Z " fill="#141821" transform="translate(1768.75,199.25)"/>
<path d="M0 0 C0 13.53 0 27.06 0 41 C-6.6 41 -13.2 41 -20 41 C-28.23675485 43.2382486 -34.83793445 47.06782142 -39.53515625 54.39453125 C-45.0336841 64.83051268 -45.32732209 74.76262383 -45.4140625 86.3125 C-45.43279674 87.89291367 -45.45237179 89.47331758 -45.4727478 91.05371094 C-45.52383701 95.18982151 -45.56358611 99.32596444 -45.60089111 103.46221924 C-45.64815718 108.43760061 -45.70965453 113.41282441 -45.76873779 118.38807678 C-45.85666675 125.9253201 -45.92663331 133.46253756 -46 141 C-59.53 141 -73.06 141 -87 141 C-87 94.47 -87 47.94 -87 0 C-73.8 0 -60.6 0 -47 0 C-46.505 7.92 -46.505 7.92 -46 16 C-44.700625 14.453125 -43.40125 12.90625 -42.0625 11.3125 C-34.81330908 3.25404406 -26.29937408 -0.86479282 -15.515625 -1.91015625 C-10.52290782 -2.08846758 -4.53606186 -2.26803093 0 0 Z " fill="#141822" transform="translate(1137,198)"/>
<path d="M0 0 C4.71114909 3.70292652 8.75582667 7.97732027 10 14 C11.01764424 22.72429835 10.210523 29.77839795 5 37 C-0.31114358 42.81927122 -5.81091174 45.27193752 -13.60546875 45.95703125 C-20.55060093 46.08165842 -25.82639392 44.15625285 -31.20703125 39.78515625 C-36.47814478 34.53701054 -39.13050719 28.78881234 -39.3125 21.375 C-39.20821628 14.16204283 -37.84432878 9.12498361 -32.94140625 3.73828125 C-23.45329807 -5.17382036 -11.32862343 -7.2674188 0 0 Z M-27.046875 5.63671875 C-31.72326768 10.40006914 -33.95845186 15.28997509 -34 22 C-33.06688907 27.44314711 -31.04854779 32.17029263 -27 36 C-21.63794989 39.70468917 -16.46282738 41.10726763 -10 40 C-4.1112731 38.11476009 -0.40354642 35.10531963 3 30 C5.27193229 24.52670858 5.42469126 19.68836585 4 14 C1.19678833 8.60122198 -2.54072759 4.29649051 -8.29296875 2.140625 C-15.42717735 0.32665568 -21.2124734 0.97142434 -27.046875 5.63671875 Z " fill="#141821" transform="translate(1982,165)"/>
<path d="M0 0 C15.47432024 0 15.47432024 0 19.6328125 3.29296875 C21.38813367 5.48461261 21.37269321 6.72185196 21.3125 9.5 C21.30863281 10.2734375 21.30476563 11.046875 21.30078125 11.84375 C21 14 21 14 19 17 C18.34 17 17.68 17 17 17 C17.3609375 17.69867188 17.721875 18.39734375 18.09375 19.1171875 C18.5578125 20.02726562 19.021875 20.93734375 19.5 21.875 C19.9640625 22.77992188 20.428125 23.68484375 20.90625 24.6171875 C22 27 22 27 22 29 C19.36 29 16.72 29 14 29 C13.32845067 27.71086513 12.66291141 26.41859796 12 25.125 C11.62875 24.40570313 11.2575 23.68640625 10.875 22.9453125 C10 21 10 21 10 19 C8.68 19 7.36 19 6 19 C6 22.3 6 25.6 6 29 C4.02 29 2.04 29 0 29 C0 19.43 0 9.86 0 0 Z M6 7 C6 8.98 6 10.96 6 13 C10.25731568 13.40749675 10.25731568 13.40749675 13.875 11.5 C14.24625 11.005 14.6175 10.51 15 10 C14.34 9.01 13.68 8.02 13 7 C9.41642759 6.74984127 9.41642759 6.74984127 6 7 Z " fill="#141821" transform="translate(1958,171)"/>
</svg>
