<?xml version="1.0" encoding="UTF-8"?>
<svg version="1.1" xmlns="http://www.w3.org/2000/svg" width="820" height="135">
<path d="M0 0 C7.56574177 5.24631729 10.82186433 11.7574475 12.703125 20.609375 C13.08397261 25.17057062 13.05429066 29.69902783 12.99609375 34.2734375 C12.99184891 35.54665863 12.98760406 36.81987976 12.98323059 38.13168335 C12.96937415 41.48226595 12.94252241 44.83221021 12.90911865 48.18261719 C12.87817903 51.61517891 12.86467475 55.04780715 12.84960938 58.48046875 C12.81667575 65.19029992 12.7649634 71.89975049 12.703125 78.609375 C8.413125 78.609375 4.123125 78.609375 -0.296875 78.609375 C-0.791875 75.144375 -0.791875 75.144375 -1.296875 71.609375 C-1.83054687 72.00769531 -2.36421875 72.40601562 -2.9140625 72.81640625 C-14.56682883 81.10236985 -27.25728494 82.38518037 -41.2109375 80.140625 C-47.7589529 78.25047623 -52.6341756 74.32511735 -56.171875 68.546875 C-59.11179239 60.87042405 -59.19462268 53.46261878 -56.32421875 45.77734375 C-52.78155338 38.3013769 -46.9428186 34.40207944 -39.296875 31.609375 C-31.27376678 29.02035391 -23.06195727 29.38007112 -14.734375 29.484375 C-13.33008453 29.49442765 -11.92578707 29.50354945 -10.52148438 29.51171875 C-7.11310015 29.53514407 -3.70508 29.56794754 -0.296875 29.609375 C-0.75657957 27.51579202 -1.22264247 25.42360446 -1.69140625 23.33203125 C-1.95026611 22.16679932 -2.20912598 21.00156738 -2.47583008 19.80102539 C-3.64729286 15.24719461 -5.10082378 12.1787109 -8.98046875 9.40625 C-16.24777387 5.25350421 -24.25409939 4.76439468 -32.26171875 6.8828125 C-37.6502168 8.80653733 -41.00146366 12.04649776 -44.296875 16.609375 C-48.88993996 15.1233834 -51.73256745 12.75922818 -55.296875 9.609375 C-52.034877 2.67762926 -45.90623148 -1.02208805 -38.984375 -3.765625 C-26.16469106 -7.63756 -11.52907254 -6.98018678 0 0 Z M-42.671875 47.671875 C-45.18247256 52.21026289 -45.03701595 56.54284317 -44.296875 61.609375 C-42.22005399 65.59687133 -39.57203741 67.52629201 -35.33984375 69.10546875 C-27.11741817 71.13356225 -18.34249294 69.52540639 -11.06640625 65.3203125 C-8.99404582 63.8661609 -7.14875201 62.33396113 -5.296875 60.609375 C-4.76707031 60.12984375 -4.23726562 59.6503125 -3.69140625 59.15625 C0.74444572 54.23580916 0.11013141 48.76135076 -0.12109375 42.42578125 C-0.17910156 41.49636719 -0.23710938 40.56695312 -0.296875 39.609375 C-3.90097039 39.55031381 -7.50493809 39.51542861 -11.109375 39.484375 C-12.11419922 39.46761719 -13.11902344 39.45085937 -14.15429688 39.43359375 C-25.32180741 39.36177696 -34.04390363 40.17916302 -42.671875 47.671875 Z " fill="#0D0D0F" transform="translate(730.296875,37.390625)"/>
<path d="M0 0 C0.7115625 0.4125 1.423125 0.825 2.15625 1.25 C10.86491347 6.96912228 14.29571765 15.49513781 16.5546875 25.3359375 C17.18488491 30.521246 17 35.7765363 17 41 C-4.12 41 -25.24 41 -47 41 C-45.29983797 51.20097215 -43.89610589 59.50803359 -35.625 66 C-28.79470572 70.23897649 -20.43121645 71.23191499 -12.640625 69.46484375 C-6.17252691 67.47883377 -1.39053753 64.04290315 4 60 C6.97 61.98 9.94 63.96 13 66 C11.61228919 71.55084326 8.59628516 73.77585217 4 77 C-7.62957187 82.80609418 -22.06263052 84.30952958 -34.6875 80.8125 C-43.53863874 77.50868953 -51.64687872 71.71668354 -56.25 63.3125 C-62.42360298 49.39528293 -63.19503949 33.34920182 -58 19 C-53.67299761 8.690589 -46.74547536 2.22130747 -36.515625 -2.08984375 C-25.61398087 -6.03407214 -9.9903748 -6.14792296 0 0 Z M-39.875 14.625 C-43.41749499 19.08033649 -47 25.15213186 -47 31 C-29.84 31 -12.68 31 5 31 C2.62827961 19.12091691 2.62827961 19.12091691 -4.9375 10.625 C-16.33388146 4.57794045 -30.5903772 4.88698797 -39.875 14.625 Z " fill="#0D0D0F" transform="translate(269,36)"/>
<path d="M0 0 C5.82164001 4.7360473 9.27980833 10.87735034 10.625 18.25 C10.89749354 22.78124562 10.85765533 27.30185235 10.8203125 31.83984375 C10.8174826 33.13950577 10.81465271 34.43916779 10.81173706 35.7782135 C10.80414655 39.21249255 10.78453823 42.64659907 10.7623291 46.08081055 C10.74177121 49.59356351 10.7327142 53.10634469 10.72265625 56.61914062 C10.70128734 63.49617123 10.66614328 70.37305954 10.625 77.25 C6.335 77.25 2.045 77.25 -2.375 77.25 C-2.87 73.785 -2.87 73.785 -3.375 70.25 C-3.90867187 70.64832031 -4.44234375 71.04664062 -4.9921875 71.45703125 C-15.80847386 79.14819681 -26.39094457 80.39947373 -39.375 79.25 C-46.04686722 78.06938152 -52.57037785 75.06905995 -56.66015625 69.5 C-60.65793051 62.39284576 -61.31219 54.24635456 -59.22265625 46.4140625 C-56.4098829 39.23306509 -51.27033461 34.44804974 -44.375 31.25 C-35.1787192 28.0725475 -26.2603575 27.87800797 -16.625 28.0625 C-15.23438971 28.07759416 -13.84376333 28.09127409 -12.453125 28.10351562 C-9.09332666 28.13851352 -5.73438226 28.18761147 -2.375 28.25 C-2.66806421 26.32062926 -2.96906894 24.39246349 -3.2734375 22.46484375 C-3.52359619 20.85403931 -3.52359619 20.85403931 -3.77880859 19.21069336 C-4.8844548 13.72004161 -7.51649015 10.63798566 -11.9375 7.4375 C-18.69641682 3.5698976 -25.75523033 3.61791451 -33.1875 5.375 C-39.23611885 7.25871273 -42.82520687 9.9253103 -46.375 15.25 C-50.41920651 13.47054913 -53.83578487 10.85470327 -57.375 8.25 C-53.48490764 0.82346003 -46.57544566 -2.78729252 -38.875 -5.625 C-25.64000082 -9.11669805 -11.37675247 -7.71091 0 0 Z M-42.375 44.25 C-46.09129717 48.45528363 -46.97019252 51.68493167 -46.6953125 57.13671875 C-46.23945396 60.14427328 -45.34673716 61.93830815 -43.375 64.25 C-37.71878787 68.31087025 -32.16575575 68.84326415 -25.375 68.25 C-19.35640331 67.0191291 -14.16665761 65.18980737 -9.375 61.25 C-8.74207031 60.75242187 -8.10914063 60.25484375 -7.45703125 59.7421875 C-3.88874263 56.45166985 -2.49608749 54.3076403 -1.93359375 49.39453125 C-1.86556044 45.66109276 -2.0698371 41.97008108 -2.375 38.25 C-5.97909539 38.19093881 -9.58306309 38.15605361 -13.1875 38.125 C-14.19232422 38.10824219 -15.19714844 38.09148437 -16.23242188 38.07421875 C-25.32367728 38.01575409 -35.22501913 37.97196802 -42.375 44.25 Z " fill="#0D0D0F" transform="translate(430.375,38.75)"/>
<path d="M0 0 C12.87 0 25.74 0 39 0 C39 4.95 39 9.9 39 15 C32.07 15 25.14 15 18 15 C18 44.7 18 74.4 18 105 C24.93 105 31.86 105 39 105 C39 109.95 39 114.9 39 120 C26.13 120 13.26 120 0 120 C0 80.4 0 40.8 0 0 Z " fill="#E6150C" transform="translate(0,14)"/>
<path d="M0 0 C0 4.95 0 9.9 0 15 C-4.54101562 16.12304688 -4.54101562 16.12304688 -9.08203125 17.24609375 C-11.0740843 17.76077412 -13.04811524 18.34937175 -15 19 C-17.58462242 23.43577091 -17.36723797 28.25970943 -17.5 33.25 C-17.97608055 50.80897093 -17.97608055 50.80897093 -23.625 56.5625 C-24.25664063 57.22378906 -24.88828125 57.88507813 -25.5390625 58.56640625 C-26.02117187 59.03949219 -26.50328125 59.51257813 -27 60 C-26.59007813 60.44730469 -26.18015625 60.89460938 -25.7578125 61.35546875 C-17.97868027 70.08372955 -17.81315838 78.83329537 -17.5703125 90.09960938 C-17.39191509 94.79369136 -17.18973688 98.2858244 -14 102 C-11.94347943 103.18927659 -11.94347943 103.18927659 -9.625 103.75 C-8.87476563 103.97171875 -8.12453125 104.1934375 -7.3515625 104.421875 C-4.91768974 105.02023574 -2.45767483 105.50846503 0 106 C0 110.62 0 115.24 0 120 C-11.23446804 120.50178765 -20.97808926 120.79793314 -29.875 112.875 C-36.63016761 105.16671478 -37.55634984 96.59540447 -37.5625 86.6875 C-37.57145948 84.58714205 -37.59313215 82.48679113 -37.62890625 80.38671875 C-37.62963135 79.47108154 -37.63035645 78.55544434 -37.63110352 77.61206055 C-38.07603266 74.46163239 -39.16582439 72.57674088 -41 70 C-42.76580116 68.80126145 -42.76580116 68.80126145 -44.6875 68.1875 C-45.780625 67.795625 -46.87375 67.40375 -48 67 C-48 62.71 -48 58.42 -48 54 C-47.071875 53.566875 -46.14375 53.13375 -45.1875 52.6875 C-41.11957679 50.53389359 -39.45535272 49.36605815 -38 45 C-37.89760448 43.3445764 -37.84522332 41.68579813 -37.82421875 40.02734375 C-37.80037109 39.04443359 -37.77652344 38.06152344 -37.75195312 37.04882812 C-37.70955497 35.00215369 -37.6780002 32.95522093 -37.65820312 30.90820312 C-37.41576749 22.23126244 -35.71363687 14.72771545 -29.8125 8.125 C-21.18121005 0.28845409 -11.13558559 -0.15254227 0 0 Z " fill="#E7140C" transform="translate(100,14)"/>
<path d="M0 0 C1.11826172 0.00322266 2.23652344 0.00644531 3.38867188 0.00976562 C4.55591797 0.01814453 5.72316406 0.02652344 6.92578125 0.03515625 C8.10462891 0.03966797 9.28347656 0.04417969 10.49804688 0.04882812 C13.41147992 0.0606234 16.32488692 0.07855898 19.23828125 0.09765625 C19.23828125 3.72765625 19.23828125 7.35765625 19.23828125 11.09765625 C17.15966797 11.15373047 17.15966797 11.15373047 15.0390625 11.2109375 C13.20960894 11.27661019 11.38018305 11.34305708 9.55078125 11.41015625 C8.63876953 11.43271484 7.72675781 11.45527344 6.78710938 11.47851562 C0.00105457 11.72097419 0.00105457 11.72097419 -5.76171875 15.09765625 C-8.26666646 18.50930282 -8.15742257 22.22032493 -8.38671875 26.34765625 C-8.57234375 29.68890625 -8.57234375 29.68890625 -8.76171875 33.09765625 C0.47828125 33.09765625 9.71828125 33.09765625 19.23828125 33.09765625 C19.23828125 36.72765625 19.23828125 40.35765625 19.23828125 44.09765625 C9.99828125 44.09765625 0.75828125 44.09765625 -8.76171875 44.09765625 C-8.76171875 67.85765625 -8.76171875 91.61765625 -8.76171875 116.09765625 C-13.38171875 116.09765625 -18.00171875 116.09765625 -22.76171875 116.09765625 C-22.76171875 92.33765625 -22.76171875 68.57765625 -22.76171875 44.09765625 C-29.36171875 44.09765625 -35.96171875 44.09765625 -42.76171875 44.09765625 C-42.76171875 40.46765625 -42.76171875 36.83765625 -42.76171875 33.09765625 C-36.16171875 33.09765625 -29.56171875 33.09765625 -22.76171875 33.09765625 C-22.80296875 31.48890625 -22.84421875 29.88015625 -22.88671875 28.22265625 C-22.86587656 20.1254669 -22.32231454 12.38990938 -16.76171875 6.09765625 C-11.29523496 2.03368446 -6.88772261 -0.03496306 0 0 Z " fill="#0D0D0F" transform="translate(341.76171875,-0.09765625)"/>
<path d="M0 0 C3.15002166 2.27596159 5.95833772 4.71992559 8.66796875 7.50390625 C7.51923255 10.95011486 6.59215233 11.59559821 3.73046875 13.69140625 C3.02019531 14.22121094 2.30992187 14.75101563 1.578125 15.296875 C-0.33203125 16.50390625 -0.33203125 16.50390625 -2.33203125 16.50390625 C-2.99203125 15.59640625 -3.65203125 14.68890625 -4.33203125 13.75390625 C-8.26347205 8.88860415 -13.80686631 6.98363053 -19.88671875 6.15625 C-28.17072164 5.85947108 -34.68804957 7.84425195 -41.14453125 13.06640625 C-48.43450321 20.076484 -49.98975834 28.10107505 -50.4296875 37.97265625 C-50.19572627 46.43269448 -48.0940735 55.07012332 -42.33203125 61.50390625 C-36.52180285 66.37901205 -30.37866312 68.13603063 -22.89453125 68.81640625 C-14.03215537 68.03900486 -8.58584311 64.72363739 -2.33203125 58.50390625 C0.45904991 59.82534733 2.92583264 61.30772986 5.41796875 63.12890625 C6.0315625 63.57492188 6.64515625 64.0209375 7.27734375 64.48046875 C7.73625 64.81820312 8.19515625 65.1559375 8.66796875 65.50390625 C2.61535355 73.46787362 -4.51154397 78.24951766 -14.33203125 80.50390625 C-26.8108862 81.83567697 -38.79932487 80.79647289 -49.20703125 73.25390625 C-57.45814885 66.22628167 -62.69584199 57.29349391 -64.33203125 46.50390625 C-65.18728914 32.25895524 -64.31485913 19.48679179 -55.30078125 7.72265625 C-41.8715278 -7.41189922 -17.21812593 -11.04613439 0 0 Z " fill="#0D0D0F" transform="translate(522.33203125,37.49609375)"/>
<path d="M0 0 C4.29 0 8.58 0 13 0 C13 6.27 13 12.54 13 19 C22.24 19 31.48 19 41 19 C41 22.63 41 26.26 41 30 C31.76 30 22.52 30 13 30 C13.0740897 37.13560479 13.15700705 44.26997729 13.26245117 51.4050293 C13.29564466 53.83074498 13.32369384 56.25653686 13.34643555 58.68237305 C13.38008331 62.17529684 13.43240631 65.66752585 13.48828125 69.16015625 C13.49467117 70.23959 13.5010611 71.31902374 13.50764465 72.4311676 C13.62246641 78.35104547 14.02727871 82.81954763 17 88 C20.28747416 90.19164944 21.48494825 90.28679386 25.32421875 90.4140625 C26.35224609 90.45273438 27.38027344 90.49140625 28.43945312 90.53125 C29.51130859 90.5621875 30.58316406 90.593125 31.6875 90.625 C32.77095703 90.66367188 33.85441406 90.70234375 34.97070312 90.7421875 C37.64685334 90.83650116 40.32340342 90.91934126 43 91 C43 94.63 43 98.26 43 102 C38.50022116 102.11690073 34.00083713 102.18748837 29.5 102.25 C28.2315625 102.28351563 26.963125 102.31703125 25.65625 102.3515625 C17.67509592 102.43469952 11.69181178 102.17193293 5.49072266 96.65795898 C-0.98613521 89.68439536 -0.27406358 81.18767742 -0.1953125 72.28515625 C-0.1924826 71.07427841 -0.18965271 69.86340057 -0.18673706 68.61582947 C-0.1755803 64.76461732 -0.15048355 60.91364136 -0.125 57.0625 C-0.1149644 54.44466483 -0.10583956 51.82682599 -0.09765625 49.20898438 C-0.07565563 42.80589917 -0.04115642 36.40298958 0 30 C-6.93 30 -13.86 30 -21 30 C-21 20 -21 20 -20 19 C-18.5112814 18.91330568 -17.018555 18.89296506 -15.52734375 18.90234375 C-14.62822266 18.90556641 -13.72910156 18.90878906 -12.80273438 18.91210938 C-11.85720703 18.92048828 -10.91167969 18.92886719 -9.9375 18.9375 C-8.98810547 18.94201172 -8.03871094 18.94652344 -7.06054688 18.95117188 C-4.70700469 18.96299872 -2.35349468 18.98093479 0 19 C0 12.73 0 6.46 0 0 Z " fill="#0D0D0F" transform="translate(563,14)"/>
<path d="M0 0 C9.57 0 19.14 0 29 0 C29 23.76 29 47.52 29 72 C37.25 72 45.5 72 54 72 C54 75.63 54 79.26 54 83 C31.89 83 9.78 83 -13 83 C-13 73 -13 73 -12 72 C-3.09 72 5.82 72 15 72 C15 51.87 15 31.74 15 11 C10.05 11 5.1 11 0 11 C0 7.37 0 3.74 0 0 Z " fill="#0D0D0F" transform="translate(766,33)"/>
<path d="M0 0 C0 3.96 0 7.92 0 12 C-0.99 11.835 -1.98 11.67 -3 11.5 C-11.23959994 10.39368097 -17.69689827 10.67610008 -25 15 C-30.88082343 20.14319437 -36.24062882 26.76433243 -37.38937378 34.68463135 C-37.55582718 37.77412852 -37.60583645 40.84353011 -37.609375 43.9375 C-37.62591125 45.05817871 -37.64244751 46.17885742 -37.65948486 47.33349609 C-37.70780621 50.88905404 -37.72930147 54.44418473 -37.75 58 C-37.7781728 60.42059423 -37.80810205 62.84116869 -37.83984375 65.26171875 C-37.91356154 71.17444398 -37.96323351 77.08693422 -38 83 C-42.62 83 -47.24 83 -52 83 C-52.02312328 72.32580302 -52.04091501 61.65161194 -52.05181217 50.97739506 C-52.05704103 46.02146078 -52.06413874 41.06554358 -52.07543945 36.10961914 C-52.08626822 31.33101164 -52.09227681 26.55242062 -52.09487724 21.7738018 C-52.09673151 19.94646381 -52.10035216 18.11912676 -52.10573006 16.29179573 C-52.11294036 13.74146671 -52.11399095 11.19120663 -52.11352539 8.64086914 C-52.11712067 7.87770386 -52.12071594 7.11453857 -52.12442017 6.32824707 C-52.11405216 1.11405216 -52.11405216 1.11405216 -51 0 C-46.99779347 -0.14355117 -43.00558317 -0.04216403 -39 0 C-38.67 4.29 -38.34 8.58 -38 13 C-36.741875 11.618125 -35.48375 10.23625 -34.1875 8.8125 C-26.04797086 0.79936106 -11.41250093 -5.70625046 0 0 Z " fill="#0D0D0F" transform="translate(200,33)"/>
<path d="M0 0 C5.61 0 11.22 0 17 0 C17 5.61 17 11.22 17 17 C11.39 17 5.78 17 0 17 C0 11.39 0 5.78 0 0 Z " fill="#0E0E10" transform="translate(633,99)"/>
<path d="M0 0 C5.28 0 10.56 0 16 0 C16 4.95 16 9.9 16 15 C10.72 15 5.44 15 0 15 C0 10.05 0 5.1 0 0 Z " fill="#0D0D0F" transform="translate(780,4)"/>
</svg>
